<svg width="24" height="25" viewBox="0 0 24 25" fill="none" xmlns="http://www.w3.org/2000/svg">
<rect y="0.714783" width="24" height="24" rx="8" fill="#F5F5F5"/>
<path d="M16.7883 8.71188C16.5117 8.43509 16.1832 8.21552 15.8216 8.06572C15.4601 7.91591 15.0726 7.83881 14.6812 7.83881C14.2899 7.83881 13.9024 7.91591 13.5408 8.06572C13.1793 8.21552 12.8508 8.43509 12.5742 8.71188L12 9.28605L11.4258 8.71188C10.867 8.15305 10.109 7.8391 9.31873 7.8391C8.52842 7.8391 7.77048 8.15305 7.21165 8.71188C6.65282 9.27071 6.33887 10.0287 6.33887 10.819C6.33887 11.6093 6.65282 12.3672 7.21165 12.926L7.78582 13.5002L12 17.7144L16.2142 13.5002L16.7883 12.926C17.0651 12.6494 17.2847 12.3209 17.4345 11.9594C17.5843 11.5978 17.6614 11.2103 17.6614 10.819C17.6614 10.4276 17.5843 10.0401 17.4345 9.67856C17.2847 9.31702 17.0651 8.98854 16.7883 8.71188Z" stroke="#5A5568" stroke-width="1.5" stroke-linecap="round" stroke-linejoin="round"/>
</svg>
