<svg width="40" height="40" viewBox="0 0 40 40" fill="none" xmlns="http://www.w3.org/2000/svg">
<rect width="40" height="40" rx="8" fill="#F5F5F5"/>
<path d="M24.7883 15.9971C24.5117 15.7203 24.1832 15.5007 23.8216 15.3509C23.4601 15.2011 23.0726 15.124 22.6812 15.124C22.2899 15.124 21.9024 15.2011 21.5408 15.3509C21.1793 15.5007 20.8508 15.7203 20.5742 15.9971L20 16.5712L19.4258 15.9971C18.867 15.4382 18.109 15.1243 17.3187 15.1243C16.5284 15.1243 15.7705 15.4382 15.2116 15.9971C14.6528 16.5559 14.3389 17.3139 14.3389 18.1042C14.3389 18.8945 14.6528 19.6524 15.2116 20.2112L15.7858 20.7854L20 24.9996L24.2142 20.7854L24.7883 20.2112C25.0651 19.9346 25.2847 19.6061 25.4345 19.2446C25.5843 18.883 25.6614 18.4955 25.6614 18.1042C25.6614 17.7128 25.5843 17.3253 25.4345 16.9638C25.2847 16.6022 25.0651 16.2737 24.7883 15.9971Z" stroke="#5A5568" stroke-width="1.5" stroke-linecap="round" stroke-linejoin="round"/>
</svg>
