<svg width="24" height="24" viewBox="0 0 24 24" fill="none" xmlns="http://www.w3.org/2000/svg">
<rect width="24" height="24" rx="8" fill="#542D91"/>
<g clip-path="url(#clip0_26_6024)">
<path d="M10.2222 18.3704C10.5495 18.3704 10.8148 18.1051 10.8148 17.7778C10.8148 17.4505 10.5495 17.1852 10.2222 17.1852C9.89495 17.1852 9.62964 17.4505 9.62964 17.7778C9.62964 18.1051 9.89495 18.3704 10.2222 18.3704Z" stroke="white" stroke-width="1.5" stroke-linecap="round" stroke-linejoin="round"/>
<path d="M16.7408 18.3704C17.0681 18.3704 17.3334 18.1051 17.3334 17.7778C17.3334 17.4505 17.0681 17.1852 16.7408 17.1852C16.4135 17.1852 16.1482 17.4505 16.1482 17.7778C16.1482 18.1051 16.4135 18.3704 16.7408 18.3704Z" stroke="white" stroke-width="1.5" stroke-linecap="round" stroke-linejoin="round"/>
<path d="M5.48145 5.9259H7.85182L9.43996 13.8607C9.49415 14.1335 9.64258 14.3786 9.85925 14.553C10.0759 14.7275 10.347 14.8201 10.6251 14.8148H16.3851C16.6633 14.8201 16.9344 14.7275 17.151 14.553C17.3677 14.3786 17.5161 14.1335 17.5703 13.8607L18.5185 8.88887H8.44441" stroke="white" stroke-width="1.5" stroke-linecap="round" stroke-linejoin="round"/>
</g>
<defs>
<clipPath id="clip0_26_6024">
<rect width="16" height="15.1111" fill="white" transform="translate(4 4.44446)"/>
</clipPath>
</defs>
</svg>
