<svg width="16" height="14" viewBox="0 0 16 14" fill="none" xmlns="http://www.w3.org/2000/svg">
<path d="M12.7883 2.99708C12.5117 2.72029 12.1832 2.50072 11.8216 2.35092C11.4601 2.20111 11.0726 2.12401 10.6812 2.12401C10.2899 2.12401 9.90237 2.20111 9.54083 2.35092C9.17929 2.50072 8.85081 2.72029 8.57415 2.99708L7.99998 3.57125L7.42582 2.99708C6.86698 2.43825 6.10904 2.1243 5.31873 2.1243C4.52842 2.1243 3.77048 2.43825 3.21165 2.99708C2.65282 3.55591 2.33887 4.31385 2.33887 5.10416C2.33887 5.89447 2.65282 6.65241 3.21165 7.21125L3.78582 7.78541L7.99998 11.9996L12.2142 7.78541L12.7883 7.21125C13.0651 6.93459 13.2847 6.6061 13.4345 6.24456C13.5843 5.88302 13.6614 5.49551 13.6614 5.10416C13.6614 4.71282 13.5843 4.3253 13.4345 3.96376C13.2847 3.60222 13.0651 3.27374 12.7883 2.99708Z" stroke="#5A5568" stroke-width="1.5" stroke-linecap="round" stroke-linejoin="round"/>
</svg>
