<svg width="16" height="14" viewBox="0 0 16 14" fill="none" xmlns="http://www.w3.org/2000/svg">
<path d="M12.7883 2.71188C12.5117 2.43509 12.1832 2.21552 11.8216 2.06572C11.4601 1.91591 11.0726 1.83881 10.6812 1.83881C10.2899 1.83881 9.90237 1.91591 9.54083 2.06572C9.17929 2.21552 8.85081 2.43509 8.57415 2.71188L7.99998 3.28605L7.42582 2.71188C6.86698 2.15305 6.10904 1.8391 5.31873 1.8391C4.52842 1.8391 3.77048 2.15305 3.21165 2.71188C2.65282 3.27071 2.33887 4.02865 2.33887 4.81896C2.33887 5.60927 2.65282 6.36721 3.21165 6.92605L3.78582 7.50021L7.99998 11.7144L12.2142 7.50021L12.7883 6.92605C13.0651 6.64939 13.2847 6.3209 13.4345 5.95936C13.5843 5.59782 13.6614 5.21031 13.6614 4.81896C13.6614 4.42761 13.5843 4.0401 13.4345 3.67856C13.2847 3.31702 13.0651 2.98854 12.7883 2.71188Z" stroke="#5A5568" stroke-width="1.5" stroke-linecap="round" stroke-linejoin="round"/>
</svg>
