<svg width="25" height="25" viewBox="0 0 25 25" fill="none" xmlns="http://www.w3.org/2000/svg">
<g clip-path="url(#clip0_26_5186)">
<path d="M6.04947 5.03301C5.44947 6.37701 5.68647 8.78501 5.78247 10.469C5.13447 10.828 4.30247 10.198 3.83147 10.198C3.34147 10.198 2.75647 10.52 2.66447 11C2.59847 11.346 2.75347 11.85 3.86547 12.289C4.29547 12.459 5.31847 12.659 5.55547 13.217C5.88847 14.001 3.84547 17.62 0.637471 18.148C0.386471 18.189 0.207471 18.413 0.221471 18.667C0.277471 19.642 2.46347 20.024 3.43247 20.174C3.53147 20.308 3.61147 20.874 3.73847 21.305C3.79547 21.498 3.94247 21.729 4.32047 21.729C4.81347 21.729 5.63247 21.349 7.05847 21.585C8.45647 21.818 9.77047 23.8 12.2935 23.8C14.6385 23.8 16.0375 21.809 17.3835 21.585C18.1625 21.456 18.8315 21.497 19.5795 21.643C20.0945 21.744 20.5565 21.8 20.7035 21.294C20.8325 20.857 20.9115 20.302 21.0085 20.171C21.9685 20.022 24.1645 19.641 24.2195 18.666C24.2335 18.412 24.0545 18.189 23.8035 18.147C20.6495 17.627 18.5445 14.019 18.8855 13.216C19.1215 12.659 20.1375 12.461 20.5755 12.288C21.3895 11.967 21.7975 11.572 21.7885 11.115C21.7775 10.53 21.0735 10.181 20.5555 10.181C20.0285 10.181 19.2715 10.805 18.6585 10.467C18.7545 8.76901 18.9905 6.37201 18.3915 5.02901C17.2565 2.48601 14.7315 1.20001 12.2075 1.20001C9.69947 1.20001 7.19347 2.46801 6.04947 5.03301Z" fill="url(#paint0_linear_26_5186)"/>
</g>
<defs>
<linearGradient id="paint0_linear_26_5186" x1="24.2202" y1="13.6977" x2="0.220703" y2="13.6977" gradientUnits="userSpaceOnUse">
<stop stop-color="#EF6498"/>
<stop offset="1" stop-color="#542D91"/>
</linearGradient>
<clipPath id="clip0_26_5186">
<rect width="24" height="24" fill="white" transform="translate(0.220703 0.5)"/>
</clipPath>
</defs>
</svg>
