<svg width="24" height="25" viewBox="0 0 24 25" fill="none" xmlns="http://www.w3.org/2000/svg">
<path d="M17 2.71484H7C4.23858 2.71484 2 4.95342 2 7.71484V17.7148C2 20.4763 4.23858 22.7148 7 22.7148H17C19.7614 22.7148 22 20.4763 22 17.7148V7.71484C22 4.95342 19.7614 2.71484 17 2.71484Z" fill="url(#paint0_linear_26_15886)"/>
<path d="M16 12.0849C16.1234 12.9171 15.9812 13.7671 15.5937 14.5139C15.2062 15.2607 14.5931 15.8663 13.8416 16.2446C13.0901 16.6228 12.2384 16.7545 11.4077 16.6208C10.5771 16.4872 9.80971 16.095 9.21479 15.5001C8.61987 14.9051 8.22768 14.1378 8.09402 13.3071C7.96035 12.4765 8.09202 11.6248 8.47028 10.8733C8.84854 10.1218 9.45414 9.50864 10.2009 9.12114C10.9477 8.73364 11.7977 8.59149 12.63 8.7149C13.4789 8.84079 14.2648 9.23636 14.8716 9.84321C15.4785 10.4501 15.8741 11.236 16 12.0849Z" stroke="white" stroke-width="2" stroke-linecap="round" stroke-linejoin="round"/>
<path d="M17.5 7.21484H17.51" stroke="white" stroke-width="2" stroke-linecap="round" stroke-linejoin="round"/>
<defs>
<linearGradient id="paint0_linear_26_15886" x1="22" y1="13.7748" x2="2" y2="13.7748" gradientUnits="userSpaceOnUse">
<stop stop-color="#EF6498"/>
<stop offset="1" stop-color="#542D91"/>
</linearGradient>
</defs>
</svg>
