<svg width="25" height="25" viewBox="0 0 25 25" fill="none" xmlns="http://www.w3.org/2000/svg">
<path d="M17.2207 2.5H7.2207C4.45928 2.5 2.2207 4.73858 2.2207 7.5V17.5C2.2207 20.2614 4.45928 22.5 7.2207 22.5H17.2207C19.9821 22.5 22.2207 20.2614 22.2207 17.5V7.5C22.2207 4.73858 19.9821 2.5 17.2207 2.5Z" fill="url(#paint0_linear_26_3647)"/>
<path d="M16.2209 11.87C16.3443 12.7022 16.2022 13.5522 15.8147 14.299C15.4272 15.0458 14.814 15.6514 14.0625 16.0297C13.311 16.4079 12.4593 16.5396 11.6287 16.4059C10.798 16.2723 10.0307 15.8801 9.43574 15.2852C8.84082 14.6902 8.44863 13.9229 8.31497 13.0922C8.1813 12.2615 8.31296 11.4099 8.69122 10.6584C9.06949 9.90685 9.67508 9.29374 10.4219 8.90624C11.1687 8.51874 12.0187 8.37658 12.8509 8.5C13.6998 8.62588 14.4857 9.02146 15.0926 9.6283C15.6994 10.2351 16.095 11.0211 16.2209 11.87Z" stroke="white" stroke-width="2" stroke-linecap="round" stroke-linejoin="round"/>
<path d="M17.7207 7H17.7307" stroke="white" stroke-width="2" stroke-linecap="round" stroke-linejoin="round"/>
<defs>
<linearGradient id="paint0_linear_26_3647" x1="22.2207" y1="13.5599" x2="2.2207" y2="13.5599" gradientUnits="userSpaceOnUse">
<stop stop-color="#EF6498"/>
<stop offset="1" stop-color="#542D91"/>
</linearGradient>
</defs>
</svg>
