<svg width="25" height="25" viewBox="0 0 25 25" fill="none" xmlns="http://www.w3.org/2000/svg">
<path d="M17.2207 2.5H7.2207C4.45928 2.5 2.2207 4.73858 2.2207 7.5V17.5C2.2207 20.2614 4.45928 22.5 7.2207 22.5H17.2207C19.9821 22.5 22.2207 20.2614 22.2207 17.5V7.5C22.2207 4.73858 19.9821 2.5 17.2207 2.5Z" fill="url(#paint0_linear_26_12973)"/>
<path d="M16.2204 11.87C16.3438 12.7022 16.2017 13.5522 15.8142 14.299C15.4267 15.0458 14.8136 15.6514 14.062 16.0297C13.3105 16.4079 12.4589 16.5396 11.6282 16.4059C10.7975 16.2723 10.0302 15.8801 9.43525 15.2852C8.84033 14.6902 8.44814 13.9229 8.31448 13.0922C8.18081 12.2615 8.31248 11.4099 8.69074 10.6584C9.069 9.90685 9.6746 9.29374 10.4214 8.90624C11.1682 8.51874 12.0182 8.37658 12.8504 8.5C13.6993 8.62588 14.4853 9.02146 15.0921 9.6283C15.6989 10.2351 16.0945 11.0211 16.2204 11.87Z" stroke="white" stroke-width="2" stroke-linecap="round" stroke-linejoin="round"/>
<path d="M17.7207 7H17.7307" stroke="white" stroke-width="2" stroke-linecap="round" stroke-linejoin="round"/>
<defs>
<linearGradient id="paint0_linear_26_12973" x1="22.2207" y1="13.5599" x2="2.2207" y2="13.5599" gradientUnits="userSpaceOnUse">
<stop stop-color="#EF6498"/>
<stop offset="1" stop-color="#542D91"/>
</linearGradient>
</defs>
</svg>
