<svg width="25" height="25" viewBox="0 0 25 25" fill="none" xmlns="http://www.w3.org/2000/svg">
<path d="M17.2207 2.5H7.2207C4.45928 2.5 2.2207 4.73858 2.2207 7.5V17.5C2.2207 20.2614 4.45928 22.5 7.2207 22.5H17.2207C19.9821 22.5 22.2207 20.2614 22.2207 17.5V7.5C22.2207 4.73858 19.9821 2.5 17.2207 2.5Z" fill="url(#paint0_linear_26_7736)"/>
<path d="M16.2207 11.87C16.3441 12.7022 16.2019 13.5522 15.8144 14.299C15.4269 15.0458 14.8138 15.6514 14.0623 16.0297C13.3108 16.4079 12.4591 16.5396 11.6284 16.4059C10.7978 16.2723 10.0304 15.8801 9.43549 15.2852C8.84057 14.6902 8.44839 13.9229 8.31472 13.0922C8.18106 12.2615 8.31272 11.4099 8.69098 10.6584C9.06924 9.90685 9.67484 9.29374 10.4216 8.90624C11.1684 8.51874 12.0184 8.37658 12.8507 8.5C13.6996 8.62588 14.4855 9.02146 15.0923 9.6283C15.6992 10.2351 16.0948 11.0211 16.2207 11.87Z" stroke="white" stroke-width="2" stroke-linecap="round" stroke-linejoin="round"/>
<path d="M17.7207 7H17.7307" stroke="white" stroke-width="2" stroke-linecap="round" stroke-linejoin="round"/>
<defs>
<linearGradient id="paint0_linear_26_7736" x1="22.2207" y1="13.5599" x2="2.2207" y2="13.5599" gradientUnits="userSpaceOnUse">
<stop stop-color="#EF6498"/>
<stop offset="1" stop-color="#542D91"/>
</linearGradient>
</defs>
</svg>
