<svg width="24" height="25" viewBox="0 0 24 25" fill="none" xmlns="http://www.w3.org/2000/svg">
<path d="M15 8.71484C16.5913 8.71484 18.1174 9.34698 19.2426 10.4722C20.3679 11.5974 21 13.1235 21 14.7148V21.7148H17V14.7148C17 14.1844 16.7893 13.6757 16.4142 13.3006C16.0391 12.9256 15.5304 12.7148 15 12.7148C14.4696 12.7148 13.9609 12.9256 13.5858 13.3006C13.2107 13.6757 13 14.1844 13 14.7148V21.7148H9V14.7148C9 13.1235 9.63214 11.5974 10.7574 10.4722C11.8826 9.34698 13.4087 8.71484 15 8.71484Z" fill="url(#paint0_linear_26_15892)"/>
<path d="M7 9.71484H3V21.7148H7V9.71484Z" fill="url(#paint1_linear_26_15892)"/>
<path d="M5 6.71484C6.10457 6.71484 7 5.81941 7 4.71484C7 3.61027 6.10457 2.71484 5 2.71484C3.89543 2.71484 3 3.61027 3 4.71484C3 5.81941 3.89543 6.71484 5 6.71484Z" fill="url(#paint2_linear_26_15892)"/>
<defs>
<linearGradient id="paint0_linear_26_15892" x1="21" y1="15.9038" x2="9" y2="15.9038" gradientUnits="userSpaceOnUse">
<stop stop-color="#EF6498"/>
<stop offset="1" stop-color="#542D91"/>
</linearGradient>
<linearGradient id="paint1_linear_26_15892" x1="7" y1="16.3508" x2="3" y2="16.3508" gradientUnits="userSpaceOnUse">
<stop stop-color="#EF6498"/>
<stop offset="1" stop-color="#542D91"/>
</linearGradient>
<linearGradient id="paint2_linear_26_15892" x1="7" y1="4.92683" x2="3" y2="4.92683" gradientUnits="userSpaceOnUse">
<stop stop-color="#EF6498"/>
<stop offset="1" stop-color="#542D91"/>
</linearGradient>
</defs>
</svg>
