<svg width="24" height="25" viewBox="0 0 24 25" fill="none" xmlns="http://www.w3.org/2000/svg">
<rect y="0.714783" width="24" height="24" rx="8" fill="#F5F5F5"/>
<g clip-path="url(#clip0_26_12044)">
<path d="M5.125 12.7148C5.125 12.7148 7.625 7.71478 12 7.71478C16.375 7.71478 18.875 12.7148 18.875 12.7148C18.875 12.7148 16.375 17.7148 12 17.7148C7.625 17.7148 5.125 12.7148 5.125 12.7148Z" stroke="#5A5568" stroke-width="1.5" stroke-linecap="round" stroke-linejoin="round"/>
<path d="M12 14.5898C13.0355 14.5898 13.875 13.7503 13.875 12.7148C13.875 11.6792 13.0355 10.8398 12 10.8398C10.9645 10.8398 10.125 11.6792 10.125 12.7148C10.125 13.7503 10.9645 14.5898 12 14.5898Z" stroke="#5A5568" stroke-width="1.5" stroke-linecap="round" stroke-linejoin="round"/>
</g>
<defs>
<clipPath id="clip0_26_12044">
<rect width="15" height="15" fill="white" transform="translate(4.5 5.21478)"/>
</clipPath>
</defs>
</svg>
