<svg width="80" height="16" viewBox="0 0 80 16" fill="none" xmlns="http://www.w3.org/2000/svg">
<g opacity="0.3">
<path d="M7.10297 3.14994C7.4698 2.40678 8.52955 2.40678 8.89638 3.14994L9.82723 5.03574C9.97277 5.33058 10.254 5.53504 10.5793 5.5826L12.6626 5.8871C13.4825 6.00694 13.8093 7.01478 13.2157 7.59294L11.7098 9.05965C11.4739 9.2894 11.3663 9.62053 11.4219 9.94506L11.7771 12.0159C11.9172 12.8329 11.0597 13.4559 10.326 13.0701L8.46513 12.0914C8.17374 11.9382 7.82561 11.9382 7.53422 12.0914L5.67331 13.0701C4.93968 13.4559 4.08213 12.8329 4.22225 12.0159L4.57743 9.94506C4.63309 9.62053 4.52543 9.2894 4.28955 9.05965L2.78369 7.59294C2.19009 7.01478 2.51688 6.00694 3.33679 5.8871L5.42004 5.5826C5.74539 5.53504 6.02658 5.33058 6.17212 5.03574L7.10297 3.14994Z" fill="url(#paint0_linear_2_14866)"/>
</g>
<path d="M23.103 3.14994C23.4698 2.40678 24.5295 2.40678 24.8964 3.14994L25.8272 5.03574C25.9728 5.33058 26.254 5.53504 26.5793 5.5826L28.6626 5.8871C29.4825 6.00694 29.8093 7.01478 29.2157 7.59294L27.7098 9.05965C27.4739 9.2894 27.3663 9.62053 27.4219 9.94506L27.7771 12.0159C27.9172 12.8329 27.0597 13.4559 26.326 13.0701L24.4651 12.0914C24.1737 11.9382 23.8256 11.9382 23.5342 12.0914L21.6733 13.0701C20.9397 13.4559 20.0821 12.8329 20.2222 12.0159L20.5774 9.94506C20.6331 9.62053 20.5254 9.2894 20.2896 9.05965L18.7837 7.59294C18.1901 7.01478 18.5169 6.00694 19.3368 5.8871L21.42 5.5826C21.7454 5.53504 22.0266 5.33058 22.1721 5.03574L23.103 3.14994Z" fill="url(#paint1_linear_2_14866)"/>
<path d="M39.103 3.14994C39.4698 2.40678 40.5295 2.40678 40.8964 3.14994L41.8272 5.03574C41.9728 5.33058 42.254 5.53504 42.5793 5.5826L44.6626 5.8871C45.4825 6.00694 45.8093 7.01478 45.2157 7.59294L43.7098 9.05965C43.4739 9.2894 43.3663 9.62053 43.4219 9.94506L43.7771 12.0159C43.9172 12.8329 43.0597 13.4559 42.326 13.0701L40.4651 12.0914C40.1737 11.9382 39.8256 11.9382 39.5342 12.0914L37.6733 13.0701C36.9397 13.4559 36.0821 12.8329 36.2222 12.0159L36.5774 9.94506C36.6331 9.62053 36.5254 9.2894 36.2896 9.05965L34.7837 7.59294C34.1901 7.01478 34.5169 6.00694 35.3368 5.8871L37.42 5.5826C37.7454 5.53504 38.0266 5.33058 38.1721 5.03574L39.103 3.14994Z" fill="url(#paint2_linear_2_14866)"/>
<path d="M55.103 3.14994C55.4698 2.40678 56.5295 2.40678 56.8964 3.14994L57.8272 5.03574C57.9728 5.33058 58.254 5.53504 58.5793 5.5826L60.6626 5.8871C61.4825 6.00694 61.8093 7.01478 61.2157 7.59294L59.7098 9.05965C59.4739 9.2894 59.3663 9.62053 59.4219 9.94506L59.7771 12.0159C59.9172 12.8329 59.0597 13.4559 58.326 13.0701L56.4651 12.0914C56.1737 11.9382 55.8256 11.9382 55.5342 12.0914L53.6733 13.0701C52.9397 13.4559 52.0821 12.8329 52.2222 12.0159L52.5774 9.94506C52.6331 9.62053 52.5254 9.2894 52.2896 9.05965L50.7837 7.59294C50.1901 7.01478 50.5169 6.00694 51.3368 5.8871L53.42 5.5826C53.7454 5.53504 54.0266 5.33058 54.1721 5.03574L55.103 3.14994Z" fill="url(#paint3_linear_2_14866)"/>
<path d="M71.103 3.14994C71.4698 2.40678 72.5295 2.40678 72.8964 3.14994L73.8272 5.03574C73.9728 5.33058 74.254 5.53504 74.5793 5.5826L76.6626 5.8871C77.4825 6.00694 77.8093 7.01478 77.2157 7.59294L75.7098 9.05965C75.4739 9.2894 75.3663 9.62053 75.4219 9.94506L75.7771 12.0159C75.9172 12.8329 75.0597 13.4559 74.326 13.0701L72.4651 12.0914C72.1737 11.9382 71.8256 11.9382 71.5342 12.0914L69.6733 13.0701C68.9397 13.4559 68.0821 12.8329 68.2222 12.0159L68.5774 9.94506C68.6331 9.62053 68.5254 9.2894 68.2896 9.05965L66.7837 7.59294C66.1901 7.01478 66.5169 6.00694 67.3368 5.8871L69.42 5.5826C69.7454 5.53504 70.0266 5.33058 70.1721 5.03574L71.103 3.14994Z" fill="url(#paint4_linear_2_14866)"/>
<defs>
<linearGradient id="paint0_linear_2_14866" x1="14.6663" y1="8.34529" x2="1.33301" y2="8.34529" gradientUnits="userSpaceOnUse">
<stop stop-color="#EF6498"/>
<stop offset="1" stop-color="#542D91"/>
</linearGradient>
<linearGradient id="paint1_linear_2_14866" x1="30.6663" y1="8.34529" x2="17.333" y2="8.34529" gradientUnits="userSpaceOnUse">
<stop stop-color="#EF6498"/>
<stop offset="1" stop-color="#542D91"/>
</linearGradient>
<linearGradient id="paint2_linear_2_14866" x1="46.6663" y1="8.34529" x2="33.333" y2="8.34529" gradientUnits="userSpaceOnUse">
<stop stop-color="#EF6498"/>
<stop offset="1" stop-color="#542D91"/>
</linearGradient>
<linearGradient id="paint3_linear_2_14866" x1="62.6663" y1="8.34529" x2="49.333" y2="8.34529" gradientUnits="userSpaceOnUse">
<stop stop-color="#EF6498"/>
<stop offset="1" stop-color="#542D91"/>
</linearGradient>
<linearGradient id="paint4_linear_2_14866" x1="78.6663" y1="8.34529" x2="65.333" y2="8.34529" gradientUnits="userSpaceOnUse">
<stop stop-color="#EF6498"/>
<stop offset="1" stop-color="#542D91"/>
</linearGradient>
</defs>
</svg>
