<svg width="80" height="16" viewBox="0 0 80 16" fill="none" xmlns="http://www.w3.org/2000/svg">
<g opacity="0.3">
<path d="M7.10345 3.15C7.47029 2.40684 8.53003 2.40684 8.89687 3.15L9.82772 5.0358C9.97326 5.33065 10.2544 5.5351 10.5798 5.58266L12.663 5.88716C13.483 6.007 13.8097 7.01484 13.2162 7.593L11.7103 9.05972C11.4744 9.28946 11.3667 9.62059 11.4224 9.94512L11.7776 12.016C11.9177 12.833 11.0602 13.4559 10.3265 13.0701L8.46561 12.0915C8.17423 11.9382 7.82609 11.9382 7.53471 12.0915L5.67379 13.0701C4.94016 13.4559 4.08262 12.833 4.22273 12.016L4.57792 9.94512C4.63358 9.62059 4.52591 9.28946 4.29004 9.05972L2.78417 7.593C2.19058 7.01484 2.51736 6.007 3.33728 5.88716L5.42053 5.58266C5.74588 5.5351 6.02707 5.33065 6.17261 5.0358L7.10345 3.15Z" fill="url(#paint0_linear_2_12459)"/>
</g>
<path d="M23.1035 3.15C23.4703 2.40684 24.53 2.40684 24.8969 3.15L25.8277 5.0358C25.9733 5.33065 26.2544 5.5351 26.5798 5.58266L28.663 5.88716C29.483 6.007 29.8097 7.01484 29.2162 7.593L27.7103 9.05972C27.4744 9.28946 27.3667 9.62059 27.4224 9.94512L27.7776 12.016C27.9177 12.833 27.0602 13.4559 26.3265 13.0701L24.4656 12.0915C24.1742 11.9382 23.8261 11.9382 23.5347 12.0915L21.6738 13.0701C20.9402 13.4559 20.0826 12.833 20.2227 12.016L20.5779 9.94512C20.6336 9.62059 20.5259 9.28946 20.29 9.05972L18.7842 7.593C18.1906 7.01484 18.5174 6.007 19.3373 5.88716L21.4205 5.58266C21.7459 5.5351 22.0271 5.33065 22.1726 5.0358L23.1035 3.15Z" fill="url(#paint1_linear_2_12459)"/>
<path d="M39.1035 3.15C39.4703 2.40684 40.53 2.40684 40.8969 3.15L41.8277 5.0358C41.9733 5.33065 42.2544 5.5351 42.5798 5.58266L44.663 5.88716C45.483 6.007 45.8097 7.01484 45.2162 7.593L43.7103 9.05972C43.4744 9.28946 43.3667 9.62059 43.4224 9.94512L43.7776 12.016C43.9177 12.833 43.0602 13.4559 42.3265 13.0701L40.4656 12.0915C40.1742 11.9382 39.8261 11.9382 39.5347 12.0915L37.6738 13.0701C36.9402 13.4559 36.0826 12.833 36.2227 12.016L36.5779 9.94512C36.6336 9.62059 36.5259 9.28946 36.29 9.05972L34.7842 7.593C34.1906 7.01484 34.5174 6.007 35.3373 5.88716L37.4205 5.58266C37.7459 5.5351 38.0271 5.33065 38.1726 5.0358L39.1035 3.15Z" fill="url(#paint2_linear_2_12459)"/>
<path d="M55.103 3.15C55.4698 2.40684 56.5295 2.40684 56.8964 3.15L57.8272 5.0358C57.9728 5.33065 58.254 5.5351 58.5793 5.58266L60.6626 5.88716C61.4825 6.007 61.8093 7.01484 61.2157 7.593L59.7098 9.05972C59.4739 9.28946 59.3663 9.62059 59.4219 9.94512L59.7771 12.016C59.9172 12.833 59.0597 13.4559 58.326 13.0701L56.4651 12.0915C56.1737 11.9382 55.8256 11.9382 55.5342 12.0915L53.6733 13.0701C52.9397 13.4559 52.0821 12.833 52.2222 12.016L52.5774 9.94512C52.6331 9.62059 52.5254 9.28946 52.2896 9.05972L50.7837 7.593C50.1901 7.01484 50.5169 6.007 51.3368 5.88716L53.42 5.58266C53.7454 5.5351 54.0266 5.33065 54.1721 5.0358L55.103 3.15Z" fill="url(#paint3_linear_2_12459)"/>
<path d="M71.103 3.15C71.4698 2.40684 72.5295 2.40684 72.8964 3.15L73.8272 5.0358C73.9728 5.33065 74.254 5.5351 74.5793 5.58266L76.6626 5.88716C77.4825 6.007 77.8093 7.01484 77.2157 7.593L75.7098 9.05972C75.4739 9.28946 75.3663 9.62059 75.4219 9.94512L75.7771 12.016C75.9172 12.833 75.0597 13.4559 74.326 13.0701L72.4651 12.0915C72.1737 11.9382 71.8256 11.9382 71.5342 12.0915L69.6733 13.0701C68.9397 13.4559 68.0821 12.833 68.2222 12.016L68.5774 9.94512C68.6331 9.62059 68.5254 9.28946 68.2896 9.05972L66.7837 7.593C66.1901 7.01484 66.5169 6.007 67.3368 5.88716L69.42 5.58266C69.7454 5.5351 70.0266 5.33065 70.1721 5.0358L71.103 3.15Z" fill="url(#paint4_linear_2_12459)"/>
<defs>
<linearGradient id="paint0_linear_2_12459" x1="14.6668" y1="8.34535" x2="1.3335" y2="8.34535" gradientUnits="userSpaceOnUse">
<stop stop-color="#EF6498"/>
<stop offset="1" stop-color="#542D91"/>
</linearGradient>
<linearGradient id="paint1_linear_2_12459" x1="30.6668" y1="8.34535" x2="17.3335" y2="8.34535" gradientUnits="userSpaceOnUse">
<stop stop-color="#EF6498"/>
<stop offset="1" stop-color="#542D91"/>
</linearGradient>
<linearGradient id="paint2_linear_2_12459" x1="46.6668" y1="8.34535" x2="33.3335" y2="8.34535" gradientUnits="userSpaceOnUse">
<stop stop-color="#EF6498"/>
<stop offset="1" stop-color="#542D91"/>
</linearGradient>
<linearGradient id="paint3_linear_2_12459" x1="62.6663" y1="8.34535" x2="49.333" y2="8.34535" gradientUnits="userSpaceOnUse">
<stop stop-color="#EF6498"/>
<stop offset="1" stop-color="#542D91"/>
</linearGradient>
<linearGradient id="paint4_linear_2_12459" x1="78.6663" y1="8.34535" x2="65.333" y2="8.34535" gradientUnits="userSpaceOnUse">
<stop stop-color="#EF6498"/>
<stop offset="1" stop-color="#542D91"/>
</linearGradient>
</defs>
</svg>
