<svg width="80" height="16" viewBox="0 0 80 16" fill="none" xmlns="http://www.w3.org/2000/svg">
<g opacity="0.3">
<path d="M7.10321 3.15C7.47005 2.40684 8.52979 2.40684 8.89663 3.15L9.82747 5.0358C9.97301 5.33065 10.2542 5.5351 10.5796 5.58266L12.6628 5.88716C13.4827 6.007 13.8095 7.01484 13.2159 7.593L11.71 9.05972C11.4742 9.28946 11.3665 9.62059 11.4222 9.94512L11.7773 12.016C11.9175 12.833 11.0599 13.4559 10.3263 13.0701L8.46537 12.0915C8.17399 11.9382 7.82585 11.9382 7.53447 12.0915L5.67355 13.0701C4.93992 13.4559 4.08237 12.833 4.22249 12.016L4.57767 9.94512C4.63333 9.62059 4.52567 9.28946 4.2898 9.05972L2.78393 7.593C2.19034 7.01484 2.51712 6.007 3.33703 5.88716L5.42028 5.58266C5.74564 5.5351 6.02682 5.33065 6.17236 5.0358L7.10321 3.15Z" fill="url(#paint0_linear_26_5652)"/>
</g>
<path d="M23.1032 3.15C23.47 2.40684 24.5298 2.40684 24.8966 3.15L25.8275 5.0358C25.973 5.33065 26.2542 5.5351 26.5796 5.58266L28.6628 5.88716C29.4827 6.007 29.8095 7.01484 29.2159 7.593L27.71 9.05972C27.4742 9.28946 27.3665 9.62059 27.4222 9.94512L27.7773 12.016C27.9175 12.833 27.0599 13.4559 26.3263 13.0701L24.4654 12.0915C24.174 11.9382 23.8259 11.9382 23.5345 12.0915L21.6735 13.0701C20.9399 13.4559 20.0824 12.833 20.2225 12.016L20.5777 9.94512C20.6333 9.62059 20.5257 9.28946 20.2898 9.05972L18.7839 7.593C18.1903 7.01484 18.5171 6.007 19.337 5.88716L21.4203 5.58266C21.7456 5.5351 22.0268 5.33065 22.1724 5.0358L23.1032 3.15Z" fill="url(#paint1_linear_26_5652)"/>
<path d="M39.1032 3.15C39.47 2.40684 40.5298 2.40684 40.8966 3.15L41.8275 5.0358C41.973 5.33065 42.2542 5.5351 42.5796 5.58266L44.6628 5.88716C45.4827 6.007 45.8095 7.01484 45.2159 7.593L43.71 9.05972C43.4742 9.28946 43.3665 9.62059 43.4222 9.94512L43.7773 12.016C43.9175 12.833 43.0599 13.4559 42.3263 13.0701L40.4654 12.0915C40.174 11.9382 39.8259 11.9382 39.5345 12.0915L37.6735 13.0701C36.9399 13.4559 36.0824 12.833 36.2225 12.016L36.5777 9.94512C36.6333 9.62059 36.5257 9.28946 36.2898 9.05972L34.7839 7.593C34.1903 7.01484 34.5171 6.007 35.337 5.88716L37.4203 5.58266C37.7456 5.5351 38.0268 5.33065 38.1724 5.0358L39.1032 3.15Z" fill="url(#paint2_linear_26_5652)"/>
<path d="M55.1032 3.15C55.47 2.40684 56.5298 2.40684 56.8966 3.15L57.8275 5.0358C57.973 5.33065 58.2542 5.5351 58.5796 5.58266L60.6628 5.88716C61.4827 6.007 61.8095 7.01484 61.2159 7.593L59.71 9.05972C59.4742 9.28946 59.3665 9.62059 59.4222 9.94512L59.7773 12.016C59.9175 12.833 59.0599 13.4559 58.3263 13.0701L56.4654 12.0915C56.174 11.9382 55.8259 11.9382 55.5345 12.0915L53.6735 13.0701C52.9399 13.4559 52.0824 12.833 52.2225 12.016L52.5777 9.94512C52.6333 9.62059 52.5257 9.28946 52.2898 9.05972L50.7839 7.593C50.1903 7.01484 50.5171 6.007 51.337 5.88716L53.4203 5.58266C53.7456 5.5351 54.0268 5.33065 54.1724 5.0358L55.1032 3.15Z" fill="url(#paint3_linear_26_5652)"/>
<path d="M71.1032 3.15C71.47 2.40684 72.5298 2.40684 72.8966 3.15L73.8275 5.0358C73.973 5.33065 74.2542 5.5351 74.5796 5.58266L76.6628 5.88716C77.4827 6.007 77.8095 7.01484 77.2159 7.593L75.71 9.05972C75.4742 9.28946 75.3665 9.62059 75.4222 9.94512L75.7773 12.016C75.9175 12.833 75.0599 13.4559 74.3263 13.0701L72.4654 12.0915C72.174 11.9382 71.8259 11.9382 71.5345 12.0915L69.6735 13.0701C68.9399 13.4559 68.0824 12.833 68.2225 12.016L68.5777 9.94512C68.6333 9.62059 68.5257 9.28946 68.2898 9.05972L66.7839 7.593C66.1903 7.01484 66.5171 6.007 67.337 5.88716L69.4203 5.58266C69.7456 5.5351 70.0268 5.33065 70.1724 5.0358L71.1032 3.15Z" fill="url(#paint4_linear_26_5652)"/>
<defs>
<linearGradient id="paint0_linear_26_5652" x1="14.6666" y1="8.34535" x2="1.33325" y2="8.34535" gradientUnits="userSpaceOnUse">
<stop stop-color="#EF6498"/>
<stop offset="1" stop-color="#542D91"/>
</linearGradient>
<linearGradient id="paint1_linear_26_5652" x1="30.6666" y1="8.34535" x2="17.3333" y2="8.34535" gradientUnits="userSpaceOnUse">
<stop stop-color="#EF6498"/>
<stop offset="1" stop-color="#542D91"/>
</linearGradient>
<linearGradient id="paint2_linear_26_5652" x1="46.6666" y1="8.34535" x2="33.3333" y2="8.34535" gradientUnits="userSpaceOnUse">
<stop stop-color="#EF6498"/>
<stop offset="1" stop-color="#542D91"/>
</linearGradient>
<linearGradient id="paint3_linear_26_5652" x1="62.6666" y1="8.34535" x2="49.3333" y2="8.34535" gradientUnits="userSpaceOnUse">
<stop stop-color="#EF6498"/>
<stop offset="1" stop-color="#542D91"/>
</linearGradient>
<linearGradient id="paint4_linear_26_5652" x1="78.6666" y1="8.34535" x2="65.3333" y2="8.34535" gradientUnits="userSpaceOnUse">
<stop stop-color="#EF6498"/>
<stop offset="1" stop-color="#542D91"/>
</linearGradient>
</defs>
</svg>
