<svg width="80" height="16" viewBox="0 0 80 16" fill="none" xmlns="http://www.w3.org/2000/svg">
<g opacity="0.3">
<path d="M7.10345 3.14997C7.47029 2.40681 8.53003 2.40681 8.89687 3.14997L9.82772 5.03577C9.97326 5.33062 10.2544 5.53507 10.5798 5.58263L12.663 5.88713C13.483 6.00697 13.8097 7.01481 13.2162 7.59297L11.7103 9.05968C11.4744 9.28943 11.3667 9.62056 11.4224 9.94509L11.7776 12.016C11.9177 12.8329 11.0602 13.4559 10.3265 13.0701L8.46561 12.0915C8.17423 11.9382 7.82609 11.9382 7.53471 12.0915L5.67379 13.0701C4.94016 13.4559 4.08262 12.8329 4.22273 12.016L4.57792 9.94509C4.63358 9.62056 4.52591 9.28943 4.29004 9.05968L2.78417 7.59297C2.19058 7.01481 2.51736 6.00697 3.33728 5.88713L5.42053 5.58263C5.74588 5.53507 6.02707 5.33061 6.17261 5.03577L7.10345 3.14997Z" fill="url(#paint0_linear_26_6260)"/>
</g>
<path d="M23.1035 3.14997C23.4703 2.40681 24.53 2.40681 24.8969 3.14997L25.8277 5.03577C25.9733 5.33062 26.2544 5.53507 26.5798 5.58263L28.663 5.88713C29.483 6.00697 29.8097 7.01481 29.2162 7.59297L27.7103 9.05968C27.4744 9.28943 27.3667 9.62056 27.4224 9.94509L27.7776 12.016C27.9177 12.8329 27.0602 13.4559 26.3265 13.0701L24.4656 12.0915C24.1742 11.9382 23.8261 11.9382 23.5347 12.0915L21.6738 13.0701C20.9402 13.4559 20.0826 12.8329 20.2227 12.016L20.5779 9.94509C20.6336 9.62056 20.5259 9.28943 20.29 9.05968L18.7842 7.59297C18.1906 7.01481 18.5174 6.00697 19.3373 5.88713L21.4205 5.58263C21.7459 5.53507 22.0271 5.33061 22.1726 5.03577L23.1035 3.14997Z" fill="url(#paint1_linear_26_6260)"/>
<path d="M39.1035 3.14997C39.4703 2.40681 40.53 2.40681 40.8969 3.14997L41.8277 5.03577C41.9733 5.33062 42.2544 5.53507 42.5798 5.58263L44.663 5.88713C45.483 6.00697 45.8097 7.01481 45.2162 7.59297L43.7103 9.05968C43.4744 9.28943 43.3667 9.62056 43.4224 9.94509L43.7776 12.016C43.9177 12.8329 43.0602 13.4559 42.3265 13.0701L40.4656 12.0915C40.1742 11.9382 39.8261 11.9382 39.5347 12.0915L37.6738 13.0701C36.9402 13.4559 36.0826 12.8329 36.2227 12.016L36.5779 9.94509C36.6336 9.62056 36.5259 9.28943 36.29 9.05968L34.7842 7.59297C34.1906 7.01481 34.5174 6.00697 35.3373 5.88713L37.4205 5.58263C37.7459 5.53507 38.0271 5.33061 38.1726 5.03577L39.1035 3.14997Z" fill="url(#paint2_linear_26_6260)"/>
<path d="M55.1035 3.14997C55.4703 2.40681 56.53 2.40681 56.8969 3.14997L57.8277 5.03577C57.9733 5.33062 58.2544 5.53507 58.5798 5.58263L60.663 5.88713C61.483 6.00697 61.8097 7.01481 61.2162 7.59297L59.7103 9.05968C59.4744 9.28943 59.3667 9.62056 59.4224 9.94509L59.7776 12.016C59.9177 12.8329 59.0602 13.4559 58.3265 13.0701L56.4656 12.0915C56.1742 11.9382 55.8261 11.9382 55.5347 12.0915L53.6738 13.0701C52.9402 13.4559 52.0826 12.8329 52.2227 12.016L52.5779 9.94509C52.6336 9.62056 52.5259 9.28943 52.29 9.05968L50.7842 7.59297C50.1906 7.01481 50.5174 6.00697 51.3373 5.88713L53.4205 5.58263C53.7459 5.53507 54.0271 5.33061 54.1726 5.03577L55.1035 3.14997Z" fill="url(#paint3_linear_26_6260)"/>
<path d="M71.1035 3.14997C71.4703 2.40681 72.53 2.40681 72.8969 3.14997L73.8277 5.03577C73.9733 5.33062 74.2544 5.53507 74.5798 5.58263L76.663 5.88713C77.483 6.00697 77.8097 7.01481 77.2162 7.59297L75.7103 9.05968C75.4744 9.28943 75.3667 9.62056 75.4224 9.94509L75.7776 12.016C75.9177 12.8329 75.0602 13.4559 74.3265 13.0701L72.4656 12.0915C72.1742 11.9382 71.8261 11.9382 71.5347 12.0915L69.6738 13.0701C68.9402 13.4559 68.0826 12.8329 68.2227 12.016L68.5779 9.94509C68.6336 9.62056 68.5259 9.28943 68.29 9.05968L66.7842 7.59297C66.1906 7.01481 66.5174 6.00697 67.3373 5.88713L69.4205 5.58263C69.7459 5.53507 70.0271 5.33061 70.1726 5.03577L71.1035 3.14997Z" fill="url(#paint4_linear_26_6260)"/>
<defs>
<linearGradient id="paint0_linear_26_6260" x1="14.6668" y1="8.34532" x2="1.3335" y2="8.34532" gradientUnits="userSpaceOnUse">
<stop stop-color="#EF6498"/>
<stop offset="1" stop-color="#542D91"/>
</linearGradient>
<linearGradient id="paint1_linear_26_6260" x1="30.6668" y1="8.34532" x2="17.3335" y2="8.34532" gradientUnits="userSpaceOnUse">
<stop stop-color="#EF6498"/>
<stop offset="1" stop-color="#542D91"/>
</linearGradient>
<linearGradient id="paint2_linear_26_6260" x1="46.6668" y1="8.34532" x2="33.3335" y2="8.34532" gradientUnits="userSpaceOnUse">
<stop stop-color="#EF6498"/>
<stop offset="1" stop-color="#542D91"/>
</linearGradient>
<linearGradient id="paint3_linear_26_6260" x1="62.6668" y1="8.34532" x2="49.3335" y2="8.34532" gradientUnits="userSpaceOnUse">
<stop stop-color="#EF6498"/>
<stop offset="1" stop-color="#542D91"/>
</linearGradient>
<linearGradient id="paint4_linear_26_6260" x1="78.6668" y1="8.34532" x2="65.3335" y2="8.34532" gradientUnits="userSpaceOnUse">
<stop stop-color="#EF6498"/>
<stop offset="1" stop-color="#542D91"/>
</linearGradient>
</defs>
</svg>
