<svg width="80" height="17" viewBox="0 0 80 17" fill="none" xmlns="http://www.w3.org/2000/svg">
<g opacity="0.3">
<path d="M7.10297 3.64988C7.4698 2.90671 8.52955 2.90671 8.89638 3.64988L9.82723 5.53568C9.97277 5.83052 10.254 6.03498 10.5793 6.08254L12.6626 6.38704C13.4825 6.50688 13.8093 7.51472 13.2157 8.09288L11.7098 9.55959C11.4739 9.78933 11.3663 10.1205 11.4219 10.445L11.7771 12.5159C11.9172 13.3328 11.0597 13.9558 10.326 13.57L8.46512 12.5914C8.17374 12.4381 7.82561 12.4381 7.53422 12.5914L5.67331 13.57C4.93968 13.9558 4.08213 13.3328 4.22225 12.5159L4.57743 10.445C4.63309 10.1205 4.52543 9.78933 4.28955 9.55959L2.78369 8.09288C2.19009 7.51472 2.51688 6.50688 3.33679 6.38704L5.42004 6.08254C5.74539 6.03498 6.02658 5.83052 6.17212 5.53568L7.10297 3.64988Z" fill="url(#paint0_linear_158_26977)"/>
</g>
<path d="M23.103 3.64988C23.4698 2.90671 24.5295 2.90671 24.8964 3.64988L25.8272 5.53568C25.9728 5.83052 26.254 6.03498 26.5793 6.08254L28.6626 6.38704C29.4825 6.50688 29.8093 7.51472 29.2157 8.09288L27.7098 9.55959C27.4739 9.78933 27.3663 10.1205 27.4219 10.445L27.7771 12.5159C27.9172 13.3328 27.0597 13.9558 26.326 13.57L24.4651 12.5914C24.1737 12.4381 23.8256 12.4381 23.5342 12.5914L21.6733 13.57C20.9397 13.9558 20.0821 13.3328 20.2222 12.5159L20.5774 10.445C20.6331 10.1205 20.5254 9.78933 20.2896 9.55959L18.7837 8.09288C18.1901 7.51472 18.5169 6.50688 19.3368 6.38704L21.42 6.08254C21.7454 6.03498 22.0266 5.83052 22.1721 5.53568L23.103 3.64988Z" fill="url(#paint1_linear_158_26977)"/>
<path d="M39.103 3.64988C39.4698 2.90671 40.5295 2.90671 40.8964 3.64988L41.8272 5.53568C41.9728 5.83052 42.254 6.03498 42.5793 6.08254L44.6626 6.38704C45.4825 6.50688 45.8093 7.51472 45.2157 8.09288L43.7098 9.55959C43.4739 9.78933 43.3663 10.1205 43.4219 10.445L43.7771 12.5159C43.9172 13.3328 43.0597 13.9558 42.326 13.57L40.4651 12.5914C40.1737 12.4381 39.8256 12.4381 39.5342 12.5914L37.6733 13.57C36.9397 13.9558 36.0821 13.3328 36.2222 12.5159L36.5774 10.445C36.6331 10.1205 36.5254 9.78933 36.2896 9.55959L34.7837 8.09288C34.1901 7.51472 34.5169 6.50688 35.3368 6.38704L37.42 6.08254C37.7454 6.03498 38.0266 5.83052 38.1721 5.53568L39.103 3.64988Z" fill="url(#paint2_linear_158_26977)"/>
<path d="M55.103 3.64988C55.4698 2.90671 56.5295 2.90671 56.8964 3.64988L57.8272 5.53568C57.9728 5.83052 58.254 6.03498 58.5793 6.08254L60.6626 6.38704C61.4825 6.50688 61.8093 7.51472 61.2157 8.09288L59.7098 9.55959C59.4739 9.78933 59.3663 10.1205 59.4219 10.445L59.7771 12.5159C59.9172 13.3328 59.0597 13.9558 58.326 13.57L56.4651 12.5914C56.1737 12.4381 55.8256 12.4381 55.5342 12.5914L53.6733 13.57C52.9397 13.9558 52.0821 13.3328 52.2222 12.5159L52.5774 10.445C52.6331 10.1205 52.5254 9.78933 52.2896 9.55959L50.7837 8.09288C50.1901 7.51472 50.5169 6.50688 51.3368 6.38704L53.42 6.08254C53.7454 6.03498 54.0266 5.83052 54.1721 5.53568L55.103 3.64988Z" fill="url(#paint3_linear_158_26977)"/>
<path d="M71.103 3.64988C71.4698 2.90671 72.5295 2.90671 72.8964 3.64988L73.8272 5.53568C73.9728 5.83052 74.254 6.03498 74.5793 6.08254L76.6626 6.38704C77.4825 6.50688 77.8093 7.51472 77.2157 8.09288L75.7098 9.55959C75.4739 9.78933 75.3663 10.1205 75.4219 10.445L75.7771 12.5159C75.9172 13.3328 75.0597 13.9558 74.326 13.57L72.4651 12.5914C72.1737 12.4381 71.8256 12.4381 71.5342 12.5914L69.6733 13.57C68.9397 13.9558 68.0821 13.3328 68.2222 12.5159L68.5774 10.445C68.6331 10.1205 68.5254 9.78933 68.2896 9.55959L66.7837 8.09288C66.1901 7.51472 66.5169 6.50688 67.3368 6.38704L69.42 6.08254C69.7454 6.03498 70.0266 5.83052 70.1721 5.53568L71.103 3.64988Z" fill="url(#paint4_linear_158_26977)"/>
<defs>
<linearGradient id="paint0_linear_158_26977" x1="14.6663" y1="8.84523" x2="1.33301" y2="8.84523" gradientUnits="userSpaceOnUse">
<stop stop-color="#EF6498"/>
<stop offset="1" stop-color="#542D91"/>
</linearGradient>
<linearGradient id="paint1_linear_158_26977" x1="30.6663" y1="8.84523" x2="17.333" y2="8.84523" gradientUnits="userSpaceOnUse">
<stop stop-color="#EF6498"/>
<stop offset="1" stop-color="#542D91"/>
</linearGradient>
<linearGradient id="paint2_linear_158_26977" x1="46.6663" y1="8.84523" x2="33.333" y2="8.84523" gradientUnits="userSpaceOnUse">
<stop stop-color="#EF6498"/>
<stop offset="1" stop-color="#542D91"/>
</linearGradient>
<linearGradient id="paint3_linear_158_26977" x1="62.6663" y1="8.84523" x2="49.333" y2="8.84523" gradientUnits="userSpaceOnUse">
<stop stop-color="#EF6498"/>
<stop offset="1" stop-color="#542D91"/>
</linearGradient>
<linearGradient id="paint4_linear_158_26977" x1="78.6663" y1="8.84523" x2="65.333" y2="8.84523" gradientUnits="userSpaceOnUse">
<stop stop-color="#EF6498"/>
<stop offset="1" stop-color="#542D91"/>
</linearGradient>
</defs>
</svg>
