<svg width="80" height="16" viewBox="0 0 80 16" fill="none" xmlns="http://www.w3.org/2000/svg">
<g opacity="0.3">
<path d="M7.10345 3.14994C7.47029 2.40678 8.53003 2.40678 8.89687 3.14994L9.82772 5.03574C9.97326 5.33058 10.2544 5.53504 10.5798 5.5826L12.663 5.8871C13.483 6.00694 13.8097 7.01478 13.2162 7.59294L11.7103 9.05965C11.4744 9.2894 11.3667 9.62053 11.4224 9.94506L11.7776 12.0159C11.9177 12.8329 11.0602 13.4559 10.3265 13.0701L8.46561 12.0914C8.17423 11.9382 7.82609 11.9382 7.53471 12.0914L5.67379 13.0701C4.94016 13.4559 4.08262 12.8329 4.22273 12.0159L4.57792 9.94506C4.63358 9.62053 4.52591 9.2894 4.29004 9.05965L2.78417 7.59294C2.19058 7.01478 2.51736 6.00694 3.33728 5.8871L5.42053 5.5826C5.74588 5.53504 6.02707 5.33058 6.17261 5.03574L7.10345 3.14994Z" fill="url(#paint0_linear_2_12342)"/>
</g>
<path d="M23.1035 3.14994C23.4703 2.40678 24.53 2.40678 24.8969 3.14994L25.8277 5.03574C25.9733 5.33058 26.2544 5.53504 26.5798 5.5826L28.663 5.8871C29.483 6.00694 29.8097 7.01478 29.2162 7.59294L27.7103 9.05965C27.4744 9.2894 27.3667 9.62053 27.4224 9.94506L27.7776 12.0159C27.9177 12.8329 27.0602 13.4559 26.3265 13.0701L24.4656 12.0914C24.1742 11.9382 23.8261 11.9382 23.5347 12.0914L21.6738 13.0701C20.9402 13.4559 20.0826 12.8329 20.2227 12.0159L20.5779 9.94506C20.6336 9.62053 20.5259 9.2894 20.29 9.05965L18.7842 7.59294C18.1906 7.01478 18.5174 6.00694 19.3373 5.8871L21.4205 5.5826C21.7459 5.53504 22.0271 5.33058 22.1726 5.03574L23.1035 3.14994Z" fill="url(#paint1_linear_2_12342)"/>
<path d="M39.1035 3.14994C39.4703 2.40678 40.53 2.40678 40.8969 3.14994L41.8277 5.03574C41.9733 5.33058 42.2544 5.53504 42.5798 5.5826L44.663 5.8871C45.483 6.00694 45.8097 7.01478 45.2162 7.59294L43.7103 9.05965C43.4744 9.2894 43.3667 9.62053 43.4224 9.94506L43.7776 12.0159C43.9177 12.8329 43.0602 13.4559 42.3265 13.0701L40.4656 12.0914C40.1742 11.9382 39.8261 11.9382 39.5347 12.0914L37.6738 13.0701C36.9402 13.4559 36.0826 12.8329 36.2227 12.0159L36.5779 9.94506C36.6336 9.62053 36.5259 9.2894 36.29 9.05965L34.7842 7.59294C34.1906 7.01478 34.5174 6.00694 35.3373 5.8871L37.4205 5.5826C37.7459 5.53504 38.0271 5.33058 38.1726 5.03574L39.1035 3.14994Z" fill="url(#paint2_linear_2_12342)"/>
<path d="M55.103 3.14994C55.4698 2.40678 56.5295 2.40678 56.8964 3.14994L57.8272 5.03574C57.9728 5.33058 58.254 5.53504 58.5793 5.5826L60.6626 5.8871C61.4825 6.00694 61.8093 7.01478 61.2157 7.59294L59.7098 9.05965C59.4739 9.2894 59.3663 9.62053 59.4219 9.94506L59.7771 12.0159C59.9172 12.8329 59.0597 13.4559 58.326 13.0701L56.4651 12.0914C56.1737 11.9382 55.8256 11.9382 55.5342 12.0914L53.6733 13.0701C52.9397 13.4559 52.0821 12.8329 52.2222 12.0159L52.5774 9.94506C52.6331 9.62053 52.5254 9.2894 52.2896 9.05965L50.7837 7.59294C50.1901 7.01478 50.5169 6.00694 51.3368 5.8871L53.42 5.5826C53.7454 5.53504 54.0266 5.33058 54.1721 5.03574L55.103 3.14994Z" fill="url(#paint3_linear_2_12342)"/>
<path d="M71.103 3.14994C71.4698 2.40678 72.5295 2.40678 72.8964 3.14994L73.8272 5.03574C73.9728 5.33058 74.254 5.53504 74.5793 5.5826L76.6626 5.8871C77.4825 6.00694 77.8093 7.01478 77.2157 7.59294L75.7098 9.05965C75.4739 9.2894 75.3663 9.62053 75.4219 9.94506L75.7771 12.0159C75.9172 12.8329 75.0597 13.4559 74.326 13.0701L72.4651 12.0914C72.1737 11.9382 71.8256 11.9382 71.5342 12.0914L69.6733 13.0701C68.9397 13.4559 68.0821 12.8329 68.2222 12.0159L68.5774 9.94506C68.6331 9.62053 68.5254 9.2894 68.2896 9.05965L66.7837 7.59294C66.1901 7.01478 66.5169 6.00694 67.3368 5.8871L69.42 5.5826C69.7454 5.53504 70.0266 5.33058 70.1721 5.03574L71.103 3.14994Z" fill="url(#paint4_linear_2_12342)"/>
<defs>
<linearGradient id="paint0_linear_2_12342" x1="14.6668" y1="8.34529" x2="1.3335" y2="8.34529" gradientUnits="userSpaceOnUse">
<stop stop-color="#EF6498"/>
<stop offset="1" stop-color="#542D91"/>
</linearGradient>
<linearGradient id="paint1_linear_2_12342" x1="30.6668" y1="8.34529" x2="17.3335" y2="8.34529" gradientUnits="userSpaceOnUse">
<stop stop-color="#EF6498"/>
<stop offset="1" stop-color="#542D91"/>
</linearGradient>
<linearGradient id="paint2_linear_2_12342" x1="46.6668" y1="8.34529" x2="33.3335" y2="8.34529" gradientUnits="userSpaceOnUse">
<stop stop-color="#EF6498"/>
<stop offset="1" stop-color="#542D91"/>
</linearGradient>
<linearGradient id="paint3_linear_2_12342" x1="62.6663" y1="8.34529" x2="49.333" y2="8.34529" gradientUnits="userSpaceOnUse">
<stop stop-color="#EF6498"/>
<stop offset="1" stop-color="#542D91"/>
</linearGradient>
<linearGradient id="paint4_linear_2_12342" x1="78.6663" y1="8.34529" x2="65.333" y2="8.34529" gradientUnits="userSpaceOnUse">
<stop stop-color="#EF6498"/>
<stop offset="1" stop-color="#542D91"/>
</linearGradient>
</defs>
</svg>
