<svg width="80" height="16" viewBox="0 0 80 16" fill="none" xmlns="http://www.w3.org/2000/svg">
<g opacity="0.3">
<path d="M7.10345 3.14996C7.47029 2.40679 8.53003 2.40679 8.89687 3.14996L9.82772 5.03575C9.97326 5.3306 10.2544 5.53506 10.5798 5.58261L12.663 5.88711C13.483 6.00696 13.8097 7.0148 13.2162 7.59296L11.7103 9.05967C11.4744 9.28941 11.3667 9.62054 11.4224 9.94507L11.7776 12.016C11.9177 12.8329 11.0602 13.4559 10.3265 13.0701L8.46561 12.0914C8.17423 11.9382 7.82609 11.9382 7.53471 12.0914L5.67379 13.0701C4.94016 13.4559 4.08262 12.8329 4.22273 12.016L4.57792 9.94507C4.63358 9.62054 4.52591 9.28941 4.29004 9.05967L2.78417 7.59296C2.19058 7.0148 2.51736 6.00696 3.33728 5.88711L5.42053 5.58261C5.74588 5.53506 6.02707 5.3306 6.17261 5.03575L7.10345 3.14996Z" fill="url(#paint0_linear_26_12059)"/>
</g>
<path d="M23.1035 3.14996C23.4703 2.40679 24.53 2.40679 24.8969 3.14996L25.8277 5.03575C25.9733 5.3306 26.2544 5.53506 26.5798 5.58261L28.663 5.88711C29.483 6.00696 29.8097 7.0148 29.2162 7.59296L27.7103 9.05967C27.4744 9.28941 27.3667 9.62054 27.4224 9.94507L27.7776 12.016C27.9177 12.8329 27.0602 13.4559 26.3265 13.0701L24.4656 12.0914C24.1742 11.9382 23.8261 11.9382 23.5347 12.0914L21.6738 13.0701C20.9402 13.4559 20.0826 12.8329 20.2227 12.016L20.5779 9.94507C20.6336 9.62054 20.5259 9.28941 20.29 9.05967L18.7842 7.59296C18.1906 7.0148 18.5174 6.00696 19.3373 5.88711L21.4205 5.58261C21.7459 5.53506 22.0271 5.3306 22.1726 5.03575L23.1035 3.14996Z" fill="url(#paint1_linear_26_12059)"/>
<path d="M39.1035 3.14996C39.4703 2.40679 40.53 2.40679 40.8969 3.14996L41.8277 5.03575C41.9733 5.3306 42.2544 5.53506 42.5798 5.58261L44.663 5.88711C45.483 6.00696 45.8097 7.0148 45.2162 7.59296L43.7103 9.05967C43.4744 9.28941 43.3667 9.62054 43.4224 9.94507L43.7776 12.016C43.9177 12.8329 43.0602 13.4559 42.3265 13.0701L40.4656 12.0914C40.1742 11.9382 39.8261 11.9382 39.5347 12.0914L37.6738 13.0701C36.9402 13.4559 36.0826 12.8329 36.2227 12.016L36.5779 9.94507C36.6336 9.62054 36.5259 9.28941 36.29 9.05967L34.7842 7.59296C34.1906 7.0148 34.5174 6.00696 35.3373 5.88711L37.4205 5.58261C37.7459 5.53506 38.0271 5.3306 38.1726 5.03575L39.1035 3.14996Z" fill="url(#paint2_linear_26_12059)"/>
<path d="M55.1035 3.14996C55.4703 2.40679 56.53 2.40679 56.8969 3.14996L57.8277 5.03575C57.9733 5.3306 58.2544 5.53506 58.5798 5.58261L60.663 5.88711C61.483 6.00696 61.8097 7.0148 61.2162 7.59296L59.7103 9.05967C59.4744 9.28941 59.3667 9.62054 59.4224 9.94507L59.7776 12.016C59.9177 12.8329 59.0602 13.4559 58.3265 13.0701L56.4656 12.0914C56.1742 11.9382 55.8261 11.9382 55.5347 12.0914L53.6738 13.0701C52.9402 13.4559 52.0826 12.8329 52.2227 12.016L52.5779 9.94507C52.6336 9.62054 52.5259 9.28941 52.29 9.05967L50.7842 7.59296C50.1906 7.0148 50.5174 6.00696 51.3373 5.88711L53.4205 5.58261C53.7459 5.53506 54.0271 5.3306 54.1726 5.03575L55.1035 3.14996Z" fill="url(#paint3_linear_26_12059)"/>
<path d="M71.1035 3.14996C71.4703 2.40679 72.53 2.40679 72.8969 3.14996L73.8277 5.03575C73.9733 5.3306 74.2544 5.53506 74.5798 5.58261L76.663 5.88711C77.483 6.00696 77.8097 7.0148 77.2162 7.59296L75.7103 9.05967C75.4744 9.28941 75.3667 9.62054 75.4224 9.94507L75.7776 12.016C75.9177 12.8329 75.0602 13.4559 74.3265 13.0701L72.4656 12.0914C72.1742 11.9382 71.8261 11.9382 71.5347 12.0914L69.6738 13.0701C68.9402 13.4559 68.0826 12.8329 68.2227 12.016L68.5779 9.94507C68.6336 9.62054 68.5259 9.28941 68.29 9.05967L66.7842 7.59296C66.1906 7.0148 66.5174 6.00696 67.3373 5.88711L69.4205 5.58261C69.7459 5.53506 70.0271 5.3306 70.1726 5.03575L71.1035 3.14996Z" fill="url(#paint4_linear_26_12059)"/>
<defs>
<linearGradient id="paint0_linear_26_12059" x1="14.6668" y1="8.34531" x2="1.3335" y2="8.34531" gradientUnits="userSpaceOnUse">
<stop stop-color="#EF6498"/>
<stop offset="1" stop-color="#542D91"/>
</linearGradient>
<linearGradient id="paint1_linear_26_12059" x1="30.6668" y1="8.34531" x2="17.3335" y2="8.34531" gradientUnits="userSpaceOnUse">
<stop stop-color="#EF6498"/>
<stop offset="1" stop-color="#542D91"/>
</linearGradient>
<linearGradient id="paint2_linear_26_12059" x1="46.6668" y1="8.34531" x2="33.3335" y2="8.34531" gradientUnits="userSpaceOnUse">
<stop stop-color="#EF6498"/>
<stop offset="1" stop-color="#542D91"/>
</linearGradient>
<linearGradient id="paint3_linear_26_12059" x1="62.6668" y1="8.34531" x2="49.3335" y2="8.34531" gradientUnits="userSpaceOnUse">
<stop stop-color="#EF6498"/>
<stop offset="1" stop-color="#542D91"/>
</linearGradient>
<linearGradient id="paint4_linear_26_12059" x1="78.6668" y1="8.34531" x2="65.3335" y2="8.34531" gradientUnits="userSpaceOnUse">
<stop stop-color="#EF6498"/>
<stop offset="1" stop-color="#542D91"/>
</linearGradient>
</defs>
</svg>
