<svg width="16" height="17" viewBox="0 0 16 17" fill="none" xmlns="http://www.w3.org/2000/svg">
<path d="M4 1.83337L2 4.50004V13.8334C2 14.187 2.14048 14.5261 2.39052 14.7762C2.64057 15.0262 2.97971 15.1667 3.33333 15.1667H12.6667C13.0203 15.1667 13.3594 15.0262 13.6095 14.7762C13.8595 14.5261 14 14.187 14 13.8334V4.50004L12 1.83337H4Z" stroke="white" stroke-width="1.5" stroke-linecap="round" stroke-linejoin="round"/>
<path d="M2 4.5H14" stroke="white" stroke-width="1.5" stroke-linecap="round" stroke-linejoin="round"/>
<path d="M10.6668 7.16663C10.6668 7.87387 10.3859 8.55215 9.88578 9.05224C9.38568 9.55234 8.70741 9.83329 8.00016 9.83329C7.29292 9.83329 6.61464 9.55234 6.11454 9.05224C5.61445 8.55215 5.3335 7.87387 5.3335 7.16663" stroke="white" stroke-width="1.5" stroke-linecap="round" stroke-linejoin="round"/>
</svg>
