<svg width="17" height="17" viewBox="0 0 17 17" fill="none" xmlns="http://www.w3.org/2000/svg">
<g clip-path="url(#clip0_26_1474)">
<path d="M4.5 1.54822L2.5 4.21488V13.5482C2.5 13.9018 2.64048 14.241 2.89052 14.491C3.14057 14.7411 3.47971 14.8816 3.83333 14.8816H13.1667C13.5203 14.8816 13.8594 14.7411 14.1095 14.491C14.3595 14.241 14.5 13.9018 14.5 13.5482V4.21488L12.5 1.54822H4.5Z" stroke="white" stroke-width="1.5" stroke-linecap="round" stroke-linejoin="round"/>
<path d="M2.5 4.21484H14.5" stroke="white" stroke-width="1.5" stroke-linecap="round" stroke-linejoin="round"/>
<path d="M11.1667 6.88147C11.1667 7.58871 10.8858 8.26699 10.3857 8.76709C9.88556 9.26718 9.20728 9.54814 8.50004 9.54814C7.7928 9.54814 7.11452 9.26718 6.61442 8.76709C6.11433 8.26699 5.83337 7.58871 5.83337 6.88147" stroke="white" stroke-width="1.5" stroke-linecap="round" stroke-linejoin="round"/>
</g>
<defs>
<clipPath id="clip0_26_1474">
<rect width="16" height="16" fill="white" transform="translate(0.5 0.214844)"/>
</clipPath>
</defs>
</svg>
