<svg xmlns="http://www.w3.org/2000/svg" width="16" height="17" viewBox="0 0 16 17" fill="none">
  <g opacity="0.3">
    <path d="M7.10297 3.64988C7.4698 2.90671 8.52955 2.90671 8.89638 3.64988L9.82723 5.53568C9.97277 5.83052 10.254 6.03498 10.5793 6.08254L12.6626 6.38704C13.4825 6.50688 13.8093 7.51472 13.2157 8.09288L11.7098 9.55959C11.4739 9.78933 11.3663 10.1205 11.4219 10.445L11.7771 12.5159C11.9172 13.3328 11.0597 13.9558 10.326 13.57L8.46513 12.5914C8.17374 12.4381 7.82561 12.4381 7.53422 12.5914L5.67331 13.57C4.93968 13.9558 4.08213 13.3328 4.22225 12.5159L4.57743 10.445C4.63309 10.1205 4.52543 9.78933 4.28955 9.55959L2.78369 8.09288C2.19009 7.51472 2.51688 6.50688 3.33679 6.38704L5.42004 6.08254C5.74539 6.03498 6.02658 5.83052 6.17212 5.53568L7.10297 3.64988Z" fill="url(#paint0_linear_641_5613)"/>
  </g>
  <defs>
    <linearGradient id="paint0_linear_641_5613" x1="14.6663" y1="8.84523" x2="1.33301" y2="8.84523" gradientUnits="userSpaceOnUse">
      <stop stop-color="#EF6498"/>
      <stop offset="1" stop-color="#542D91"/>
    </linearGradient>
  </defs>
</svg>