<svg width="25" height="25" viewBox="0 0 25 25" fill="none" xmlns="http://www.w3.org/2000/svg">
<path d="M23.2207 3.21477C22.2631 3.89025 21.2028 4.40688 20.0807 4.74477C19.4784 4.05228 18.678 3.56146 17.7877 3.33869C16.8974 3.11593 15.9602 3.17196 15.1028 3.49922C14.2454 3.82648 13.5091 4.40917 12.9937 5.16848C12.4782 5.9278 12.2084 6.8271 12.2207 7.74477V8.74477C10.4633 8.79034 8.72198 8.40058 7.15171 7.61021C5.58145 6.81985 4.23102 5.6534 3.2207 4.21477C3.2207 4.21477 -0.779297 13.2148 8.2207 17.2148C6.16123 18.6127 3.70786 19.3137 1.2207 19.2148C10.2207 24.2148 21.2207 19.2148 21.2207 7.71477C21.2198 7.43622 21.193 7.15836 21.1407 6.88477C22.1613 5.87826 22.8815 4.60748 23.2207 3.21477Z" fill="url(#paint0_linear_26_14392)"/>
<defs>
<linearGradient id="paint0_linear_26_14392" x1="23.2207" y1="13.1275" x2="1.2207" y2="13.1275" gradientUnits="userSpaceOnUse">
<stop stop-color="#EF6498"/>
<stop offset="1" stop-color="#542D91"/>
</linearGradient>
</defs>
</svg>
