<svg width="24" height="25" viewBox="0 0 24 25" fill="none" xmlns="http://www.w3.org/2000/svg">
<path d="M23 3.71489C22.0424 4.39037 20.9821 4.907 19.86 5.24489C19.2577 4.5524 18.4573 4.06158 17.567 3.83882C16.6767 3.61605 15.7395 3.67209 14.8821 3.99934C14.0247 4.3266 13.2884 4.90929 12.773 5.66861C12.2575 6.42792 11.9877 7.32723 12 8.24489V9.24489C10.2426 9.29046 8.50127 8.9007 6.93101 8.11034C5.36074 7.31997 4.01032 6.15353 3 4.71489C3 4.71489 -1 13.7149 8 17.7149C5.94053 19.1129 3.48716 19.8138 1 19.7149C10 24.7149 21 19.7149 21 8.21489C20.9991 7.93634 20.9723 7.65848 20.92 7.38489C21.9406 6.37838 22.6608 5.1076 23 3.71489Z" fill="url(#paint0_linear_26_15898)"/>
<defs>
<linearGradient id="paint0_linear_26_15898" x1="23" y1="13.6276" x2="1" y2="13.6276" gradientUnits="userSpaceOnUse">
<stop stop-color="#EF6498"/>
<stop offset="1" stop-color="#542D91"/>
</linearGradient>
</defs>
</svg>
