<svg width="6" height="7" viewBox="0 0 6 7" fill="none" xmlns="http://www.w3.org/2000/svg">
<path d="M3.88223 1.06059C3.67229 0.300784 2.74253 0.300781 2.74253 0.300781C1.99273 0.300781 1.49786 1.17306 1.49786 2.47522C1.49786 3.28251 1.80277 4.28724 2.72253 4.30724C2.76002 4.30724 3.36737 4.29724 3.88223 3.83236V1.06059ZM5.61928 4.46969C5.01193 4.46969 4.61204 4.11729 4.45209 3.88985C4.45209 5.14203 4.31962 6.33921 2.68505 6.33921H2.66505C2.53259 6.33921 1.83027 6.32921 1.45037 6.01679V5.54192C1.80278 5.96931 2.15268 6.07428 2.76002 6.07428C3.42485 6.07428 3.86224 5.62939 3.86224 5.04955V4.12979C3.86224 4.12979 3.45235 4.50969 2.60007 4.50969C1.36539 4.50969 0.853027 3.46496 0.853027 2.35525C0.853027 0.818147 1.7078 0.00836182 2.75252 0.00836182C3.53982 0.00836182 4.45209 0.293283 4.45209 1.25303V3.24752C4.57455 3.45496 4.98445 3.90234 5.46682 3.90234C5.67426 3.90234 5.98918 3.89235 5.98918 3.89235V4.4722H5.61928V4.46969Z" fill="#6E4091"/>
</svg>
