<svg width="4" height="7" viewBox="0 0 4 7" fill="none" xmlns="http://www.w3.org/2000/svg">
<path d="M1.35636 1.49422H1.80246V5.16827H1.35636V1.49422ZM1.95179 1.14556H1.07471L1.1749 0.959986H1.36959C1.28264 0.881256 1.23917 0.77441 1.23917 0.661939C1.23917 0.448245 1.39039 0.227051 1.69094 0.227051C1.81947 0.227051 1.95746 0.277666 1.95746 0.277666V0.526974C1.95746 0.526974 1.89319 0.384509 1.7571 0.384509C1.57752 0.384509 1.47734 0.519478 1.47734 0.669439C1.47734 0.8194 1.58508 0.969362 1.81569 0.969362C1.85917 0.969362 1.92344 0.96936 2.02362 0.926246L1.95179 1.14744V1.14556ZM2.41869 6.06615H0.766602V5.63127H2.29582C2.52643 5.63127 2.90637 5.53192 2.90637 5.0258V1.49422H3.35247V5.17576C3.35247 5.83746 2.8421 6.06615 2.41869 6.06615Z" fill="#6E4091"/>
</svg>
