<svg width="6" height="7" viewBox="0 0 6 7" fill="none" xmlns="http://www.w3.org/2000/svg">
<path d="M3.08206 1.06077C2.87212 0.300967 1.94236 0.300965 1.94236 0.300965C1.19256 0.300965 0.697685 1.17324 0.697685 2.4754C0.697685 3.28269 1.0026 4.28743 1.92236 4.30742C1.95985 4.30742 2.5672 4.29743 3.08206 3.83255V1.06077ZM4.8191 4.46988C4.21176 4.46988 3.81187 4.11748 3.65191 3.89003C3.65191 5.14221 3.51945 6.33939 1.88487 6.33939H1.86488C1.73242 6.33939 1.0301 6.32939 0.650196 6.01698V5.5421C1.0026 5.96949 1.35251 6.07446 1.95985 6.07446C2.62468 6.07446 3.06206 5.62958 3.06206 5.04973V4.12997C3.06206 4.12997 2.65217 4.50987 1.7999 4.50987C0.56522 4.50987 0.0528564 3.46514 0.0528564 2.35543C0.0528564 0.81833 0.907627 0.00854492 1.95235 0.00854492C2.73965 0.00854492 3.65191 0.293466 3.65191 1.25322V3.2477C3.77438 3.45515 4.18427 3.90253 4.66665 3.90253C4.87409 3.90253 5.18901 3.89253 5.18901 3.89253V4.47238H4.8191V4.46988Z" fill="#6E4091"/>
</svg>
