<svg width="5" height="7" viewBox="0 0 5 7" fill="none" xmlns="http://www.w3.org/2000/svg">
<path d="M3.63301 1.46641C3.40557 1.46641 3.22312 1.28645 3.22312 1.06901C3.22312 0.851565 3.40307 0.669119 3.63301 0.669119C3.86295 0.669119 4.03291 0.849066 4.03291 1.06901C4.03291 1.28895 3.86045 1.46641 3.63301 1.46641ZM2.22838 1.46641C2.00094 1.46641 1.82098 1.28646 1.82098 1.05902C1.82098 0.851571 2.00094 0.661621 2.22838 0.661621C2.45582 0.661621 2.62827 0.851571 2.62827 1.05902C2.62827 1.28646 2.44832 1.46641 2.22838 1.46641ZM2.87571 2.48364C2.32585 2.48364 1.49857 2.96852 1.49857 4.51561C1.49857 5.95774 2.30586 6.61506 2.87571 6.61506C3.44556 6.61506 4.28034 5.99773 4.28034 4.51561C4.28034 3.0335 3.42557 2.48364 2.87571 2.48364ZM2.9032 6.87C1.7635 6.87 0.83374 6.1002 0.83374 4.5631C0.83374 3.30093 1.7635 2.2662 2.9032 2.2662C4.0429 2.2662 4.97266 3.10098 4.97266 4.5631C4.97266 5.83527 4.0429 6.87 2.9032 6.87Z" fill="#6E4091"/>
</svg>
