<svg width="7" height="6" viewBox="0 0 7 6" fill="none" xmlns="http://www.w3.org/2000/svg">
<path d="M4.38924 2.98036C4.38924 1.49825 3.72442 1.04337 3.19205 1.04337C2.65969 1.04337 1.8724 1.51824 1.8724 3.00036C1.8724 3.07534 1.82491 5.00483 3.22955 5.00483C3.72442 5.00483 4.38924 4.41499 4.38924 2.98286M0.362793 4.18005H1.53998C1.25506 3.63019 1.24506 3.05035 1.24506 3.05035C1.24506 1.83566 2.12733 0.848419 3.21955 0.848419C4.31176 0.848419 5.21403 1.64571 5.21403 3.05035C5.21403 3.46774 5.11905 3.84764 4.9391 4.18005H6.19127V4.7599H4.50171C4.1793 5.04483 3.75191 5.21478 3.24954 5.21478C2.66969 5.21478 2.2623 5.02483 1.96737 4.7599H0.362793V4.18005Z" fill="#6E4091"/>
</svg>
