<svg width="5" height="7" viewBox="0 0 5 7" fill="none" xmlns="http://www.w3.org/2000/svg">
<path d="M3.63289 1.18126C3.40545 1.18126 3.223 1.0013 3.223 0.783852C3.223 0.566409 3.40295 0.383963 3.63289 0.383963C3.86283 0.383963 4.03279 0.56391 4.03279 0.783852C4.03279 1.00379 3.86033 1.18126 3.63289 1.18126ZM2.22826 1.18126C2.00081 1.18126 1.82086 1.0013 1.82086 0.77386C1.82086 0.566414 2.00081 0.376465 2.22826 0.376465C2.4557 0.376465 2.62815 0.566414 2.62815 0.77386C2.62815 1.0013 2.4482 1.18126 2.22826 1.18126ZM2.87559 2.19848C2.32573 2.19848 1.49845 2.68336 1.49845 4.23046C1.49845 5.67258 2.30574 6.32991 2.87559 6.32991C3.44544 6.32991 4.28022 5.71257 4.28022 4.23046C4.28022 2.74834 3.42544 2.19848 2.87559 2.19848ZM2.90308 6.58485C1.76338 6.58485 0.833618 5.81504 0.833618 4.27794C0.833618 3.01577 1.76338 1.98104 2.90308 1.98104C4.04278 1.98104 4.97254 2.81583 4.97254 4.27794C4.97254 5.55011 4.04278 6.58485 2.90308 6.58485Z" fill="#6E4091"/>
</svg>
