<svg width="6" height="7" viewBox="0 0 6 7" fill="none" xmlns="http://www.w3.org/2000/svg">
<path d="M3.88175 1.3458C3.6718 0.586001 2.74204 0.585999 2.74204 0.585999C1.99224 0.585999 1.49737 1.45827 1.49737 2.76044C1.49737 3.56773 1.80229 4.57246 2.72205 4.59246C2.75954 4.59246 3.36688 4.58246 3.88175 4.11758V1.3458ZM5.61879 4.75491C5.01145 4.75491 4.61155 4.40251 4.4516 4.17507C4.4516 5.42724 4.31913 6.62443 2.68456 6.62443H2.66457C2.5321 6.62443 1.82978 6.61443 1.44988 6.30201V5.82713C1.80229 6.25452 2.15219 6.3595 2.75953 6.3595C3.42436 6.3595 3.86175 5.91461 3.86175 5.33476V4.415C3.86175 4.415 3.45186 4.7949 2.59958 4.7949C1.3649 4.7949 0.852539 3.75018 0.852539 2.64046C0.852539 1.10336 1.70731 0.293579 2.75204 0.293579C3.53933 0.293579 4.4516 0.5785 4.4516 1.53825V3.53273C4.57406 3.74018 4.98396 4.18756 5.46633 4.18756C5.67378 4.18756 5.98869 4.17756 5.98869 4.17756V4.75741H5.61879V4.75491Z" fill="#6E4091"/>
</svg>
