<svg width="6" height="5" viewBox="0 0 6 5" fill="none" xmlns="http://www.w3.org/2000/svg">
<path d="M3.85856 4.75498H0.734375V4.17514H3.82107C4.36093 4.17514 5.02576 3.88022 5.02576 2.46558C5.02576 1.05095 4.35093 0.50859 3.82857 0.50859C3.3062 0.50859 2.5464 0.945981 2.5464 2.33312C2.5464 2.85548 2.87882 3.20539 2.91631 3.20539C2.91631 3.20539 2.78384 3.44282 2.47892 3.44282C1.91907 3.44282 1.86158 2.778 1.86158 2.51307C1.86158 1.29839 2.75385 0.301147 3.85606 0.301147C4.95828 0.301147 5.84055 1.13593 5.84055 2.54306C5.84055 3.74775 4.94828 4.75498 3.85606 4.75498" fill="#6E4091"/>
</svg>
