<svg width="7" height="5" viewBox="0 0 7 5" fill="none" xmlns="http://www.w3.org/2000/svg">
<path d="M4.58907 2.6953C4.58907 1.21319 3.92424 0.758303 3.39188 0.758303C2.85952 0.758303 2.07223 1.23318 2.07223 2.71529C2.07223 2.79027 2.02474 4.71977 3.42938 4.71977C3.92425 4.71977 4.58907 4.12992 4.58907 2.69779M0.562622 3.89498H1.73981C1.45489 3.34513 1.44489 2.76528 1.44489 2.76528C1.44489 1.5506 2.32716 0.563354 3.41938 0.563354C4.51159 0.563354 5.41386 1.36065 5.41386 2.76528C5.41386 3.18267 5.31888 3.56257 5.13893 3.89498H6.3911V4.47483H4.70154C4.37913 4.75976 3.95174 4.92972 3.44937 4.92972C2.86952 4.92972 2.46213 4.73977 2.1672 4.47483H0.562622V3.89498Z" fill="#6E4091"/>
</svg>
