<svg width="2" height="9" viewBox="0 0 2 9" fill="none" xmlns="http://www.w3.org/2000/svg">
<path d="M0.60458 2.37394H1.19443V8.46985H0.60458V2.37394ZM1.39187 1.90906H0.232178L0.364643 1.66163H0.622075C0.507105 1.55665 0.44962 1.41419 0.44962 1.26173C0.44962 0.976802 0.649567 0.681885 1.04696 0.681885C1.21692 0.681885 1.39937 0.749364 1.39937 0.749364V1.08177C1.39937 1.08177 1.31439 0.891829 1.13194 0.891829C0.894504 0.891829 0.762038 1.07178 0.762038 1.27173C0.762038 1.47168 0.904501 1.67162 1.20692 1.67162C1.26441 1.67162 1.34939 1.67162 1.48185 1.61414L1.38688 1.90906H1.39187Z" fill="#6E4091"/>
</svg>
