<svg width="2" height="9" viewBox="0 0 2 9" fill="none" xmlns="http://www.w3.org/2000/svg">
<path d="M0.404873 2.37379H0.994719V8.4697H0.404873V2.37379ZM1.19217 1.90891H0.0324707L0.164936 1.66147H0.422368C0.307398 1.5565 0.249913 1.41404 0.249913 1.26158C0.249913 0.97665 0.44986 0.681732 0.847257 0.681732C1.01721 0.681732 1.19967 0.749212 1.19967 0.749212V1.08162C1.19967 1.08162 1.11469 0.891677 0.932235 0.891677C0.694797 0.891677 0.562331 1.07163 0.562331 1.27157C0.562331 1.47152 0.704794 1.67147 1.00721 1.67147C1.0647 1.67147 1.14968 1.67147 1.28214 1.61398L1.18717 1.90891H1.19217Z" fill="#6E4091"/>
</svg>
