<svg width="5" height="9" viewBox="0 0 5 9" fill="none" xmlns="http://www.w3.org/2000/svg">
<path d="M1.5381 2.65904H2.12795V7.55777H1.5381V2.65904ZM2.32539 2.19416H1.1657L1.29816 1.94673H1.55559C1.44062 1.84176 1.38314 1.69929 1.38314 1.54933C1.38314 1.26441 1.58309 0.969482 1.98048 0.969482C2.15044 0.969482 2.33289 1.03697 2.33289 1.03697V1.36938C2.33289 1.36938 2.24791 1.17943 2.06796 1.17943C1.83052 1.17943 1.69806 1.35938 1.69806 1.55933C1.69806 1.75928 1.84052 1.95923 2.14544 1.95923C2.20293 1.95923 2.2879 1.95923 2.42037 1.90174L2.32539 2.19666V2.19416ZM2.94273 8.75495H0.758301V8.17511H2.78027C3.08519 8.17511 3.58756 8.04264 3.58756 7.36782V2.65904H4.17741V7.56776C4.17741 8.45003 3.50259 8.75495 2.94273 8.75495Z" fill="#6E4091"/>
</svg>
