<svg width="76" height="88" viewBox="0 0 76 88" fill="none" xmlns="http://www.w3.org/2000/svg">
<path fill-rule="evenodd" clip-rule="evenodd" d="M4.66167 81.1662C19.967 35.7679 61.3742 56.8642 75.8501 12.8456C75.8501 12.8456 66.9857 43.8261 48.2387 53.7245C60.4092 49.052 69.9211 42.7017 75.8313 29.4319C73.5945 61.7811 47.5536 88.3177 14.3652 87.9971C62.6706 79.2046 68.8541 50.0568 41.4015 58.6399C53.3479 79.8697 24.8874 89.4664 18.7117 70.4488C15.2785 72.3609 9.75652 80.0706 6.79408 87.7988C10.8128 71.786 14.6212 71.0711 16.7057 66.7198C11.8379 71.7618 10.4145 73.445 4.66214 81.1682L4.66167 81.1662ZM0.511549 72.1784C-0.475491 43.368 62.1175 28.8953 68.2444 0C65.5699 30.682 12.0819 50.6484 0.511549 72.1784ZM33.2536 61.6573C30.8216 62.7174 28.16 64.0353 25.4739 65.6515C27.1902 72.1472 37.4086 68.625 33.2536 61.6573Z" fill="url(#paint0_linear_82_4625)"/>
<defs>
<linearGradient id="paint0_linear_82_4625" x1="75.8501" y1="48.6636" x2="0.5" y2="48.6636" gradientUnits="userSpaceOnUse">
<stop stop-color="#EF6498"/>
<stop offset="1" stop-color="#542D91"/>
</linearGradient>
</defs>
</svg>
