<svg width="76" height="89" viewBox="0 0 76 89" fill="none" xmlns="http://www.w3.org/2000/svg">
<path fill-rule="evenodd" clip-rule="evenodd" d="M4.66167 81.881C19.967 36.4827 61.3742 57.579 75.8501 13.5604C75.8501 13.5604 66.9857 44.5409 48.2387 54.4393C60.4092 49.7669 69.9211 43.4166 75.8313 30.1467C73.5945 62.496 47.5536 89.0325 14.3652 88.712C62.6706 79.9194 68.8541 50.7716 41.4015 59.3547C53.3479 80.5846 24.8874 90.1812 18.7117 71.1636C15.2785 73.0757 9.75652 80.7854 6.79408 88.5137C10.8128 72.5009 14.6212 71.7859 16.7057 67.4346C11.8379 72.4767 10.4145 74.1598 4.66214 81.8831L4.66167 81.881ZM0.511549 72.8933C-0.475491 44.0829 62.1175 29.6101 68.2444 0.714844C65.5699 31.3968 12.0819 51.3633 0.511549 72.8933ZM33.2536 62.3722C30.8216 63.4322 28.16 64.7502 25.4739 66.3664C27.1902 72.862 37.4086 69.3398 33.2536 62.3722Z" fill="url(#paint0_linear_80_2412)"/>
<defs>
<linearGradient id="paint0_linear_80_2412" x1="75.8501" y1="49.3784" x2="0.5" y2="49.3784" gradientUnits="userSpaceOnUse">
<stop stop-color="#EF6498"/>
<stop offset="1" stop-color="#542D91"/>
</linearGradient>
</defs>
</svg>
