<svg width="5" height="7" viewBox="0 0 5 7" fill="none" xmlns="http://www.w3.org/2000/svg">
<path d="M3.83141 1.06057C3.62146 0.300771 2.6917 0.300769 2.6917 0.300769C1.9419 0.300769 1.44703 1.17304 1.44703 2.4752C1.44703 3.28249 1.75195 4.28973 2.67171 4.30722C2.7092 4.30722 3.31654 4.29723 3.83141 3.83235V1.06057ZM2.71919 6.10176C3.39402 6.10176 3.8389 5.62688 3.8389 5.11452V4.12727C3.8389 4.12727 3.41151 4.50718 2.55674 4.50718C1.32206 4.50718 0.809692 3.46245 0.809692 2.35274C0.809692 0.81564 1.66447 0.0183411 2.7092 0.0183411C3.48649 0.0183411 4.40876 0.283273 4.40876 1.25302V4.11977C4.40876 4.82209 4.38876 6.36919 2.64172 6.36919C2.58423 6.36919 1.86442 6.36919 1.40704 6.04678V5.57189C1.75944 5.98928 2.10935 6.10426 2.7167 6.10426" fill="#6E4091"/>
</svg>
