<svg width="6" height="8" viewBox="0 0 6 8" fill="none" xmlns="http://www.w3.org/2000/svg">
<path d="M5.84596 5.75485C4.5363 5.75485 4.32636 4.90008 4.18389 3.6754H2.9867C1.97197 3.6754 1.53458 4.35772 1.53458 5.13752C1.53458 6.17225 2.30438 7.36944 3.50907 7.36944C3.86147 7.36944 4.25887 7.26446 4.67627 7.02703L3.784 7.65436C1.80951 7.65436 0.822266 6.28722 0.822266 5.01505C0.822266 4.09279 1.35463 3.25801 2.41685 3.10555C1.847 2.76314 1.58957 2.39324 1.58957 2.05082C1.58957 1.45348 2.37686 0.901123 3.59405 0.901123C4.1739 0.901123 4.72375 1.10107 4.72375 1.11857V1.58345C4.72375 1.58345 4.41133 1.11857 3.81149 1.11857C2.90922 1.11857 2.2169 1.69842 2.2169 2.23078C2.2169 2.67566 2.69178 3.08555 3.90647 3.08555C4.1439 3.08555 4.47632 3.08556 4.9412 3.02807L4.68376 3.6729H4.49381C4.49381 4.40521 4.80623 5.17251 5.691 5.17251H5.88095V5.75236H5.84346L5.84596 5.75485Z" fill="#6E4091"/>
</svg>
