<svg width="4" height="7" viewBox="0 0 4 7" fill="none" xmlns="http://www.w3.org/2000/svg">
<path d="M3.03148 1.34594C2.82153 0.586141 1.89178 0.586139 1.89178 0.586139C1.14197 0.586139 0.647099 1.45841 0.647099 2.76057C0.647099 3.56786 0.95202 4.5751 1.87178 4.59259C1.90927 4.59259 2.51661 4.5826 3.03148 4.11772V1.34594ZM1.91927 6.38713C2.59409 6.38713 3.03898 5.91225 3.03898 5.39989V4.41264C3.03898 4.41264 2.61159 4.79255 1.75681 4.79255C0.522133 4.79255 0.00976562 3.74782 0.00976562 2.63811C0.00976562 1.10101 0.864543 0.303711 1.90927 0.303711C2.68657 0.303711 3.60883 0.568642 3.60883 1.53839V4.40514C3.60883 5.10746 3.58883 6.65456 1.84179 6.65456C1.7843 6.65456 1.06449 6.65456 0.60711 6.33215V5.85726C0.959518 6.27465 1.30943 6.38963 1.91677 6.38963" fill="#6E4091"/>
</svg>
