<svg width="6" height="8" viewBox="0 0 6 8" fill="none" xmlns="http://www.w3.org/2000/svg">
<path d="M5.84559 5.4697C4.53593 5.4697 4.32599 4.61492 4.18353 3.39024H2.98634C1.9716 3.39024 1.53422 4.07257 1.53422 4.85236C1.53422 5.88709 2.30401 7.08428 3.5087 7.08428C3.86111 7.08428 4.25851 6.97931 4.6759 6.74187L3.78363 7.3692C1.80914 7.3692 0.821899 6.00206 0.821899 4.72989C0.821899 3.80763 1.35426 2.97285 2.41649 2.82039C1.84663 2.47798 1.5892 2.10808 1.5892 1.76567C1.5892 1.16832 2.3765 0.615967 3.59368 0.615967C4.17353 0.615967 4.72338 0.815913 4.72338 0.833409V1.29829C4.72338 1.29829 4.41097 0.833409 3.81112 0.833409C2.90886 0.833409 2.21654 1.41326 2.21654 1.94562C2.21654 2.39051 2.69142 2.80039 3.9061 2.80039C4.14354 2.80039 4.47595 2.8004 4.94083 2.74291L4.6834 3.38774H4.49344C4.49344 4.12005 4.80587 4.88735 5.69064 4.88735H5.88058V5.4672H5.8431L5.84559 5.4697Z" fill="#6E4091"/>
</svg>
