<svg width="5" height="6" viewBox="0 0 5 6" fill="none" xmlns="http://www.w3.org/2000/svg">
<path d="M2.99111 1.09969C2.8191 1.09969 2.68111 0.964717 2.68111 0.801634C2.68111 0.638552 2.81721 0.501717 2.99111 0.501717C3.16501 0.501717 3.29355 0.636677 3.29355 0.801634C3.29355 0.966592 3.16312 1.09969 2.99111 1.09969ZM1.92879 1.09969C1.75677 1.09969 1.62068 0.964721 1.62068 0.794141C1.62068 0.638556 1.75677 0.496094 1.92879 0.496094C2.1008 0.496094 2.23123 0.638556 2.23123 0.794141C2.23123 0.964721 2.09513 1.09969 1.92879 1.09969ZM2.41836 1.86261C2.00251 1.86261 1.37683 2.22627 1.37683 3.38659C1.37683 4.46818 1.98739 4.96118 2.41836 4.96118C2.84934 4.96118 3.48069 4.49817 3.48069 3.38659C3.48069 2.275 2.83422 1.86261 2.41836 1.86261ZM2.43915 5.15238C1.5772 5.15238 0.874023 4.57503 0.874023 3.4222C0.874023 2.47558 1.5772 1.69953 2.43915 1.69953C3.30111 1.69953 4.00429 2.32562 4.00429 3.4222C4.00429 4.37633 3.30111 5.15238 2.43915 5.15238Z" fill="#6E4091"/>
</svg>
