<svg width="6" height="7" viewBox="0 0 6 7" fill="none" xmlns="http://www.w3.org/2000/svg">
<path d="M3.08194 1.3458C2.872 0.586001 1.94224 0.585999 1.94224 0.585999C1.19244 0.585999 0.697562 1.45827 0.697562 2.76044C0.697562 3.56773 1.00248 4.57246 1.92224 4.59246C1.95973 4.59246 2.56708 4.58246 3.08194 4.11758V1.3458ZM4.81898 4.75491C4.21164 4.75491 3.81175 4.40251 3.65179 4.17507C3.65179 5.42724 3.51932 6.62443 1.88475 6.62443H1.86476C1.7323 6.62443 1.02997 6.61443 0.650074 6.30201V5.82713C1.00248 6.25452 1.35239 6.3595 1.95973 6.3595C2.62456 6.3595 3.06194 5.91461 3.06194 5.33476V4.415C3.06194 4.415 2.65205 4.7949 1.79978 4.7949C0.565098 4.7949 0.0527344 3.75018 0.0527344 2.64046C0.0527344 1.10336 0.907505 0.293579 1.95223 0.293579C2.73953 0.293579 3.65179 0.5785 3.65179 1.53825V3.53273C3.77426 3.74018 4.18415 4.18756 4.66653 4.18756C4.87397 4.18756 5.18889 4.17756 5.18889 4.17756V4.75741H4.81898V4.75491Z" fill="#6E4091"/>
</svg>
