<svg width="6" height="7" viewBox="0 0 6 7" fill="none" xmlns="http://www.w3.org/2000/svg">
<path d="M3.08194 1.34593C2.872 0.586123 1.94224 0.586121 1.94224 0.586121C1.19244 0.586121 0.697562 1.4584 0.697562 2.76056C0.697562 3.56785 1.00248 4.57258 1.92224 4.59258C1.95973 4.59258 2.56708 4.58258 3.08194 4.1177V1.34593ZM4.81898 4.75503C4.21164 4.75503 3.81175 4.40263 3.65179 4.17519C3.65179 5.42736 3.51932 6.62455 1.88475 6.62455H1.86476C1.7323 6.62455 1.02997 6.61455 0.650074 6.30213V5.82726C1.00248 6.25465 1.35239 6.35962 1.95973 6.35962C2.62456 6.35962 3.06194 5.91473 3.06194 5.33488V4.41513C3.06194 4.41513 2.65205 4.79502 1.79978 4.79502C0.565098 4.79502 0.0527344 3.7503 0.0527344 2.64059C0.0527344 1.10349 0.907505 0.293701 1.95223 0.293701C2.73953 0.293701 3.65179 0.578622 3.65179 1.53837V3.53286C3.77426 3.7403 4.18415 4.18768 4.66653 4.18768C4.87397 4.18768 5.18889 4.17768 5.18889 4.17768V4.75754H4.81898V4.75503Z" fill="#6E4091"/>
</svg>
