<svg width="2" height="9" viewBox="0 0 2 9" fill="none" xmlns="http://www.w3.org/2000/svg">
<path d="M0.404629 2.65901H0.994475V8.75491H0.404629V2.65901ZM1.19192 2.19412H0.0322266L0.164692 1.94669H0.422124C0.307154 1.84172 0.249669 1.69925 0.249669 1.54679C0.249669 1.26187 0.449616 0.966949 0.847013 0.966949C1.01697 0.966949 1.19942 1.03443 1.19942 1.03443V1.36684C1.19942 1.36684 1.11444 1.17689 0.931991 1.17689C0.694553 1.17689 0.562087 1.35684 0.562087 1.55679C0.562087 1.75674 0.70455 1.95669 1.00697 1.95669C1.06446 1.95669 1.14943 1.95669 1.2819 1.8992L1.18692 2.19412H1.19192Z" fill="#6E4091"/>
</svg>
