<svg width="6" height="5" viewBox="0 0 6 5" fill="none" xmlns="http://www.w3.org/2000/svg">
<path d="M3.65848 4.4697H0.534302V3.88986H3.621C4.16086 3.88986 4.82568 3.59494 4.82568 2.18031C4.82568 0.765675 4.15086 0.223312 3.62849 0.223312C3.10613 0.223312 2.34633 0.660702 2.34633 2.04784C2.34633 2.57021 2.67874 2.92011 2.71623 2.92011C2.71623 2.92011 2.58377 3.15755 2.27885 3.15755C1.71899 3.15755 1.66151 2.49273 1.66151 2.22779C1.66151 1.01311 2.55378 0.0158691 3.65599 0.0158691C4.7582 0.0158691 5.64047 0.850652 5.64047 2.25779C5.64047 3.46247 4.74821 4.4697 3.65599 4.4697" fill="#6E4091"/>
</svg>
