<svg width="6" height="7" viewBox="0 0 6 7" fill="none" xmlns="http://www.w3.org/2000/svg">
<path d="M3.08243 1.34593C2.87248 0.586123 1.94273 0.586121 1.94273 0.586121C1.19292 0.586121 0.698051 1.4584 0.698051 2.76056C0.698051 3.56785 1.00297 4.57258 1.92273 4.59258C1.96022 4.59258 2.56756 4.58258 3.08243 4.1177V1.34593ZM4.81947 4.75503C4.21213 4.75503 3.81224 4.40263 3.65228 4.17519C3.65228 5.42736 3.51981 6.62455 1.88524 6.62455H1.86525C1.73278 6.62455 1.03046 6.61455 0.650563 6.30213V5.82726C1.00297 6.25465 1.35288 6.35962 1.96022 6.35962C2.62504 6.35962 3.06243 5.91473 3.06243 5.33488V4.41513C3.06243 4.41513 2.65254 4.79502 1.80026 4.79502C0.565586 4.79502 0.0532227 3.7503 0.0532227 2.64059C0.0532227 1.10349 0.907993 0.293701 1.95272 0.293701C2.74001 0.293701 3.65228 0.578622 3.65228 1.53837V3.53286C3.77475 3.7403 4.18464 4.18768 4.66701 4.18768C4.87446 4.18768 5.18938 4.17768 5.18938 4.17768V4.75754H4.81947V4.75503Z" fill="#6E4091"/>
</svg>
