<svg width="5" height="6" viewBox="0 0 5 6" fill="none" xmlns="http://www.w3.org/2000/svg">
<path d="M4.32823 4.06608C3.33773 4.06608 3.17895 3.425 3.07121 2.50649H2.16577C1.39833 2.50649 1.06753 3.01823 1.06753 3.60308C1.06753 4.37913 1.64973 5.27702 2.56084 5.27702C2.82736 5.27702 3.12791 5.19829 3.44359 5.02021L2.76876 5.49071C1.27546 5.49071 0.528809 4.46535 0.528809 3.51122C0.528809 2.81953 0.931434 2.19345 1.73479 2.0791C1.30382 1.82229 1.10912 1.54487 1.10912 1.28806C1.10912 0.840049 1.70455 0.425781 2.62511 0.425781C3.06365 0.425781 3.4795 0.575741 3.4795 0.588863V0.937525C3.4795 0.937525 3.24322 0.588863 2.78956 0.588863C2.10717 0.588863 1.58357 1.02375 1.58357 1.42302C1.58357 1.75669 1.94272 2.0641 2.86139 2.0641C3.04096 2.0641 3.29237 2.06411 3.64395 2.02099L3.44926 2.50461H3.3056C3.3056 3.05384 3.54188 3.62932 4.21103 3.62932H4.35469V4.06421H4.32634L4.32823 4.06608Z" fill="#6E4091"/>
</svg>
