<svg width="5" height="7" viewBox="0 0 5 7" fill="none" xmlns="http://www.w3.org/2000/svg">
<path d="M3.43355 1.46629C3.20611 1.46629 3.02366 1.28633 3.02366 1.06889C3.02366 0.851443 3.20361 0.668997 3.43355 0.668997C3.66349 0.668997 3.83345 0.848944 3.83345 1.06889C3.83345 1.28883 3.66099 1.46629 3.43355 1.46629ZM2.02891 1.46629C1.80147 1.46629 1.62152 1.28634 1.62152 1.05889C1.62152 0.851449 1.80147 0.661499 2.02891 0.661499C2.25636 0.661499 2.42881 0.851449 2.42881 1.05889C2.42881 1.28634 2.24886 1.46629 2.02891 1.46629ZM2.67625 2.48352C2.12639 2.48352 1.29911 2.96839 1.29911 4.51549C1.29911 5.95761 2.1064 6.61494 2.67625 6.61494C3.2461 6.61494 4.08088 5.9976 4.08088 4.51549C4.08088 3.03338 3.2261 2.48352 2.67625 2.48352ZM2.70374 6.86988C1.56403 6.86988 0.634277 6.10008 0.634277 4.56298C0.634277 3.30081 1.56403 2.26608 2.70374 2.26608C3.84344 2.26608 4.7732 3.10086 4.7732 4.56298C4.7732 5.83515 3.84344 6.86988 2.70374 6.86988Z" fill="#6E4091"/>
</svg>
