<svg width="6" height="8" viewBox="0 0 6 8" fill="none" xmlns="http://www.w3.org/2000/svg">
<path d="M5.84547 5.75485C4.53581 5.75485 4.32587 4.90008 4.18341 3.6754H2.98622C1.97148 3.6754 1.53409 4.35772 1.53409 5.13752C1.53409 6.17225 2.30389 7.36944 3.50858 7.36944C3.86099 7.36944 4.25839 7.26446 4.67578 7.02703L3.78351 7.65436C1.80902 7.65436 0.821777 6.28722 0.821777 5.01505C0.821777 4.09279 1.35414 3.25801 2.41636 3.10555C1.84651 2.76314 1.58908 2.39324 1.58908 2.05082C1.58908 1.45348 2.37638 0.901123 3.59356 0.901123C4.17341 0.901123 4.72326 1.10107 4.72326 1.11857V1.58345C4.72326 1.58345 4.41085 1.11857 3.811 1.11857C2.90874 1.11857 2.21641 1.69842 2.21641 2.23078C2.21641 2.67566 2.69129 3.08555 3.90598 3.08555C4.14342 3.08555 4.47583 3.08556 4.94071 3.02807L4.68328 3.6729H4.49332C4.49332 4.40521 4.80574 5.17251 5.69051 5.17251H5.88046V5.75236H5.84297L5.84547 5.75485Z" fill="#6E4091"/>
</svg>
