<svg width="7" height="5" viewBox="0 0 7 5" fill="none" xmlns="http://www.w3.org/2000/svg">
<path d="M4.38924 2.69515C4.38924 1.21303 3.72442 0.758151 3.19205 0.758151C2.65969 0.758151 1.8724 1.23302 1.8724 2.71514C1.8724 2.79012 1.82491 4.71961 3.22955 4.71961C3.72442 4.71961 4.38924 4.12977 4.38924 2.69764M0.362793 3.89483H1.53998C1.25506 3.34497 1.24506 2.76513 1.24506 2.76513C1.24506 1.55044 2.12733 0.563202 3.21955 0.563202C4.31176 0.563202 5.21403 1.36049 5.21403 2.76513C5.21403 3.18252 5.11905 3.56242 4.9391 3.89483H6.19127V4.47468H4.50171C4.1793 4.75961 3.75191 4.92957 3.24954 4.92957C2.66969 4.92957 2.2623 4.73961 1.96737 4.47468H0.362793V3.89483Z" fill="#6E4091"/>
</svg>
