<svg width="4" height="7" viewBox="0 0 4 7" fill="none" xmlns="http://www.w3.org/2000/svg">
<path d="M2.4787 1.46629C2.26125 1.46629 2.0713 1.28633 2.0713 1.05889C2.0713 0.848949 2.26125 0.658997 2.4787 0.658997C2.69614 0.658997 2.88609 0.848949 2.88609 1.05889C2.88609 1.28633 2.70614 1.46629 2.4787 1.46629ZM1.88135 2.42604C1.51145 2.42604 1.13904 2.73846 1.13904 3.22333C1.13904 4.30555 2.49619 4.54298 3.04855 5.18032C3.11603 4.99037 3.13353 4.80042 3.13353 4.57298C3.13353 3.35829 2.58367 2.42853 1.88135 2.42853M1.19903 1.46878C0.981586 1.46878 0.799132 1.28883 0.799132 1.06139C0.799132 0.851443 0.979087 0.661498 1.19903 0.661498C1.43647 0.661498 1.60643 0.851443 1.60643 1.06139C1.60643 1.28883 1.43647 1.46878 1.19903 1.46878ZM1.81637 6.75741H0.0593262V6.17756H1.89135C2.51869 6.17756 2.77362 5.80766 2.96357 5.37027C2.41371 4.76293 0.534201 4.42052 0.534201 3.25332C0.534201 2.68347 1.08406 2.2086 1.90135 2.2086C3.11853 2.2086 3.76336 3.34829 3.76336 4.54548C3.76336 5.74267 2.97607 6.75741 1.81637 6.75741Z" fill="#6E4091"/>
</svg>
