<svg width="6" height="8" viewBox="0 0 6 8" fill="none" xmlns="http://www.w3.org/2000/svg">
<path d="M5.64576 5.4697C4.33611 5.4697 4.12616 4.61492 3.9837 3.39024H2.78651C1.77177 3.39024 1.33439 4.07257 1.33439 4.85236C1.33439 5.88709 2.10418 7.08428 3.30887 7.08428C3.66128 7.08428 4.05868 6.97931 4.47607 6.74187L3.5838 7.3692C1.60931 7.3692 0.62207 6.00206 0.62207 4.72989C0.62207 3.80763 1.15443 2.97285 2.21666 2.82039C1.6468 2.47798 1.38937 2.10808 1.38937 1.76567C1.38937 1.16832 2.17667 0.615967 3.39385 0.615967C3.9737 0.615967 4.52356 0.815913 4.52356 0.833409V1.29829C4.52356 1.29829 4.21114 0.833409 3.61129 0.833409C2.70903 0.833409 2.01671 1.41326 2.01671 1.94562C2.01671 2.39051 2.49159 2.80039 3.70627 2.80039C3.94371 2.80039 4.27612 2.8004 4.741 2.74291L4.48357 3.38774H4.29362C4.29362 4.12005 4.60604 4.88735 5.49081 4.88735H5.68076V5.4672H5.64327L5.64576 5.4697Z" fill="#6E4091"/>
</svg>
