<svg width="6" height="7" viewBox="0 0 6 7" fill="none" xmlns="http://www.w3.org/2000/svg">
<path d="M3.88223 1.3458C3.67229 0.586001 2.74253 0.585999 2.74253 0.585999C1.99273 0.585999 1.49786 1.45827 1.49786 2.76044C1.49786 3.56773 1.80277 4.57246 2.72253 4.59246C2.76002 4.59246 3.36737 4.58246 3.88223 4.11758V1.3458ZM5.61928 4.75491C5.01193 4.75491 4.61204 4.40251 4.45209 4.17507C4.45209 5.42724 4.31962 6.62443 2.68505 6.62443H2.66505C2.53259 6.62443 1.83027 6.61443 1.45037 6.30201V5.82713C1.80278 6.25452 2.15268 6.3595 2.76002 6.3595C3.42485 6.3595 3.86224 5.91461 3.86224 5.33476V4.415C3.86224 4.415 3.45235 4.7949 2.60007 4.7949C1.36539 4.7949 0.853027 3.75018 0.853027 2.64046C0.853027 1.10336 1.7078 0.293579 2.75252 0.293579C3.53982 0.293579 4.45209 0.5785 4.45209 1.53825V3.53273C4.57455 3.74018 4.98445 4.18756 5.46682 4.18756C5.67426 4.18756 5.98918 4.17756 5.98918 4.17756V4.75741H5.61928V4.75491Z" fill="#6E4091"/>
</svg>
