<svg width="4" height="7" viewBox="0 0 4 7" fill="none" xmlns="http://www.w3.org/2000/svg">
<path d="M3.03123 1.06066C2.82129 0.300862 1.89153 0.30086 1.89153 0.30086C1.14173 0.30086 0.646855 1.17314 0.646855 2.4753C0.646855 3.28259 0.951776 4.28982 1.87154 4.30732C1.90903 4.30732 2.51637 4.29732 3.03123 3.83244V1.06066ZM1.91902 6.10185C2.59385 6.10185 3.03873 5.62697 3.03873 5.11461V4.12736C3.03873 4.12736 2.61134 4.50727 1.75657 4.50727C0.521888 4.50727 0.00952148 3.46254 0.00952148 2.35283C0.00952148 0.815731 0.864299 0.0184326 1.90903 0.0184326C2.68632 0.0184326 3.60858 0.283364 3.60858 1.25311V4.11986C3.60858 4.82218 3.58859 6.36928 1.84154 6.36928C1.78406 6.36928 1.06425 6.36928 0.606866 6.04687V5.57199C0.959274 5.98938 1.30918 6.10435 1.91653 6.10435" fill="#6E4091"/>
</svg>
