<svg width="5" height="9" viewBox="0 0 5 9" fill="none" xmlns="http://www.w3.org/2000/svg">
<path d="M1.5381 2.37389H2.12795V7.27261H1.5381V2.37389ZM2.32539 1.90901H1.1657L1.29816 1.66157H1.55559C1.44062 1.5566 1.38314 1.41414 1.38314 1.26418C1.38314 0.979251 1.58309 0.684326 1.98048 0.684326C2.15044 0.684326 2.33289 0.751813 2.33289 0.751813V1.08422C2.33289 1.08422 2.24791 0.894271 2.06796 0.894271C1.83052 0.894271 1.69806 1.07423 1.69806 1.27418C1.69806 1.47412 1.84052 1.67407 2.14544 1.67407C2.20293 1.67407 2.2879 1.67407 2.42037 1.61659L2.32539 1.91151V1.90901ZM2.94273 8.4698H0.758301V7.88995H2.78027C3.08519 7.88995 3.58756 7.75748 3.58756 7.08266V2.37389H4.17741V7.2826C4.17741 8.16487 3.50259 8.4698 2.94273 8.4698Z" fill="#6E4091"/>
</svg>
