<svg width="4" height="7" viewBox="0 0 4 7" fill="none" xmlns="http://www.w3.org/2000/svg">
<path d="M3.03123 1.34594C2.82129 0.586141 1.89153 0.586139 1.89153 0.586139C1.14173 0.586139 0.646855 1.45841 0.646855 2.76057C0.646855 3.56786 0.951776 4.5751 1.87154 4.59259C1.90903 4.59259 2.51637 4.5826 3.03123 4.11772V1.34594ZM1.91902 6.38713C2.59385 6.38713 3.03873 5.91225 3.03873 5.39989V4.41264C3.03873 4.41264 2.61134 4.79255 1.75657 4.79255C0.521888 4.79255 0.00952148 3.74782 0.00952148 2.63811C0.00952148 1.10101 0.864299 0.303711 1.90903 0.303711C2.68632 0.303711 3.60858 0.568642 3.60858 1.53839V4.40514C3.60858 5.10746 3.58859 6.65456 1.84154 6.65456C1.78406 6.65456 1.06425 6.65456 0.606866 6.33215V5.85726C0.959274 6.27465 1.30918 6.38963 1.91653 6.38963" fill="#6E4091"/>
</svg>
