<svg width="7" height="6" viewBox="0 0 7 6" fill="none" xmlns="http://www.w3.org/2000/svg">
<path d="M4.38876 2.98036C4.38876 1.49825 3.72393 1.04337 3.19157 1.04337C2.6592 1.04337 1.87191 1.51824 1.87191 3.00036C1.87191 3.07534 1.82442 5.00483 3.22906 5.00483C3.72393 5.00483 4.38876 4.41499 4.38876 2.98286M0.362305 4.18005H1.5395C1.25457 3.63019 1.24457 3.05035 1.24457 3.05035C1.24457 1.83566 2.12684 0.848419 3.21906 0.848419C4.31127 0.848419 5.21354 1.64571 5.21354 3.05035C5.21354 3.46774 5.11857 3.84764 4.93861 4.18005H6.19078V4.7599H4.50123C4.17881 5.04483 3.75142 5.21478 3.24905 5.21478C2.6692 5.21478 2.26181 5.02483 1.96689 4.7599H0.362305V4.18005Z" fill="#6E4091"/>
</svg>
