<svg width="2" height="9" viewBox="0 0 2 9" fill="none" xmlns="http://www.w3.org/2000/svg">
<path d="M0.405117 2.65901H0.994963V8.75491H0.405117V2.65901ZM1.19241 2.19412H0.0327148L0.16518 1.94669H0.422612C0.307642 1.84172 0.250157 1.69925 0.250157 1.54679C0.250157 1.26187 0.450105 0.966949 0.847501 0.966949C1.01746 0.966949 1.19991 1.03443 1.19991 1.03443V1.36684C1.19991 1.36684 1.11493 1.17689 0.93248 1.17689C0.695042 1.17689 0.562575 1.35684 0.562575 1.55679C0.562575 1.75674 0.705038 1.95669 1.00746 1.95669C1.06494 1.95669 1.14992 1.95669 1.28239 1.8992L1.18741 2.19412H1.19241Z" fill="#6E4091"/>
</svg>
