<svg width="4" height="6" viewBox="0 0 4 6" fill="none" xmlns="http://www.w3.org/2000/svg">
<path d="M2.33933 1.50938C2.18055 0.939531 1.47737 0.939529 1.47737 0.939529C0.910297 0.939529 0.536024 1.59374 0.536024 2.57036C0.536024 3.17582 0.766634 3.92937 1.46225 3.94437C1.4906 3.94437 1.94994 3.93687 2.33933 3.58821V1.50938ZM3.65306 4.06621C3.19372 4.06621 2.89129 3.80191 2.77031 3.63133C2.77031 4.57046 2.67012 5.46835 1.4339 5.46835H1.41878C1.31859 5.46835 0.787427 5.46085 0.500108 5.22654V4.87038C0.766635 5.19092 1.03127 5.26965 1.4906 5.26965C1.99341 5.26965 2.32421 4.93599 2.32421 4.5011V3.81128C2.32421 3.81128 2.01421 4.09621 1.36963 4.09621C0.435841 4.09621 0.0483398 3.31266 0.0483398 2.48038C0.0483398 1.32755 0.694803 0.720215 1.48493 0.720215C2.08036 0.720215 2.77031 0.933905 2.77031 1.65372V3.14958C2.86293 3.30516 3.17293 3.6407 3.53775 3.6407C3.69464 3.6407 3.93282 3.6332 3.93282 3.6332V4.06809H3.65306V4.06621Z" fill="#6E4091"/>
</svg>
