<svg width="8" height="7" viewBox="0 0 8 7" fill="none" xmlns="http://www.w3.org/2000/svg">
<path d="M7.07873 0.12933C7.07373 0.451746 7.07624 0.779161 7.00375 1.08908C6.89628 1.56396 6.78381 2.06133 6.54637 2.47872C6.10399 3.25352 5.23671 3.22103 4.82432 2.43873C4.62187 2.05383 4.5194 1.61894 4.35194 1.21405C4.30696 1.10658 4.18449 1.0291 4.09701 0.93662C4.01203 1.0291 3.88207 1.10658 3.84957 1.21155C3.66212 1.81389 3.54465 2.44373 3.30971 3.02608C3.12476 3.48346 2.86733 3.94834 2.52992 4.30324C2.00255 4.8556 1.40021 4.68315 1.19527 3.94334C1.0678 3.48346 1.0653 2.99109 0.980322 2.51871C0.957828 2.39624 0.837858 2.28877 0.760378 2.1738C0.645408 2.26128 0.467955 2.32626 0.425466 2.43873C0.293 2.80113 0.198024 3.17604 0.115545 3.55344C-0.0394145 4.25826 -0.0694071 4.96057 0.220517 5.64289C0.455456 6.19275 0.782873 6.65763 1.41021 6.82009C2.34247 7.06253 3.51466 6.45018 3.98204 5.47294C4.16949 5.08054 4.19198 5.07304 4.57938 5.248C5.62911 5.72787 6.68634 5.41795 7.30617 4.44821C7.79855 3.67841 7.9635 2.82613 7.98849 1.91886C7.90602 1.32152 7.82354 0.724176 7.73856 0.126831H7.07623L7.07873 0.12933Z" fill="#312B43"/>
</svg>
