<svg width="2" height="7" viewBox="0 0 2 7" fill="none" xmlns="http://www.w3.org/2000/svg">
<path d="M1.23868 1.49414H1.68478V6.06607H1.23868V1.49414ZM1.83411 1.14548H0.957031L1.05721 0.959903H1.25191C1.16496 0.881173 1.12148 0.774325 1.12148 0.65998C1.12148 0.446286 1.2727 0.225098 1.57325 0.225098C1.70179 0.225098 1.83978 0.275707 1.83978 0.275707V0.525015C1.83978 0.525015 1.77551 0.382556 1.63752 0.382556C1.45795 0.382556 1.35776 0.517519 1.35776 0.66748C1.35776 0.817441 1.46551 0.967403 1.69423 0.967403C1.73771 0.967403 1.80198 0.967401 1.90216 0.924287L1.83033 1.14548H1.83411Z" fill="#6E4091"/>
</svg>
