<svg width="4" height="7" viewBox="0 0 4 7" fill="none" xmlns="http://www.w3.org/2000/svg">
<path d="M2.4787 1.18107C2.26125 1.18107 2.0713 1.00112 2.0713 0.773677C2.0713 0.563731 2.26125 0.373779 2.4787 0.373779C2.69614 0.373779 2.88609 0.563731 2.88609 0.773677C2.88609 1.00112 2.70614 1.18107 2.4787 1.18107ZM1.88135 2.14082C1.51145 2.14082 1.13904 2.45324 1.13904 2.93811C1.13904 4.02033 2.49619 4.25777 3.04855 4.8951C3.11603 4.70515 3.13353 4.5152 3.13353 4.28776C3.13353 3.07308 2.58367 2.14332 1.88135 2.14332M1.19903 1.18357C0.981586 1.18357 0.799132 1.00361 0.799132 0.776171C0.799132 0.566226 0.979087 0.376281 1.19903 0.376281C1.43647 0.376281 1.60643 0.566226 1.60643 0.776171C1.60643 1.00361 1.43647 1.18357 1.19903 1.18357ZM1.81637 6.47219H0.0593262V5.89234H1.89135C2.51869 5.89234 2.77362 5.52244 2.96357 5.08505C2.41371 4.47771 0.534201 4.1353 0.534201 2.96811C0.534201 2.39825 1.08406 1.92338 1.90135 1.92338C3.11853 1.92338 3.76336 3.06308 3.76336 4.26026C3.76336 5.45745 2.97607 6.47219 1.81637 6.47219Z" fill="#6E4091"/>
</svg>
