<svg width="6" height="7" viewBox="0 0 6 7" fill="none" xmlns="http://www.w3.org/2000/svg">
<path d="M3.08206 1.06065C2.87212 0.300845 1.94236 0.300842 1.94236 0.300842C1.19256 0.300842 0.697685 1.17312 0.697685 2.47528C0.697685 3.28257 1.0026 4.2873 1.92236 4.3073C1.95985 4.3073 2.5672 4.2973 3.08206 3.83242V1.06065ZM4.8191 4.46976C4.21176 4.46976 3.81187 4.11735 3.65191 3.88991C3.65191 5.14209 3.51945 6.33927 1.88487 6.33927H1.86488C1.73242 6.33927 1.0301 6.32927 0.650196 6.01685V5.54198C1.0026 5.96937 1.35251 6.07434 1.95985 6.07434C2.62468 6.07434 3.06206 5.62946 3.06206 5.04961V4.12985C3.06206 4.12985 2.65217 4.50975 1.7999 4.50975C0.56522 4.50975 0.0528564 3.46502 0.0528564 2.35531C0.0528564 0.818208 0.907627 0.00842285 1.95235 0.00842285C2.73965 0.00842285 3.65191 0.293344 3.65191 1.25309V3.24758C3.77438 3.45502 4.18427 3.90241 4.66665 3.90241C4.87409 3.90241 5.18901 3.89241 5.18901 3.89241V4.47226H4.8191V4.46976Z" fill="#6E4091"/>
</svg>
