<svg width="6" height="5" viewBox="0 0 6 5" fill="none" xmlns="http://www.w3.org/2000/svg">
<path d="M3.85831 4.4697H0.734131V3.88986H3.82083C4.36068 3.88986 5.02551 3.59494 5.02551 2.18031C5.02551 0.765675 4.35069 0.223312 3.82832 0.223312C3.30596 0.223312 2.54616 0.660702 2.54616 2.04784C2.54616 2.57021 2.87857 2.92011 2.91606 2.92011C2.91606 2.92011 2.7836 3.15755 2.47868 3.15755C1.91882 3.15755 1.86134 2.49273 1.86134 2.22779C1.86134 1.01311 2.75361 0.0158691 3.85582 0.0158691C4.95803 0.0158691 5.8403 0.850652 5.8403 2.25779C5.8403 3.46247 4.94803 4.4697 3.85582 4.4697" fill="#6E4091"/>
</svg>
