<svg width="4" height="9" viewBox="0 0 4 9" fill="none" xmlns="http://www.w3.org/2000/svg">
<path d="M1.33839 2.65898H1.92824V7.55771H1.33839V2.65898ZM2.12569 2.1941H0.965988L1.09845 1.94667H1.35589C1.24092 1.84169 1.18343 1.69923 1.18343 1.54927C1.18343 1.26435 1.38338 0.969421 1.78078 0.969421C1.95073 0.969421 2.13318 1.03691 2.13318 1.03691V1.36932C2.13318 1.36932 2.04821 1.17937 1.86825 1.17937C1.63081 1.17937 1.49835 1.35932 1.49835 1.55927C1.49835 1.75922 1.64081 1.95917 1.94573 1.95917C2.00322 1.95917 2.0882 1.95917 2.22066 1.90168L2.12569 2.1966V2.1941ZM2.74302 8.75489H0.558594V8.17505H2.58057C2.88549 8.17505 3.38786 8.04258 3.38786 7.36775V2.65898H3.9777V7.5677C3.9777 8.44997 3.30288 8.75489 2.74302 8.75489Z" fill="#6E4091"/>
</svg>
