<svg width="3" height="6" viewBox="0 0 3 6" fill="none" xmlns="http://www.w3.org/2000/svg">
<path d="M2.46061 1.50921C2.30183 0.939361 1.59866 0.93936 1.59866 0.93936C1.03158 0.93936 0.657308 1.59357 0.657308 2.57019C0.657308 3.17565 0.88792 3.93108 1.58353 3.9442C1.61189 3.9442 2.07122 3.9367 2.46061 3.58805V1.50921ZM1.61945 5.2901C2.12982 5.2901 2.46628 4.93395 2.46628 4.54967V3.80924C2.46628 3.80924 2.14305 4.09417 1.49658 4.09417C0.562796 4.09417 0.175293 3.31062 0.175293 2.47834C0.175293 1.32551 0.82176 0.727539 1.61189 0.727539C2.19976 0.727539 2.89726 0.926238 2.89726 1.65355V3.80361C2.89726 4.33035 2.88214 5.49067 1.56085 5.49067C1.51738 5.49067 0.972981 5.49068 0.627064 5.24887V4.8927C0.89359 5.20575 1.15823 5.29198 1.61756 5.29198" fill="#6E4091"/>
</svg>
