<svg width="4" height="7" viewBox="0 0 4 7" fill="none" xmlns="http://www.w3.org/2000/svg">
<path d="M3.03148 1.34582C2.82153 0.586019 1.89178 0.586016 1.89178 0.586016C1.14197 0.586016 0.647099 1.45829 0.647099 2.76045C0.647099 3.56774 0.95202 4.57498 1.87178 4.59247C1.90927 4.59247 2.51661 4.58248 3.03148 4.1176V1.34582ZM1.91927 6.38701C2.59409 6.38701 3.03898 5.91213 3.03898 5.39976V4.41252C3.03898 4.41252 2.61159 4.79242 1.75681 4.79242C0.522133 4.79242 0.00976562 3.7477 0.00976562 2.63799C0.00976562 1.10089 0.864543 0.303589 1.90927 0.303589C2.68657 0.303589 3.60883 0.56852 3.60883 1.53827V4.40502C3.60883 5.10734 3.58883 6.65443 1.84179 6.65443C1.7843 6.65443 1.06449 6.65444 0.60711 6.33202V5.85714C0.959518 6.27453 1.30943 6.3895 1.91677 6.3895" fill="#6E4091"/>
</svg>
