<svg width="5" height="7" viewBox="0 0 5 7" fill="none" xmlns="http://www.w3.org/2000/svg">
<path d="M3.43306 1.18107C3.20562 1.18107 3.02317 1.00111 3.02317 0.783669C3.02317 0.566226 3.20312 0.383779 3.43306 0.383779C3.663 0.383779 3.83296 0.563726 3.83296 0.783669C3.83296 1.00361 3.6605 1.18107 3.43306 1.18107ZM2.02843 1.18107C1.80099 1.18107 1.62103 1.00112 1.62103 0.773677C1.62103 0.566231 1.80099 0.376282 2.02843 0.376282C2.25587 0.376282 2.42832 0.566231 2.42832 0.773677C2.42832 1.00112 2.24837 1.18107 2.02843 1.18107ZM2.67576 2.1983C2.1259 2.1983 1.29862 2.68318 1.29862 4.23027C1.29862 5.6724 2.10591 6.32972 2.67576 6.32972C3.24561 6.32972 4.08039 5.71239 4.08039 4.23027C4.08039 2.74816 3.22562 2.1983 2.67576 2.1983ZM2.70325 6.58466C1.56355 6.58466 0.633789 5.81486 0.633789 4.27776C0.633789 3.01559 1.56355 1.98086 2.70325 1.98086C3.84295 1.98086 4.77271 2.81564 4.77271 4.27776C4.77271 5.54993 3.84295 6.58466 2.70325 6.58466Z" fill="#6E4091"/>
</svg>
