<svg width="5" height="7" viewBox="0 0 5 7" fill="none" xmlns="http://www.w3.org/2000/svg">
<path d="M3.83128 1.34579C3.62134 0.585988 2.69158 0.585986 2.69158 0.585986C1.94178 0.585986 1.4469 1.45826 1.4469 2.76042C1.4469 3.56771 1.75183 4.57495 2.67159 4.59244C2.70908 4.59244 3.31642 4.58245 3.83128 4.11757V1.34579ZM2.71907 6.38698C3.3939 6.38698 3.83878 5.9121 3.83878 5.39973V4.41249C3.83878 4.41249 3.41139 4.79239 2.55662 4.79239C1.32194 4.79239 0.80957 3.74767 0.80957 2.63796C0.80957 1.10086 1.66435 0.303558 2.70908 0.303558C3.48637 0.303558 4.40863 0.56849 4.40863 1.53824V4.40499C4.40863 5.10731 4.38864 6.6544 2.64159 6.6544C2.58411 6.6544 1.8643 6.65441 1.40691 6.33199V5.85711C1.75932 6.2745 2.10923 6.38947 2.71657 6.38947" fill="#6E4091"/>
</svg>
