<svg width="82" height="88" viewBox="0 0 82 88" fill="none" xmlns="http://www.w3.org/2000/svg">
<path d="M80.8005 14.4721C80.962 13.4615 81.0441 12.44 81.0447 11.4165C80.8296 9.45939 79.9857 8.86756 77.988 8.91801V8.91736C76.1672 9.09698 74.3335 9.10538 72.5115 8.94192C70.6042 8.49092 68.7387 7.87711 66.9355 7.10821C66.7326 7.01581 66.5781 6.84265 66.5084 6.63073C65.965 4.63558 64.4305 3.89704 62.6077 3.71674V3.71739C61.4454 3.6573 60.3398 3.19273 59.4837 2.40382C57.4639 0.562343 54.895 0.0823303 52.2574 0.0151748C49.1011 -0.086913 45.9499 0.326604 42.9274 1.24022C36.6852 3.16242 33.3945 7.6395 32.1908 13.8635C32.0228 14.7312 31.9601 15.6209 31.8096 16.4919C31.6564 17.1045 31.942 17.7428 32.5003 18.0368C35.1546 19.6715 37.1995 22.13 38.3218 25.0375C38.5512 25.7424 38.9699 26.3705 39.532 26.8537C40.0941 27.3364 40.7784 27.6555 41.5098 27.7757C44.0633 28.5511 46.7595 28.7346 49.3937 28.3113C49.8771 28.2209 50.3532 28.0955 50.8185 27.936C53.6879 26.9823 54.4052 26.0415 54.2144 23.0455C53.7712 17.1089 51.4826 11.4605 47.6686 6.8905C47.4748 6.64626 47.312 6.37812 47.1349 6.12033C47.2008 6.06089 47.2661 5.99951 47.332 5.94007H47.3313C47.4799 6.0105 47.6188 6.09966 47.7448 6.20563C52.0421 10.7007 54.7818 16.4582 55.5584 22.6288C55.6359 23.4455 55.6501 24.2673 55.5997 25.0866C55.568 26.1856 55.0292 27.2084 54.1395 27.8552C52.3929 29.2139 50.2782 30.0157 48.0698 30.1573C45.117 30.4203 42.1436 30.0048 39.3762 28.9426C38.1473 28.5394 37.2026 27.5482 36.8589 26.3018C36.015 23.6262 34.1361 21.6795 31.779 19.8658C31.7519 20.448 31.7545 21.0308 31.7868 21.6129C32.6164 28.9613 29.833 35.0129 25.1311 40.4098H25.1305C17.2485 49.4129 10.7691 59.5524 5.91013 70.4875C3.49485 75.8032 1.57728 81.3314 0.181568 87.0011C0.108556 87.3093 0.0672034 87.6265 0 88H26.8291C27.5657 83.9998 28.1743 80.0489 29.0408 76.1547H29.0414C30.51 68.805 33.2522 61.7694 37.1444 55.3646C38.8496 52.6289 40.959 50.1665 43.4008 48.0622C43.7296 47.732 43.9325 47.2972 43.9745 46.8326C44.1684 44.9091 44.1406 42.9547 44.4533 41.0543C45.1795 36.6368 47.5289 33.5198 52.1525 32.3239C52.4194 32.762 52.7385 33.2847 53.0603 33.8055C54.4391 36.0391 55.8658 38.243 57.1806 40.5147V40.5141C57.6562 41.4736 58.7436 41.964 59.778 41.6855C59.6255 40.5884 59.5299 39.4841 59.4918 38.3767C59.4885 36.4151 59.5913 34.454 59.8 32.5034C59.8736 31.7785 60.196 31.1007 60.7117 30.585C61.2279 30.07 61.9057 29.7483 62.6312 29.6753C67.0992 28.8812 71.3751 27.2413 75.2286 24.8442C77.8694 23.0977 80.0384 20.9313 80.702 17.693V17.6923C80.8118 16.6223 80.8448 15.5458 80.8008 14.4707L80.8005 14.4721ZM60.7157 14.6077C60.0889 14.6071 59.5249 14.2298 59.2858 13.6508C59.0468 13.0719 59.1799 12.4064 59.6225 11.9638C60.0657 11.5212 60.7312 11.3894 61.3095 11.6292C61.8884 11.8689 62.2651 12.4329 62.2651 13.0597C62.2651 13.47 62.1016 13.8641 61.8115 14.1548C61.5207 14.445 61.126 14.6084 60.7157 14.6077Z" fill="url(#paint0_linear_508_15727)"/>
<path d="M74.4158 57.2764C73.9699 56.8409 73.4511 56.4869 72.8825 56.2317C71.3396 55.4557 70.1559 54.1149 69.577 52.488C68.9503 50.8694 68.2602 49.2723 67.6613 47.6427L67.6606 47.6434C67.4467 46.9824 67.0539 46.3937 66.5254 45.9428C65.9975 45.4918 65.3552 45.1952 64.669 45.0867C62.5763 44.6945 60.4691 44.3527 58.3551 44.1136V44.113C57.1623 44.0568 56.0834 43.3893 55.4991 42.3484C54.2269 40.2052 52.8675 38.1136 51.5423 36.0009C51.4066 35.7857 51.2567 35.5796 51.0848 35.3283V35.3276C49.2809 35.999 47.9201 37.5102 47.4401 39.3737C46.8637 41.5551 46.5381 43.795 46.4702 46.0507C46.5639 47.7926 45.7886 49.468 44.4 50.5231C40.46 53.7997 37.9653 58.1797 35.9093 62.8046L35.9086 62.8053C32.8699 69.9333 30.819 77.4432 29.8144 85.127C29.6819 86.0329 29.5914 86.9485 29.4835 87.8595C29.4803 87.8854 29.5062 87.9145 29.5443 87.9985L62.6903 87.9978C62.5469 87.6211 62.428 87.2683 62.2813 86.9285C60.5845 83.2662 59.3162 79.4205 58.5014 75.4676C57.8818 71.9404 58.9104 69.8722 62.2082 68.4669C63.6717 67.897 65.1771 67.4421 66.7117 67.1061C67.2273 67.0538 67.7481 67.1035 68.2443 67.2528C70.56 67.6631 71.6138 66.9872 72.1941 64.7188C72.238 64.4299 72.3647 64.1599 72.5585 63.9408C74.2397 62.5691 74.1525 60.4079 74.92 58.6336C75.0635 58.304 74.7281 57.6191 74.4154 57.2774L74.4158 57.2764ZM62.4864 53.9941C61.8597 53.9941 61.2956 53.6168 61.0559 53.0378C60.8162 52.4595 60.9486 51.7934 61.3912 51.3508C61.8338 50.9076 62.5 50.7751 63.0789 51.0149C63.6572 51.2546 64.0345 51.8193 64.0345 52.4454C64.0345 52.8563 63.8717 53.2504 63.5815 53.5406C63.2908 53.8313 62.8967 53.9941 62.4864 53.9941Z" fill="url(#paint1_linear_508_15727)"/>
<defs>
<linearGradient id="paint0_linear_508_15727" x1="81.0447" y1="48.6636" x2="0" y2="48.6636" gradientUnits="userSpaceOnUse">
<stop stop-color="#EF6498"/>
<stop offset="1" stop-color="#542D91"/>
</linearGradient>
<linearGradient id="paint1_linear_508_15727" x1="74.9542" y1="64.4544" x2="29.4833" y2="64.4544" gradientUnits="userSpaceOnUse">
<stop stop-color="#EF6498"/>
<stop offset="1" stop-color="#542D91"/>
</linearGradient>
</defs>
</svg>
