<svg width="70" height="88" viewBox="0 0 70 88" fill="none" xmlns="http://www.w3.org/2000/svg">
<path d="M18.8893 39.5089C18.8893 41.9296 16.9427 43.8914 14.5411 43.8914C12.1395 43.8914 10.193 41.9298 10.193 39.5089C10.193 37.0882 12.1395 35.1265 14.5411 35.1265C16.9427 35.1265 18.8893 37.0881 18.8893 39.5089Z" fill="url(#paint0_linear_508_15753)"/>
<path d="M41.5637 6.28996C41.5637 9.76301 38.7694 12.5792 35.3222 12.5792C31.8751 12.5792 29.0808 9.76301 29.0808 6.28996C29.0808 2.81621 31.8751 0 35.3222 0C38.7694 0 41.5637 2.81621 41.5637 6.28996Z" fill="url(#paint1_linear_508_15753)"/>
<path d="M44.2208 42.1347C42.8052 40.7977 42.0812 38.8594 42.3044 36.8957L45.7885 14.7661L23.5713 14.7907L19.4243 45.046L14.5396 45.0528L8.34545 45.0439L0 63.7036L2.84423 63.5879L7.92244 53.4172L8.87965 53.4397L6.96323 74.7618L9.59605 74.7639L11.2881 87.9371L14.001 88L14.0509 74.764H15.0259L15.0759 88L17.7887 87.9371L19.4808 74.7639L22.1136 74.7618L20.1972 53.4397L21.1544 53.4172L25.1878 61.4957L23.7735 87.7537H29.2487L35.1254 51.685L40.8263 87.78H46.5251L44.2208 42.1347ZM23.1106 50.3556L25.4979 30.7518H26.8465L25.5027 55.7032L23.1106 50.3556Z" fill="url(#paint2_linear_508_15753)"/>
<path d="M65.5446 40.2168L48.3388 43.7624L46.5283 65.3087L50.2662 65.3128L52.6678 87.6771L56.5192 87.7845L56.5911 65.3134H58.2291L58.1791 87.6777H61.7124L64.4227 65.3134L68.3734 65.2921L65.5446 40.2168Z" fill="url(#paint3_linear_508_15753)"/>
<path d="M58.787 3.53119C58.2526 3.30266 57.6758 3.1494 57.0662 3.08988C53.8408 2.77036 50.9672 5.14187 50.6442 8.39054C50.3212 11.6392 52.6729 14.5341 55.8975 14.8536C57.9448 15.0568 59.8475 14.1707 61.0483 12.6676C62.6787 14.0367 64.7471 18.51 68.0156 12.4726C63.8405 15.8185 63.9876 5.34027 58.7868 3.53123L58.787 3.53119Z" fill="url(#paint4_linear_508_15753)"/>
<path d="M69.4647 33.091L66.9803 17.2822H46.5847L43.4702 37.0542C43.2773 38.7627 43.9978 40.4629 45.3518 41.5466C46.2481 42.1556 47.3264 42.5196 48.5026 42.5196L59.9248 40.1804L57.6553 34.4679C55.7368 35.2014 52.7645 36.3276 51.0164 36.9317C49.9121 37.3135 49.0275 35.7425 49.1643 34.5835L49.7432 29.7652L47.2999 30.6951L46.2879 29.7851L50.346 27.7105C50.8715 27.4553 51.6611 27.6243 51.7596 28.1997C51.9587 29.38 51.7685 31.9096 51.7685 31.9096L56.3746 30.1245C57.1916 29.8077 58.1098 30.2135 58.4266 31.0298L59.0233 32.5699L59.4865 33.7639L59.9722 35.0174V40.1709L63.8524 39.3765C66.5263 38.9297 69.8447 36.4426 69.4643 33.0913L69.4647 33.091ZM63.1733 33.0684C61.7146 33.6336 60.0746 32.9097 59.5101 31.451C58.9449 29.9922 59.6688 28.3522 61.1276 27.7877C62.5863 27.2225 64.2263 27.9464 64.7908 29.4052C65.3553 30.8625 64.6314 32.5039 63.1733 33.0684Z" fill="url(#paint5_linear_508_15753)"/>
<defs>
<linearGradient id="paint0_linear_508_15753" x1="18.8893" y1="39.9734" x2="10.193" y2="39.9734" gradientUnits="userSpaceOnUse">
<stop stop-color="#EF6498"/>
<stop offset="1" stop-color="#542D91"/>
</linearGradient>
<linearGradient id="paint1_linear_508_15753" x1="41.5637" y1="6.95625" x2="29.0808" y2="6.95625" gradientUnits="userSpaceOnUse">
<stop stop-color="#EF6498"/>
<stop offset="1" stop-color="#542D91"/>
</linearGradient>
<linearGradient id="paint2_linear_508_15753" x1="46.5251" y1="55.2641" x2="0" y2="55.2641" gradientUnits="userSpaceOnUse">
<stop stop-color="#EF6498"/>
<stop offset="1" stop-color="#542D91"/>
</linearGradient>
<linearGradient id="paint3_linear_508_15753" x1="68.3734" y1="66.5215" x2="46.5283" y2="66.5215" gradientUnits="userSpaceOnUse">
<stop stop-color="#EF6498"/>
<stop offset="1" stop-color="#542D91"/>
</linearGradient>
<linearGradient id="paint4_linear_508_15753" x1="68.0156" y1="9.96687" x2="50.6145" y2="9.96687" gradientUnits="userSpaceOnUse">
<stop stop-color="#EF6498"/>
<stop offset="1" stop-color="#542D91"/>
</linearGradient>
<linearGradient id="paint5_linear_508_15753" x1="69.4943" y1="31.2384" x2="43.4393" y2="31.2384" gradientUnits="userSpaceOnUse">
<stop stop-color="#EF6498"/>
<stop offset="1" stop-color="#542D91"/>
</linearGradient>
</defs>
</svg>
