<svg width="94" height="88" viewBox="0 0 94 88" fill="none" xmlns="http://www.w3.org/2000/svg">
<path d="M86.6873 81.4777C86.6873 81.4777 82.6735 82.5145 75.4821 83.4511C75.4821 83.4511 76.6862 76.6948 79.0276 72.2128C81.7035 67.1288 86.0517 63.6837 86.0517 63.6837L89.798 75.8251C90.5673 78.3002 89.129 80.8422 86.6538 81.4777M56.3831 41.1067H37.5517V31.4738H56.3831V41.1067ZM6.67901 81.4777C4.20384 80.8422 2.76556 78.3002 3.53487 75.8251L7.28111 63.6837C7.28111 63.6837 11.6628 67.1288 14.3387 72.2128C16.6801 76.6613 17.8842 83.4511 17.8842 83.4511C10.6928 82.5145 6.67901 81.4777 6.67901 81.4777ZM93.6445 76.9958L80.0311 32.979C79.0945 30.0691 75.8835 27.6608 72.8062 27.5939C72.8397 28.1625 72.94 28.6643 72.94 29.2329C74.4117 30.1025 75.4152 31.6076 75.4152 33.4472C75.4152 36.1899 73.2076 38.3975 70.4649 38.3975C67.7221 38.3975 65.548 36.1899 65.548 33.4472C65.548 31.9421 66.2504 30.6377 67.3207 29.7346C67.2873 28.9653 67.1869 28.2629 67.1535 27.5605H27.9187C27.8518 28.2295 27.7514 28.8315 27.6845 29.5339C28.9221 30.437 29.7249 31.8083 29.7249 33.4472C29.7249 36.1899 27.5173 38.3975 24.7745 38.3975C22.0318 38.3975 19.8242 36.1899 19.8242 33.4472C19.8242 31.7414 20.7273 30.3367 22.0318 29.4336C22.0318 28.7646 22.199 28.196 22.2659 27.5605H21.1955C18.0849 27.5605 14.807 29.9687 13.8704 32.9455L0.256953 76.9623C-0.679599 79.9391 1.02628 83.0163 4.03662 83.7856C4.03662 83.7856 20.3594 87.9999 46.9173 87.9999C73.4752 87.9999 89.7645 83.7186 89.7645 83.7186C92.7748 82.9493 94.4807 79.9391 93.5776 76.9623" fill="url(#paint0_linear_508_15745)"/>
<path d="M47.4859 5.68604C55.3127 5.68604 65.481 8.16111 67.1869 27.594H72.7393C72.7393 27.594 72.7727 27.594 72.8396 27.594C70.9665 5.0505 58.2896 0 47.4859 0C32.6014 0 23.9048 9.83354 22.2993 27.5606H27.9187C29.29 13.1114 35.7455 5.65261 47.4524 5.65261" fill="url(#paint1_linear_508_15745)"/>
<path d="M51.1317 32.7451H42.87V36.9595H51.1317V32.7451Z" fill="url(#paint2_linear_508_15745)"/>
<defs>
<linearGradient id="paint0_linear_508_15745" x1="93.8193" y1="60.9832" x2="0" y2="60.9832" gradientUnits="userSpaceOnUse">
<stop stop-color="#EF6498"/>
<stop offset="1" stop-color="#542D91"/>
</linearGradient>
<linearGradient id="paint1_linear_508_15745" x1="72.8396" y1="15.2594" x2="22.2993" y2="15.2594" gradientUnits="userSpaceOnUse">
<stop stop-color="#EF6498"/>
<stop offset="1" stop-color="#542D91"/>
</linearGradient>
<linearGradient id="paint2_linear_508_15745" x1="51.1317" y1="35.0757" x2="42.87" y2="35.0757" gradientUnits="userSpaceOnUse">
<stop stop-color="#EF6498"/>
<stop offset="1" stop-color="#542D91"/>
</linearGradient>
</defs>
</svg>
