<svg width="62" height="88" viewBox="0 0 62 88" fill="none" xmlns="http://www.w3.org/2000/svg">
<path d="M3.27421 85.2294C3.01016 84.2795 2.87813 83.8309 2.58768 82.9073C21.7048 78.0258 39.7394 78.0258 58.8565 82.9073C58.5925 83.8309 58.4604 84.3058 58.17 85.2294C39.4225 80.5061 21.9953 80.5061 3.2478 85.2294M22.3913 33.2738C26.6425 36.3874 28.7813 38.7358 30.7353 42.8522C32.6629 38.7358 34.8016 36.3874 39.0792 33.2738C39.6337 34.039 39.9242 34.4348 40.5051 35.2264C35.805 38.6303 33.9303 41.0843 31.7915 46.4672C31.7915 46.4672 31.7915 46.4672 31.7651 46.4672C31.6595 47.1268 31.2106 47.6018 30.6825 47.6018C30.1016 47.6018 29.6527 47.0213 29.5735 46.2561C27.4611 41.0051 25.5863 38.6039 20.9655 35.2264C21.52 34.4348 21.8104 34.039 22.3913 33.2738ZM46.8423 42.43C45.7333 40.5565 40.9012 34.3028 40.9012 31.11C40.9012 28.7352 46.3406 14.7766 46.3406 13.3253C46.3406 9.89505 43.436 7.09805 39.6866 6.5967V0H37.3365V6.5967C33.587 7.09805 30.6825 9.92144 30.6825 13.3253C30.6825 9.76312 27.5403 6.83418 23.5268 6.54393V0H21.2031V6.67586C17.6913 7.33553 15.0508 10.0798 15.0508 13.3253C15.0508 14.7766 20.4902 28.7352 20.4902 31.11C20.4902 34.3028 15.5789 40.4774 14.5755 42.43C1.55789 67.4447 0 86.5223 0 86.5223C0 86.5223 15.0244 88 30.7353 88C47.5552 88 61.4706 86.5223 61.4706 86.5223C61.4706 86.5223 58.5925 62.4312 46.8687 42.43" fill="url(#paint0_linear_508_15789)"/>
<defs>
<linearGradient id="paint0_linear_508_15789" x1="61.4706" y1="48.6636" x2="0" y2="48.6636" gradientUnits="userSpaceOnUse">
<stop stop-color="#EF6498"/>
<stop offset="1" stop-color="#542D91"/>
</linearGradient>
</defs>
</svg>
