<svg width="36" height="88" viewBox="0 0 36 88" fill="none" xmlns="http://www.w3.org/2000/svg">
<path d="M26.7625 20.8772C26.8319 20.8537 26.8797 20.8288 26.9485 20.8078L26.9491 11.654H20.0677V9.56892C19.7646 9.77717 19.4652 10.009 19.1869 10.2637C18.9316 10.4956 18.7233 10.7267 18.5157 10.9834L18.4921 10.9599C18.3749 10.8898 18.2839 10.8439 18.1673 10.8656C18.0297 10.8885 17.9145 10.9356 17.8444 11.0516C17.2891 11.7693 16.7095 12.3508 16.1077 12.8373H16.1287C14.9938 13.6481 13.6742 14.0646 12.191 14.0397C10.2893 14.0397 8.66972 13.3697 7.34634 12.0247H7.37118C6.02547 10.658 5.35553 9.03526 5.35553 7.13553C5.35553 5.2345 6.02552 3.61422 7.34705 2.26981C7.87947 1.73675 8.46093 1.31833 9.08569 0.995432V0C8.20491 0.347093 7.41781 0.903723 6.6993 1.62147C5.19373 3.15186 4.42947 4.98039 4.42947 7.13609C4.42947 9.29194 5.19372 11.1222 6.6993 12.6756C8.20486 14.2029 10.0372 14.9683 12.1922 14.9683C13.8596 14.9912 15.3428 14.5276 16.6631 13.5787H16.686C16.9172 13.3927 17.1496 13.208 17.3573 12.9997C17.3802 12.9762 17.3802 12.9762 17.4038 12.9513C17.2414 13.4163 17.1496 13.9028 17.1261 14.4129C17.1032 14.5518 17.1032 14.6893 17.1032 14.8511C17.1032 15.7561 17.2656 16.5884 17.6127 17.3534C17.2656 16.5885 17.0796 15.7555 17.0796 14.8511C17.0796 14.7123 17.0796 14.5747 17.1032 14.4346C15.434 15.4784 13.5113 15.9885 11.3337 15.9885C8.68939 15.9885 6.44386 15.2237 4.5663 13.6939C3.01299 12.4183 2.08763 10.9357 1.73856 9.22114C1.71564 9.47589 1.69207 9.73254 1.69207 9.98602C1.69207 12.6264 2.85181 14.8752 5.1917 16.7534C7.53163 18.6297 10.3357 19.5799 13.6487 19.5799C15.4568 19.5799 17.1247 19.3035 18.629 18.7462L19.0022 19.2328C17.1477 20.2976 15.0378 20.8307 12.6985 20.8307C9.40773 20.8307 6.60493 19.79 4.26386 17.6788C1.92393 15.5707 0.764236 13.0469 0.764236 10.0791C0.764236 9.9167 0.764237 9.73328 0.789074 9.57024C0.254112 10.7752 0 12.0726 0 13.4387C0 16.5675 1.32087 19.2329 3.96265 21.4569C6.60502 23.6573 9.80204 24.7711 13.5322 24.7711C16.8681 24.7711 19.7647 23.8904 22.2452 22.1058V25.1187C22.2216 25.1417 22.1993 25.1646 22.1757 25.2111H22.1528C21.1109 26.5542 19.906 27.7134 18.5379 28.7101L20.9237 28.3853V30.9831H23.4271V28.016L27.4579 27.4606L29.0565 28.4338V57.8362H31.1205C32.1631 52.0202 32.649 46.0209 32.5337 39.8334C32.6013 36.844 32.8796 34.0876 33.3661 31.5605C34.7341 24.9345 33.575 22.4551 29.8902 24.0982C28.6393 24.4472 27.5956 24.3766 26.7613 23.8435L26.7619 20.877L26.7625 20.8772Z" fill="url(#paint0_linear_508_15795)"/>
<path d="M17.378 29.2868C17.4939 28.7544 17.7964 28.2443 18.283 27.7577C19.3478 26.9234 20.3196 25.9726 21.201 24.9319C20.9017 24.9071 20.5539 24.8619 20.2049 24.7931C16.7996 23.8881 15.3392 26.1592 15.8259 31.5822C16.0106 33.6449 15.9418 35.6607 15.6387 37.5828C13.902 40.3398 12.7206 42.9822 12.141 45.4851V45.5775V46.2506C12.9052 44.7909 14.1115 43.0536 15.7081 40.9913C16.5902 39.8539 17.2856 38.7426 17.7952 37.6076C17.8168 37.5376 17.8627 37.4452 17.8882 37.3745C18.5142 35.869 18.8148 34.3616 18.8148 32.8095V32.4617C18.7683 32.4159 18.7218 32.3694 18.6772 32.3229C18.4664 32.114 18.283 31.9064 18.1206 31.6969C17.471 30.8632 17.2143 30.0518 17.378 29.287L17.378 29.2868Z" fill="url(#paint1_linear_508_15795)"/>
<path d="M16.4503 41.544V41.5676C15.0613 43.3509 13.8798 45.0188 12.8832 46.5269C15.3632 45.1818 18.7226 44.2787 22.9648 43.8381L18.5374 38.2075C18.0043 39.3201 17.3101 40.4326 16.4503 41.544Z" fill="url(#paint2_linear_508_15795)"/>
<path d="M12.2341 47.8924C12.1883 47.9159 12.1418 47.9618 12.0966 48.0083L12.0717 51.9479C12.1889 51.9244 12.3048 51.9021 12.4194 51.9021C12.8602 51.9021 13.2073 52.0397 13.5085 52.3173C13.8097 52.5969 13.9715 52.9198 13.9715 53.314C13.9715 53.7076 13.8097 54.0324 13.5085 54.2872C13.2073 54.5878 12.8602 54.7273 12.4194 54.7273C12.28 54.7273 12.1641 54.7037 12.0482 54.6789L11.9807 60.1954L12.7678 78.1998L13.4397 87.9999H15.8274V60.6094H17.4489C17.5177 60.6094 17.5642 60.6342 17.6342 60.6559L29.2877 65.6603L28.3617 61.1654H28.3401C27.9694 61.5144 27.5045 61.6984 26.9721 61.6984C26.4396 61.6984 25.9754 61.5137 25.5818 61.1654C25.2105 60.8183 25.0277 60.4247 25.0277 59.9381C25.0277 59.4516 25.2105 59.0331 25.5818 58.6873C25.976 58.3383 26.4403 58.1759 26.9721 58.1759C27.2727 58.1759 27.5739 58.2453 27.8286 58.3632L26.7402 52.7307C26.6937 52.8007 26.6479 52.8466 26.5778 52.8924C26.2766 53.1949 25.9289 53.3331 25.4888 53.3331C25.0487 53.3331 24.678 53.1943 24.3775 52.8924C24.0749 52.6383 23.9367 52.3135 23.9367 51.9199C23.9367 51.5263 24.0756 51.2015 24.3775 50.9245C24.6781 50.6449 25.0474 50.5061 25.4888 50.5061C25.6506 50.5061 25.7913 50.5296 25.9289 50.5755L27.1567 49.1629L23.6354 44.689C23.5424 44.689 23.4507 44.689 23.3348 44.7125C18.1437 45.2456 14.4588 46.2882 12.3049 47.8409C12.2795 47.8689 12.2578 47.8689 12.2342 47.8912L12.2341 47.8924ZM19.8575 48.3318C20.2281 48.6814 20.4141 49.0967 20.4141 49.5368C20.4141 50.0004 20.2281 50.394 19.8575 50.7194C19.5097 51.0672 19.0684 51.2296 18.5608 51.2296C18.0265 51.2296 17.5883 51.0672 17.2138 50.7194C16.8667 50.3953 16.6827 50.0011 16.6827 49.5368C16.6827 49.0967 16.8674 48.6802 17.2138 48.3318C17.587 48.0089 18.0265 47.8459 18.5608 47.8459C19.0678 47.8459 19.5097 48.0083 19.8575 48.3318ZM14.2957 49.6304C14.5505 49.6304 14.7823 49.6998 14.9428 49.8635C15.1307 50.0252 15.2224 50.2335 15.2224 50.4653C15.2224 50.6742 15.1313 50.8595 14.9428 51.022C14.781 51.1837 14.5492 51.2761 14.2957 51.2761C14.0416 51.2761 13.834 51.1831 13.6474 51.022C13.4856 50.8583 13.3927 50.6742 13.3927 50.4653C13.3927 50.2335 13.4856 50.0252 13.6474 49.8635C13.8334 49.6998 14.0416 49.6304 14.2957 49.6304ZM15.7567 54.1032C15.7567 53.8249 15.8726 53.5708 16.0809 53.3619C16.3121 53.1536 16.591 53.0593 16.9145 53.0593C17.2387 53.0593 17.517 53.1542 17.7508 53.3619C17.9807 53.5707 18.0959 53.8249 18.0959 54.1032C18.0959 54.4057 17.9807 54.6356 17.7508 54.8458C17.517 55.0547 17.2387 55.1687 16.9145 55.1687C16.5917 55.1687 16.3121 55.0547 16.0809 54.8458C15.8726 54.6356 15.7567 54.4051 15.7567 54.1032ZM20.3205 52.7365C20.5065 52.5728 20.7147 52.5034 20.9478 52.5034C21.2019 52.5034 21.4115 52.5728 21.5732 52.7365C21.7356 52.8982 21.8286 53.0855 21.8286 53.2931C21.8286 53.5013 21.7343 53.6867 21.5732 53.8472C21.4114 54.0096 21.2026 54.0784 20.9478 54.0784C20.7147 54.0784 20.5077 54.0096 20.3205 53.8472C20.1581 53.6854 20.0893 53.5001 20.0893 53.2931C20.0893 53.0842 20.1581 52.897 20.3205 52.7365ZM18.9302 60.4293C18.3277 60.4293 17.8182 60.2204 17.3782 59.8268C16.9375 59.4326 16.7292 58.9702 16.7292 58.4136C16.7292 57.8576 16.9374 57.3691 17.3782 56.9768C17.8182 56.5813 18.3277 56.3972 18.9302 56.3972C19.534 56.3972 20.0435 56.5819 20.4835 56.9768C20.923 57.3704 21.1319 57.8576 21.1319 58.4136C21.1319 58.9702 20.923 59.4326 20.4835 59.8268C20.0428 60.2204 19.5333 60.4293 18.9302 60.4293ZM13.3933 56.6055C13.6244 56.6055 13.8104 56.675 13.9722 56.8144C14.1339 56.9768 14.2269 57.1621 14.2269 57.3698C14.2269 57.5786 14.1327 57.741 13.9722 57.9022C13.8104 58.0659 13.6244 58.1353 13.3933 58.1353C13.1614 58.1353 12.9532 58.0659 12.7914 57.9022C12.629 57.7417 12.536 57.5793 12.536 57.3698C12.536 57.1615 12.629 56.9762 12.7914 56.8144C12.9525 56.6749 13.1608 56.6055 13.3933 56.6055ZM22.3374 46.0405C22.7074 46.0405 23.0322 46.1557 23.2876 46.3876C23.5417 46.6417 23.6799 46.92 23.6799 47.2677C23.6799 47.5925 23.5423 47.8715 23.2876 48.1039C23.0322 48.358 22.7068 48.4739 22.3374 48.4739C21.9667 48.4739 21.6419 48.358 21.3878 48.1039C21.1324 47.8708 20.9923 47.5925 20.9923 47.2677C20.9923 46.92 21.1312 46.6417 21.3878 46.3876C21.6413 46.1551 21.9655 46.0405 22.3374 46.0405ZM23.7277 54.8446C24.0977 54.8446 24.4225 54.9598 24.6772 55.1923C24.932 55.4464 25.0715 55.7247 25.0715 56.0731C25.0715 56.396 24.9326 56.6749 24.6772 56.9055C24.4225 57.1608 24.0977 57.278 23.7277 57.278C23.3551 57.278 23.0309 57.1608 22.7762 56.9055C22.5234 56.6743 22.382 56.396 22.382 56.0731C22.382 55.7241 22.5227 55.4457 22.7762 55.1923C23.0309 54.9592 23.3551 54.8446 23.7277 54.8446ZM21.7585 60.6592C21.7585 60.4503 21.8508 60.2656 22.0126 60.1038C22.175 59.9643 22.3826 59.8949 22.6151 59.8949C22.8469 59.8949 23.0316 59.9644 23.1927 60.1038C23.3551 60.2662 23.4494 60.4509 23.4494 60.6592C23.4494 60.868 23.3545 61.0317 23.1927 61.1935C23.031 61.3559 22.8469 61.4247 22.6151 61.4247C22.382 61.4247 22.175 61.3559 22.0126 61.1935C21.8496 61.0317 21.7585 60.8693 21.7585 60.6592Z" fill="url(#paint3_linear_508_15795)"/>
<path d="M29.521 66.7795L24.8184 64.7632L26.4615 71.8534L32.9276 87.1236H35.291L30.9361 73.7315L29.521 66.7795Z" fill="url(#paint4_linear_508_15795)"/>
<path d="M29.658 19.3673C31.1209 18.0241 31.861 16.4019 31.861 14.5246C31.861 12.6235 31.1197 11.0033 29.658 9.68313C28.199 8.33806 26.4139 7.66748 24.3523 7.66748C22.2889 7.66748 20.5285 8.33874 19.0465 9.68313C17.5868 11.0027 16.8442 12.6242 16.8442 14.5246C16.8442 16.4028 17.5868 18.0242 19.0465 19.3673C20.5272 20.6882 22.2889 21.3619 24.3523 21.3619C26.4144 21.3625 28.1997 20.6887 29.658 19.3673Z" fill="url(#paint5_linear_508_15795)"/>
<defs>
<linearGradient id="paint0_linear_508_15795" x1="33.9216" y1="31.9831" x2="0" y2="31.9831" gradientUnits="userSpaceOnUse">
<stop stop-color="#EF6498"/>
<stop offset="1" stop-color="#542D91"/>
</linearGradient>
<linearGradient id="paint1_linear_508_15795" x1="21.201" y1="36.5725" x2="12.141" y2="36.5725" gradientUnits="userSpaceOnUse">
<stop stop-color="#EF6498"/>
<stop offset="1" stop-color="#542D91"/>
</linearGradient>
<linearGradient id="paint2_linear_508_15795" x1="22.9648" y1="42.8081" x2="12.8832" y2="42.8081" gradientUnits="userSpaceOnUse">
<stop stop-color="#EF6498"/>
<stop offset="1" stop-color="#542D91"/>
</linearGradient>
<linearGradient id="paint3_linear_508_15795" x1="29.2877" y1="68.6397" x2="11.9807" y2="68.6397" gradientUnits="userSpaceOnUse">
<stop stop-color="#EF6498"/>
<stop offset="1" stop-color="#542D91"/>
</linearGradient>
<linearGradient id="paint4_linear_508_15795" x1="35.291" y1="77.1284" x2="24.8184" y2="77.1284" gradientUnits="userSpaceOnUse">
<stop stop-color="#EF6498"/>
<stop offset="1" stop-color="#542D91"/>
</linearGradient>
<linearGradient id="paint5_linear_508_15795" x1="31.861" y1="15.2404" x2="16.8442" y2="15.2404" gradientUnits="userSpaceOnUse">
<stop stop-color="#EF6498"/>
<stop offset="1" stop-color="#542D91"/>
</linearGradient>
</defs>
</svg>
