<svg width="74" height="88" viewBox="0 0 74 88" fill="none" xmlns="http://www.w3.org/2000/svg">
<path d="M12.623 36.7147L42.3908 48.6632C43.4509 49.0886 44.6577 48.8412 45.4654 48.0328L52.7855 40.7095L17.2568 26.4487L11.6685 32.0396C10.9773 32.7308 10.6937 33.6774 10.8901 34.6361C11.0853 35.5931 11.717 36.3505 12.6223 36.7146L12.623 36.7147Z" fill="url(#paint0_linear_508_15919)"/>
<path d="M41.5595 49.8834L13.1023 38.4609L13.2097 42.8124L39.2799 53.2773L41.5595 49.8834Z" fill="url(#paint1_linear_508_15919)"/>
<path d="M6.90772 71.206C6.57624 71.1502 6.24354 71.1226 5.91391 71.1226C4.69237 71.1226 3.50332 71.5007 2.48802 72.225C-0.175416 74.1249 -0.79912 77.841 1.09765 80.5095C2.01658 81.8023 3.383 82.6586 4.94517 82.9213C6.50617 83.1834 8.07579 82.8219 9.36484 81.9024C12.0283 80.0025 12.652 76.2863 10.7552 73.6179C9.83627 72.3251 8.46989 71.4688 6.90772 71.206ZM7.79166 79.6851C7.24104 80.0779 6.59588 80.2829 5.93359 80.2829C5.75435 80.2829 5.57448 80.2682 5.39402 80.2375C4.54692 80.0951 3.80545 79.6304 3.30699 78.93C2.27941 77.4844 2.61764 75.471 4.06079 74.4417C4.75996 73.9426 5.61197 73.7468 6.45849 73.8892C7.30559 74.0316 8.04706 74.4963 8.54489 75.1973C9.57308 76.6423 9.2348 78.6556 7.79166 79.6851Z" fill="url(#paint2_linear_508_15919)"/>
<path d="M17.7381 66.2281C21.0996 68.4925 25.1399 69.3114 29.115 68.5331C33.0939 67.7541 36.532 65.4694 38.7948 62.0988L49.7446 45.792L46.4851 49.0527C45.6637 49.8747 44.5681 50.3111 43.4514 50.3117C43.309 50.3117 43.1666 50.3037 43.0242 50.289L38.1631 57.5286C35.9151 60.8766 32.4991 63.1472 28.5454 63.9212C27.5718 64.1121 26.5933 64.2061 25.6222 64.2061C22.6555 64.2061 19.7563 63.3264 17.2395 61.6309C14.1255 59.5328 11.953 56.3734 11.0484 52.8303C10.7862 57.9957 13.1685 63.1496 17.738 66.2287L17.7381 66.2281Z" fill="url(#paint3_linear_508_15919)"/>
<path d="M6.21938 75.3108C6.11994 75.2942 6.02111 75.2856 5.92229 75.2856C5.55705 75.2856 5.20164 75.3986 4.8984 75.6153C4.10163 76.1837 3.91502 77.2953 4.48283 78.0939C4.75783 78.4806 5.16605 78.7366 5.63317 78.8152C6.0997 78.8938 6.56866 78.7857 6.95415 78.5107C7.75092 77.9423 7.93753 76.8307 7.36972 76.0321C7.09472 75.6454 6.68651 75.3894 6.21938 75.3108Z" fill="url(#paint4_linear_508_15919)"/>
<path d="M14.6864 51.2221L34.7537 59.277C35.5836 58.53 36.327 57.6749 36.9653 56.7234L38.4576 54.5006L13.2485 44.3813L13.3707 49.3271C13.3916 50.1656 13.9078 50.9096 14.6862 51.2221H14.6864Z" fill="url(#paint5_linear_508_15919)"/>
<path d="M61.2733 28.6172L60.2758 18.3101C60.0345 15.8615 58.4975 13.7652 56.2515 12.793L49.549 13.7457C51.3284 15.101 52.4967 17.1464 52.7231 19.447L54.6057 38.5526L61.2733 28.6172Z" fill="url(#paint6_linear_508_15919)"/>
<path d="M47.454 12.5871L53.5832 11.7154L36.4702 4.84648C32.9265 3.4242 29.0992 3.08348 25.4376 3.79926C25.7034 3.87599 25.968 3.96255 26.2289 4.0675L47.454 12.5871Z" fill="url(#paint7_linear_508_15919)"/>
<path d="M17.7585 25.0957L23.5274 27.4111L35.3476 9.28139L25.6925 5.40622C23.9099 4.69047 21.9659 4.76782 20.2846 5.58239C20.276 5.58669 20.2674 5.59099 20.2582 5.5959C19.8776 5.78251 19.5099 6.00595 19.1613 6.26744C17.2614 7.69278 16.2664 9.95608 16.4996 12.3217L17.7585 25.0957Z" fill="url(#paint8_linear_508_15919)"/>
<path d="M47.0957 13.997L36.7113 9.8291L24.8911 27.9588L53.232 39.3346L51.2867 19.5895C51.0388 17.0788 49.4329 14.936 47.0954 13.9973L47.0957 13.997Z" fill="url(#paint9_linear_508_15919)"/>
<path d="M12.0714 50.2686C12.425 54.3469 14.5967 58.1104 18.0461 60.4339C21.0662 62.4687 24.6964 63.2042 28.2684 62.505C30.1609 62.1343 31.9153 61.3817 33.4506 60.3086L14.1486 52.5607C13.1241 52.15 12.3714 51.2955 12.0713 50.2686H12.0714Z" fill="url(#paint10_linear_508_15919)"/>
<path d="M43.6385 77.2201C42.6233 76.4958 41.4343 76.1177 40.2127 76.1177C39.8824 76.1177 39.5509 76.1453 39.2188 76.2012C37.6566 76.4639 36.2902 77.3202 35.3713 78.613C33.4746 81.2813 34.0982 84.9976 36.7617 86.8975C38.0508 87.817 39.6209 88.1792 41.1814 87.9165C42.7436 87.6537 44.1101 86.7974 45.0289 85.5046C46.9256 82.8363 46.302 79.12 43.6385 77.2201ZM42.8191 83.9252C42.3206 84.6262 41.5797 85.0902 40.7327 85.2326C40.5528 85.2627 40.3723 85.2781 40.1931 85.2781C39.5301 85.2781 38.8856 85.073 38.335 84.6802C36.8919 83.6508 36.5536 81.6374 37.5812 80.1918C38.0797 79.4908 38.8206 79.0267 39.6676 78.8837C40.5147 78.7413 41.3662 78.9377 42.0653 79.4368C43.5085 80.4662 43.8473 82.4802 42.8191 83.9252Z" fill="url(#paint11_linear_508_15919)"/>
<path d="M41.2279 80.6114C40.9247 80.3953 40.5693 80.2817 40.204 80.2817C40.1052 80.2817 40.0064 80.2903 39.9069 80.3069C39.4404 80.3855 39.0316 80.6415 38.7572 81.0282C38.19 81.8268 38.376 82.9384 39.1728 83.5068C39.5583 83.7818 40.0266 83.8898 40.4938 83.8113C40.9603 83.7327 41.3691 83.4767 41.6441 83.09C42.2113 82.2914 42.0247 81.1798 41.2279 80.6114Z" fill="url(#paint12_linear_508_15919)"/>
<path d="M50.1993 56.71L48.1774 59.7208L60.6181 64.8004C60.9981 63.6267 61.6648 62.5813 62.5345 61.7464L50.1993 56.71Z" fill="url(#paint13_linear_508_15919)"/>
<path d="M67.6297 61.1333C64.361 61.1333 61.7012 63.798 61.7012 67.0729C61.7012 70.3477 64.3604 73.0124 67.6297 73.0124C70.8985 73.0124 73.5583 70.3477 73.5583 67.0729C73.5583 63.798 70.8991 61.1333 67.6297 61.1333ZM67.6297 70.2918C65.857 70.2918 64.415 68.848 64.415 67.0729C64.415 65.2977 65.857 63.8539 67.6297 63.8539C69.4025 63.8539 70.8444 65.2977 70.8444 67.0729C70.845 68.8481 69.4025 70.2918 67.6297 70.2918Z" fill="url(#paint14_linear_508_15919)"/>
<path d="M67.6297 65.2959C66.6524 65.2959 65.8575 66.0927 65.8575 67.0724C65.8575 68.0522 66.6525 68.8489 67.6297 68.8489C68.6068 68.8489 69.4024 68.0522 69.4024 67.0724C69.4024 66.0933 68.6075 65.2959 67.6297 65.2959Z" fill="url(#paint15_linear_508_15919)"/>
<path d="M11.4068 69.4228C10.4989 68.5708 9.67758 67.6524 8.94466 66.6802L6.99451 69.7622C8.17247 69.8967 9.27734 70.3749 10.3222 71.1373L11.4068 69.4228Z" fill="url(#paint16_linear_508_15919)"/>
<path d="M67.9644 59.6987L63.4453 36.9819L60.6566 41.1346L64.4883 60.3958C65.6208 59.9127 66.7816 59.7021 67.9644 59.6984V59.6987Z" fill="url(#paint17_linear_508_15919)"/>
<path d="M35.8033 76.1325C36.8831 75.3934 37.9953 74.9686 39.131 74.7575L37.4675 72.1289C36.4546 72.7464 35.3889 73.2799 34.2792 73.7242L35.8033 76.1325Z" fill="url(#paint18_linear_508_15919)"/>
<path d="M42.9597 64.9048L65.3685 31.5306C71.5824 22.2756 69.1215 9.68129 59.8826 3.45839C52.9412 -1.21853 43.9749 -1.12456 37.1706 3.5744L41.3761 5.26244C46.6883 2.69283 52.9832 3.13063 57.8872 6.43427C65.4884 11.5556 67.5135 21.9161 62.4008 29.5297L39.9921 62.9039C37.5139 66.5943 33.7492 69.0964 29.3916 69.9497C28.318 70.1596 27.2402 70.2633 26.1702 70.2639C22.9002 70.2639 19.7051 69.2947 16.9312 67.4261C9.66456 62.5301 7.44914 52.8423 11.8272 45.2829L11.6719 39.0193L9.4497 42.3286C3.23638 51.583 5.69789 64.1763 14.9368 70.4008C19.41 73.4142 24.7866 74.5037 30.078 73.4683C35.3729 72.4315 39.948 69.3905 42.9595 64.9058L42.9597 64.9048Z" fill="url(#paint19_linear_508_15919)"/>
<defs>
<linearGradient id="paint0_linear_508_15919" x1="52.7855" y1="38.8468" x2="10.8292" y2="38.8468" gradientUnits="userSpaceOnUse">
<stop stop-color="#EF6498"/>
<stop offset="1" stop-color="#542D91"/>
</linearGradient>
<linearGradient id="paint1_linear_508_15919" x1="41.5595" y1="46.6543" x2="13.1023" y2="46.6543" gradientUnits="userSpaceOnUse">
<stop stop-color="#EF6498"/>
<stop offset="1" stop-color="#542D91"/>
</linearGradient>
<linearGradient id="paint2_linear_508_15919" x1="11.8529" y1="77.6933" x2="0" y2="77.6933" gradientUnits="userSpaceOnUse">
<stop stop-color="#EF6498"/>
<stop offset="1" stop-color="#542D91"/>
</linearGradient>
<linearGradient id="paint3_linear_508_15919" x1="49.7446" y1="58.5262" x2="11.0288" y2="58.5262" gradientUnits="userSpaceOnUse">
<stop stop-color="#EF6498"/>
<stop offset="1" stop-color="#542D91"/>
</linearGradient>
<linearGradient id="paint4_linear_508_15919" x1="7.69838" y1="77.2513" x2="4.15417" y2="77.2513" gradientUnits="userSpaceOnUse">
<stop stop-color="#EF6498"/>
<stop offset="1" stop-color="#542D91"/>
</linearGradient>
<linearGradient id="paint5_linear_508_15919" x1="38.4576" y1="52.6186" x2="13.2485" y2="52.6186" gradientUnits="userSpaceOnUse">
<stop stop-color="#EF6498"/>
<stop offset="1" stop-color="#542D91"/>
</linearGradient>
<linearGradient id="paint6_linear_508_15919" x1="61.2733" y1="27.0379" x2="49.549" y2="27.0379" gradientUnits="userSpaceOnUse">
<stop stop-color="#EF6498"/>
<stop offset="1" stop-color="#542D91"/>
</linearGradient>
<linearGradient id="paint7_linear_508_15919" x1="53.5832" y1="8.49673" x2="25.4376" y2="8.49673" gradientUnits="userSpaceOnUse">
<stop stop-color="#EF6498"/>
<stop offset="1" stop-color="#542D91"/>
</linearGradient>
<linearGradient id="paint8_linear_508_15919" x1="35.3476" y1="17.3559" x2="16.4661" y2="17.3559" gradientUnits="userSpaceOnUse">
<stop stop-color="#EF6498"/>
<stop offset="1" stop-color="#542D91"/>
</linearGradient>
<linearGradient id="paint9_linear_508_15919" x1="53.232" y1="26.1455" x2="24.8911" y2="26.1455" gradientUnits="userSpaceOnUse">
<stop stop-color="#EF6498"/>
<stop offset="1" stop-color="#542D91"/>
</linearGradient>
<linearGradient id="paint10_linear_508_15919" x1="33.4506" y1="57.1777" x2="12.0713" y2="57.1777" gradientUnits="userSpaceOnUse">
<stop stop-color="#EF6498"/>
<stop offset="1" stop-color="#542D91"/>
</linearGradient>
<linearGradient id="paint11_linear_508_15919" x1="46.1265" y1="82.6885" x2="34.2737" y2="82.6885" gradientUnits="userSpaceOnUse">
<stop stop-color="#EF6498"/>
<stop offset="1" stop-color="#542D91"/>
</linearGradient>
<linearGradient id="paint12_linear_508_15919" x1="41.9723" y1="82.2474" x2="38.4288" y2="82.2474" gradientUnits="userSpaceOnUse">
<stop stop-color="#EF6498"/>
<stop offset="1" stop-color="#542D91"/>
</linearGradient>
<linearGradient id="paint13_linear_508_15919" x1="62.5345" y1="61.1839" x2="48.1774" y2="61.1839" gradientUnits="userSpaceOnUse">
<stop stop-color="#EF6498"/>
<stop offset="1" stop-color="#542D91"/>
</linearGradient>
<linearGradient id="paint14_linear_508_15919" x1="73.5583" y1="67.7024" x2="61.7012" y2="67.7024" gradientUnits="userSpaceOnUse">
<stop stop-color="#EF6498"/>
<stop offset="1" stop-color="#542D91"/>
</linearGradient>
<linearGradient id="paint15_linear_508_15919" x1="69.4024" y1="67.2607" x2="65.8575" y2="67.2607" gradientUnits="userSpaceOnUse">
<stop stop-color="#EF6498"/>
<stop offset="1" stop-color="#542D91"/>
</linearGradient>
<linearGradient id="paint16_linear_508_15919" x1="11.4068" y1="69.1449" x2="6.99451" y2="69.1449" gradientUnits="userSpaceOnUse">
<stop stop-color="#EF6498"/>
<stop offset="1" stop-color="#542D91"/>
</linearGradient>
<linearGradient id="paint17_linear_508_15919" x1="67.9644" y1="49.9297" x2="60.6566" y2="49.9297" gradientUnits="userSpaceOnUse">
<stop stop-color="#EF6498"/>
<stop offset="1" stop-color="#542D91"/>
</linearGradient>
<linearGradient id="paint18_linear_508_15919" x1="39.131" y1="74.3429" x2="34.2792" y2="74.3429" gradientUnits="userSpaceOnUse">
<stop stop-color="#EF6498"/>
<stop offset="1" stop-color="#542D91"/>
</linearGradient>
<linearGradient id="paint19_linear_508_15919" x1="68.7996" y1="40.8385" x2="6.01929" y2="40.8385" gradientUnits="userSpaceOnUse">
<stop stop-color="#EF6498"/>
<stop offset="1" stop-color="#542D91"/>
</linearGradient>
</defs>
</svg>
