<svg width="93" height="88" viewBox="0 0 93 88" fill="none" xmlns="http://www.w3.org/2000/svg">
<path d="M92.6327 73.0919C92.6327 73.671 92.1982 74.25 91.6199 74.3946L55.871 86.8418C53.7 87.5655 51.5292 87.9999 49.3575 87.9999C47.4758 87.9999 45.5942 87.7107 43.713 87.1317L17.2267 79.171L17.2261 55.1445H22.4368C28.9503 55.1445 35.3185 57.1709 40.6737 61.0789H49.0682C52.2527 61.0789 55.1473 62.3816 57.1736 64.6971C58.9108 66.5788 59.9236 69.1843 60.0682 71.7889L63.3973 72.0781L82.6474 65.999C84.9629 65.2754 87.4237 65.7099 89.4501 67.1571C91.4764 68.4605 92.6345 70.6314 92.6345 73.0922L92.6327 73.0919Z" fill="url(#paint0_linear_508_15848)"/>
<path d="M14.3288 51.8155V81.9198C14.3288 82.6434 13.6052 83.3671 12.8816 83.3671L1.44728 83.3677C0.723642 83.3677 0 82.6441 0 81.9205V51.8145C0 51.0908 0.723642 50.3672 1.44728 50.3672H12.8816C13.6052 50.3672 14.3288 50.9462 14.3288 51.8145V51.8155Z" fill="url(#paint1_linear_508_15848)"/>
<path d="M62.8167 45.1576C63.1059 46.0258 62.8167 47.0393 62.0931 47.6184C61.3695 48.1974 60.3559 48.1974 59.6323 47.6184L46.6061 38.2105L33.7245 47.6184C33.0008 48.1974 31.9873 48.1974 31.2637 47.6184C30.54 47.0394 30.2508 46.1711 30.54 45.1576L35.461 29.9604L22.5793 20.5525C21.8557 19.9735 21.5665 19.1052 21.8557 18.0917C22.1449 17.2235 23.0138 16.6444 23.882 16.6444H39.8028L44.7237 1.44728C45.0129 0.579057 45.8818 0 46.75 0C47.7629 0 48.4873 0.57904 48.7764 1.44728L53.6973 16.6444H69.6181C70.4863 16.6444 71.3553 17.2235 71.6444 18.0917C71.9336 18.9599 71.6444 19.9734 70.9208 20.5525L57.896 29.9598L62.8167 45.1576Z" fill="url(#paint2_linear_508_15848)"/>
<path d="M90.8945 32.8553L84.2366 37.6316L86.8419 45.4469C87.131 46.1706 86.8419 47.0388 86.1182 47.4733C85.5392 47.9077 84.6709 47.9077 83.9472 47.4733L77.2892 42.697L70.6313 47.4733C70.0522 47.9077 69.184 47.9077 68.4603 47.4733C67.8812 47.0388 67.592 46.1706 67.7366 45.4469L70.3419 37.6316L63.6839 32.8553C63.1049 32.4208 62.8157 31.5526 62.9603 30.8289C63.2495 30.1053 63.9731 29.5263 64.6975 29.5263H72.9474L75.5527 21.7109C75.8418 20.9872 76.5655 20.4082 77.2899 20.4082C78.0135 20.4082 78.7371 20.9872 79.0271 21.7109L81.6324 29.5263H89.8822C90.6058 29.5263 91.3295 30.1053 91.6194 30.8289C91.7633 31.5526 91.6182 32.2762 90.8945 32.8553Z" fill="url(#paint3_linear_508_15848)"/>
<path d="M30.251 30.8289C30.5402 31.5526 30.251 32.4208 29.5273 32.8553L22.8694 37.6316L25.4747 45.4469C25.7638 46.1706 25.4747 47.0388 24.751 47.4733C24.172 47.9078 23.3037 47.9078 22.58 47.4733L15.922 42.697L9.26406 47.4733C8.68502 47.9078 7.81678 47.9078 7.09307 47.4733C6.51403 47.0388 6.22484 46.1706 6.36942 45.4469L8.97472 37.6316L2.31674 32.8553C1.5931 32.4208 1.44851 31.5526 1.5931 30.8289C2.02755 29.96 2.7512 29.5263 3.47479 29.5263H11.7246L14.3299 21.7109C14.6191 20.9872 15.3428 20.4082 16.0671 20.4082C16.7908 20.4082 17.5144 20.9872 17.8043 21.7109L20.2645 29.5263H28.5143C29.238 29.5263 29.9617 29.96 30.251 30.8289Z" fill="url(#paint4_linear_508_15848)"/>
<defs>
<linearGradient id="paint0_linear_508_15848" x1="92.6345" y1="73.3134" x2="17.2261" y2="73.3134" gradientUnits="userSpaceOnUse">
<stop stop-color="#EF6498"/>
<stop offset="1" stop-color="#542D91"/>
</linearGradient>
<linearGradient id="paint1_linear_508_15848" x1="14.3288" y1="68.6163" x2="0" y2="68.6163" gradientUnits="userSpaceOnUse">
<stop stop-color="#EF6498"/>
<stop offset="1" stop-color="#542D91"/>
</linearGradient>
<linearGradient id="paint2_linear_508_15848" x1="71.7552" y1="26.5729" x2="21.7449" y2="26.5729" gradientUnits="userSpaceOnUse">
<stop stop-color="#EF6498"/>
<stop offset="1" stop-color="#542D91"/>
</linearGradient>
<linearGradient id="paint3_linear_508_15848" x1="91.6693" y1="35.5553" x2="62.9235" y2="35.5553" gradientUnits="userSpaceOnUse">
<stop stop-color="#EF6498"/>
<stop offset="1" stop-color="#542D91"/>
</linearGradient>
<linearGradient id="paint4_linear_508_15848" x1="30.3618" y1="35.5553" x2="1.54272" y2="35.5553" gradientUnits="userSpaceOnUse">
<stop stop-color="#EF6498"/>
<stop offset="1" stop-color="#542D91"/>
</linearGradient>
</defs>
</svg>
