<svg width="87" height="88" viewBox="0 0 87 88" fill="none" xmlns="http://www.w3.org/2000/svg">
<path d="M6.50663 70.2603L1.48926 78.2891L11.5233 77.2843L6.50663 70.2603Z" fill="url(#paint0_linear_508_15811)"/>
<path d="M16.2472 46.7529L3.77612 53.4676L13.369 54.4273L16.2472 46.7529Z" fill="url(#paint1_linear_508_15811)"/>
<path d="M3.77673 81.2843L16.2478 87.999L13.3696 80.3247L3.77673 81.2843Z" fill="url(#paint2_linear_508_15811)"/>
<path d="M0 60.1357V74.6151L4.52548 67.3755L0 60.1357Z" fill="url(#paint3_linear_508_15811)"/>
<path d="M11.5227 57.467L1.48865 56.4644L6.50602 64.491L11.5227 57.467Z" fill="url(#paint4_linear_508_15811)"/>
<path d="M37.012 56.4644L26.978 57.467L31.9947 64.491L37.012 56.4644Z" fill="url(#paint5_linear_508_15811)"/>
<path d="M21.7492 54.5426L19.2513 47.8823L16.7533 54.5426H21.7492Z" fill="url(#paint6_linear_508_15811)"/>
<path d="M8.3877 67.3761L15.2614 77.0013H23.2372L30.1109 67.3761L23.2372 57.751H15.2614L8.3877 67.3761ZM19.2497 67.3761H22.458V70.5845H19.2497V67.3761ZM17.6455 65.772H14.4371V62.5636H17.6455V65.772Z" fill="url(#paint7_linear_508_15811)"/>
<path d="M17.6461 0H20.8545V16.042H17.6461V0Z" fill="url(#paint8_linear_508_15811)"/>
<path d="M25.1317 54.4273L34.7261 53.4676L22.2535 46.7529L25.1317 54.4273Z" fill="url(#paint9_linear_508_15811)"/>
<path d="M19.2503 35.2923C23.8202 35.2816 28.1156 33.1088 30.8306 29.432C33.5462 25.7559 34.3606 21.0113 33.0264 16.6406C31.6929 12.2691 28.3678 8.78788 24.0629 7.25391V10.7481C27.1574 12.2162 29.4134 15.0156 30.1882 18.3524C30.9638 21.6882 30.1739 25.196 28.0433 27.878C25.9135 30.56 22.6758 32.1233 19.2503 32.1233C15.8249 32.1233 12.5871 30.56 10.4573 27.878C8.32675 25.196 7.53675 21.6882 8.31245 18.3524C9.08734 15.0158 11.3432 12.2163 14.4377 10.7481V7.25391C10.133 8.78792 6.80781 12.2691 5.47421 16.6406C4.14002 21.0113 4.95429 25.7559 7.67004 29.432C10.3851 33.1088 14.6805 35.2815 19.2503 35.2923Z" fill="url(#paint10_linear_508_15811)"/>
<path d="M19.2504 86.8702L21.7484 80.21H16.7524L19.2504 86.8702Z" fill="url(#paint11_linear_508_15811)"/>
<path d="M26.978 77.2857L37.012 78.2884L31.9947 70.2617L26.978 77.2857Z" fill="url(#paint12_linear_508_15811)"/>
<path d="M38.5007 74.6161V60.1367L33.9752 67.3763L38.5007 74.6161Z" fill="url(#paint13_linear_508_15811)"/>
<path d="M22.2534 88.0001L34.726 81.2839L25.1316 80.3257L22.2534 88.0001Z" fill="url(#paint14_linear_508_15811)"/>
<path d="M59.6486 57.467L49.6146 56.4644L54.632 64.491L59.6486 57.467Z" fill="url(#paint15_linear_508_15811)"/>
<path d="M56.5135 67.3761L63.3872 77.0013H71.3631L78.2367 67.3761L71.3631 57.751H63.3872L56.5135 67.3761ZM67.3755 60.9594H70.5839V64.1678H67.3755V60.9594ZM64.1671 68.9803H60.9587V65.772H64.1671V68.9803Z" fill="url(#paint16_linear_508_15811)"/>
<path d="M69.8751 54.5426L67.3771 47.8823L64.8792 54.5426H69.8751Z" fill="url(#paint17_linear_508_15811)"/>
<path d="M67.3762 35.2923C71.946 35.2816 76.2414 33.1088 78.9564 29.432C81.672 25.7559 82.4864 21.0113 81.1523 16.6406C79.8188 12.2691 76.4937 8.78788 72.1888 7.25391V10.7481C75.2833 12.2162 77.5392 15.0156 78.314 18.3524C79.0896 21.6882 78.2997 25.196 76.1692 27.878C74.0394 30.56 70.8016 32.1233 67.3762 32.1233C63.9507 32.1233 60.713 30.56 58.5832 27.878C56.4526 25.196 55.6626 21.6882 56.4383 18.3524C57.2132 15.0158 59.469 12.2163 62.5636 10.7481V7.25391C58.2588 8.78792 54.9337 12.2691 53.6001 16.6406C52.2659 21.0113 53.0801 25.7559 55.7959 29.432C58.5109 33.1088 62.8063 35.2815 67.3762 35.2923Z" fill="url(#paint18_linear_508_15811)"/>
<path d="M65.772 0H68.9804V16.042H65.772V0Z" fill="url(#paint19_linear_508_15811)"/>
<path d="M85.1379 56.4644L75.1039 57.467L80.1205 64.491L85.1379 56.4644Z" fill="url(#paint20_linear_508_15811)"/>
<path d="M73.2576 54.4273L82.852 53.4676L70.3794 46.7529L73.2576 54.4273Z" fill="url(#paint21_linear_508_15811)"/>
<path d="M64.3732 46.7529L51.9021 53.4676L61.495 54.4273L64.3732 46.7529Z" fill="url(#paint22_linear_508_15811)"/>
<path d="M70.3793 88.0001L82.8518 81.2839L73.2575 80.3257L70.3793 88.0001Z" fill="url(#paint23_linear_508_15811)"/>
<path d="M75.1039 77.2857L85.1379 78.2884L80.1205 70.2617L75.1039 77.2857Z" fill="url(#paint24_linear_508_15811)"/>
<path d="M67.3761 86.8702L69.8741 80.21H64.8782L67.3761 86.8702Z" fill="url(#paint25_linear_508_15811)"/>
<path d="M82.1018 67.376L86.6273 74.6156V60.1362L82.1018 67.376Z" fill="url(#paint26_linear_508_15811)"/>
<path d="M51.9026 81.2843L64.3737 87.999L61.4955 80.3247L51.9026 81.2843Z" fill="url(#paint27_linear_508_15811)"/>
<path d="M54.6325 70.2603L49.6151 78.2891L59.6491 77.2843L54.6325 70.2603Z" fill="url(#paint28_linear_508_15811)"/>
<path d="M48.1259 60.1357V74.6151L52.6513 67.3755L48.1259 60.1357Z" fill="url(#paint29_linear_508_15811)"/>
<path d="M17.6461 38.501H20.8545V43.3136H17.6461V38.501Z" fill="url(#paint30_linear_508_15811)"/>
<path d="M65.772 38.501H68.9804V43.3136H65.772V38.501Z" fill="url(#paint31_linear_508_15811)"/>
<defs>
<linearGradient id="paint0_linear_508_15811" x1="11.5233" y1="74.7002" x2="1.48926" y2="74.7002" gradientUnits="userSpaceOnUse">
<stop stop-color="#EF6498"/>
<stop offset="1" stop-color="#542D91"/>
</linearGradient>
<linearGradient id="paint1_linear_508_15811" x1="16.2472" y1="50.9968" x2="3.77612" y2="50.9968" gradientUnits="userSpaceOnUse">
<stop stop-color="#EF6498"/>
<stop offset="1" stop-color="#542D91"/>
</linearGradient>
<linearGradient id="paint2_linear_508_15811" x1="16.2478" y1="84.5686" x2="3.77673" y2="84.5686" gradientUnits="userSpaceOnUse">
<stop stop-color="#EF6498"/>
<stop offset="1" stop-color="#542D91"/>
</linearGradient>
<linearGradient id="paint3_linear_508_15811" x1="4.52548" y1="68.1428" x2="0" y2="68.1428" gradientUnits="userSpaceOnUse">
<stop stop-color="#EF6498"/>
<stop offset="1" stop-color="#542D91"/>
</linearGradient>
<linearGradient id="paint4_linear_508_15811" x1="11.5227" y1="60.9031" x2="1.48865" y2="60.9031" gradientUnits="userSpaceOnUse">
<stop stop-color="#EF6498"/>
<stop offset="1" stop-color="#542D91"/>
</linearGradient>
<linearGradient id="paint5_linear_508_15811" x1="37.012" y1="60.903" x2="26.978" y2="60.903" gradientUnits="userSpaceOnUse">
<stop stop-color="#EF6498"/>
<stop offset="1" stop-color="#542D91"/>
</linearGradient>
<linearGradient id="paint6_linear_508_15811" x1="21.7492" y1="51.5654" x2="16.7533" y2="51.5654" gradientUnits="userSpaceOnUse">
<stop stop-color="#EF6498"/>
<stop offset="1" stop-color="#542D91"/>
</linearGradient>
<linearGradient id="paint7_linear_508_15811" x1="30.1109" y1="68.3963" x2="8.3877" y2="68.3963" gradientUnits="userSpaceOnUse">
<stop stop-color="#EF6498"/>
<stop offset="1" stop-color="#542D91"/>
</linearGradient>
<linearGradient id="paint8_linear_508_15811" x1="20.8545" y1="8.87113" x2="17.6461" y2="8.87113" gradientUnits="userSpaceOnUse">
<stop stop-color="#EF6498"/>
<stop offset="1" stop-color="#542D91"/>
</linearGradient>
<linearGradient id="paint9_linear_508_15811" x1="34.7261" y1="50.9968" x2="22.2535" y2="50.9968" gradientUnits="userSpaceOnUse">
<stop stop-color="#EF6498"/>
<stop offset="1" stop-color="#542D91"/>
</linearGradient>
<linearGradient id="paint10_linear_508_15811" x1="33.6554" y1="22.759" x2="4.84521" y2="22.759" gradientUnits="userSpaceOnUse">
<stop stop-color="#EF6498"/>
<stop offset="1" stop-color="#542D91"/>
</linearGradient>
<linearGradient id="paint11_linear_508_15811" x1="21.7484" y1="83.893" x2="16.7524" y2="83.893" gradientUnits="userSpaceOnUse">
<stop stop-color="#EF6498"/>
<stop offset="1" stop-color="#542D91"/>
</linearGradient>
<linearGradient id="paint12_linear_508_15811" x1="37.012" y1="74.7004" x2="26.978" y2="74.7004" gradientUnits="userSpaceOnUse">
<stop stop-color="#EF6498"/>
<stop offset="1" stop-color="#542D91"/>
</linearGradient>
<linearGradient id="paint13_linear_508_15811" x1="38.5007" y1="68.1437" x2="33.9752" y2="68.1437" gradientUnits="userSpaceOnUse">
<stop stop-color="#EF6498"/>
<stop offset="1" stop-color="#542D91"/>
</linearGradient>
<linearGradient id="paint14_linear_508_15811" x1="34.726" y1="84.5696" x2="22.2534" y2="84.5696" gradientUnits="userSpaceOnUse">
<stop stop-color="#EF6498"/>
<stop offset="1" stop-color="#542D91"/>
</linearGradient>
<linearGradient id="paint15_linear_508_15811" x1="59.6486" y1="60.9031" x2="49.6146" y2="60.9031" gradientUnits="userSpaceOnUse">
<stop stop-color="#EF6498"/>
<stop offset="1" stop-color="#542D91"/>
</linearGradient>
<linearGradient id="paint16_linear_508_15811" x1="78.2367" y1="68.3963" x2="56.5135" y2="68.3963" gradientUnits="userSpaceOnUse">
<stop stop-color="#EF6498"/>
<stop offset="1" stop-color="#542D91"/>
</linearGradient>
<linearGradient id="paint17_linear_508_15811" x1="69.8751" y1="51.5654" x2="64.8792" y2="51.5654" gradientUnits="userSpaceOnUse">
<stop stop-color="#EF6498"/>
<stop offset="1" stop-color="#542D91"/>
</linearGradient>
<linearGradient id="paint18_linear_508_15811" x1="81.7812" y1="22.759" x2="52.9711" y2="22.759" gradientUnits="userSpaceOnUse">
<stop stop-color="#EF6498"/>
<stop offset="1" stop-color="#542D91"/>
</linearGradient>
<linearGradient id="paint19_linear_508_15811" x1="68.9804" y1="8.87113" x2="65.772" y2="8.87113" gradientUnits="userSpaceOnUse">
<stop stop-color="#EF6498"/>
<stop offset="1" stop-color="#542D91"/>
</linearGradient>
<linearGradient id="paint20_linear_508_15811" x1="85.1379" y1="60.903" x2="75.1039" y2="60.903" gradientUnits="userSpaceOnUse">
<stop stop-color="#EF6498"/>
<stop offset="1" stop-color="#542D91"/>
</linearGradient>
<linearGradient id="paint21_linear_508_15811" x1="82.852" y1="50.9968" x2="70.3794" y2="50.9968" gradientUnits="userSpaceOnUse">
<stop stop-color="#EF6498"/>
<stop offset="1" stop-color="#542D91"/>
</linearGradient>
<linearGradient id="paint22_linear_508_15811" x1="64.3732" y1="50.9968" x2="51.9021" y2="50.9968" gradientUnits="userSpaceOnUse">
<stop stop-color="#EF6498"/>
<stop offset="1" stop-color="#542D91"/>
</linearGradient>
<linearGradient id="paint23_linear_508_15811" x1="82.8518" y1="84.5696" x2="70.3793" y2="84.5696" gradientUnits="userSpaceOnUse">
<stop stop-color="#EF6498"/>
<stop offset="1" stop-color="#542D91"/>
</linearGradient>
<linearGradient id="paint24_linear_508_15811" x1="85.1379" y1="74.7004" x2="75.1039" y2="74.7004" gradientUnits="userSpaceOnUse">
<stop stop-color="#EF6498"/>
<stop offset="1" stop-color="#542D91"/>
</linearGradient>
<linearGradient id="paint25_linear_508_15811" x1="69.8741" y1="83.893" x2="64.8782" y2="83.893" gradientUnits="userSpaceOnUse">
<stop stop-color="#EF6498"/>
<stop offset="1" stop-color="#542D91"/>
</linearGradient>
<linearGradient id="paint26_linear_508_15811" x1="86.6273" y1="68.1433" x2="82.1018" y2="68.1433" gradientUnits="userSpaceOnUse">
<stop stop-color="#EF6498"/>
<stop offset="1" stop-color="#542D91"/>
</linearGradient>
<linearGradient id="paint27_linear_508_15811" x1="64.3737" y1="84.5686" x2="51.9026" y2="84.5686" gradientUnits="userSpaceOnUse">
<stop stop-color="#EF6498"/>
<stop offset="1" stop-color="#542D91"/>
</linearGradient>
<linearGradient id="paint28_linear_508_15811" x1="59.6491" y1="74.7002" x2="49.6151" y2="74.7002" gradientUnits="userSpaceOnUse">
<stop stop-color="#EF6498"/>
<stop offset="1" stop-color="#542D91"/>
</linearGradient>
<linearGradient id="paint29_linear_508_15811" x1="52.6513" y1="68.1428" x2="48.1259" y2="68.1428" gradientUnits="userSpaceOnUse">
<stop stop-color="#EF6498"/>
<stop offset="1" stop-color="#542D91"/>
</linearGradient>
<linearGradient id="paint30_linear_508_15811" x1="20.8545" y1="41.1623" x2="17.6461" y2="41.1623" gradientUnits="userSpaceOnUse">
<stop stop-color="#EF6498"/>
<stop offset="1" stop-color="#542D91"/>
</linearGradient>
<linearGradient id="paint31_linear_508_15811" x1="68.9804" y1="41.1623" x2="65.772" y2="41.1623" gradientUnits="userSpaceOnUse">
<stop stop-color="#EF6498"/>
<stop offset="1" stop-color="#542D91"/>
</linearGradient>
</defs>
</svg>
