<svg width="102" height="88" viewBox="0 0 102 88" fill="none" xmlns="http://www.w3.org/2000/svg">
<path d="M25.4209 29.5074H26.6857C30.3196 29.5074 33.2749 26.552 33.2749 22.9189V18.999H18.8333V22.9189C18.8333 26.5513 21.7878 29.5074 25.4209 29.5074Z" fill="url(#paint0_linear_508_15858)"/>
<path d="M87.541 15.2873L84.3113 4.78485C83.4441 1.96763 80.4063 0 76.9232 0H69.9937L72.77 15.2865L87.541 15.2873Z" fill="url(#paint1_linear_508_15858)"/>
<path d="M54.921 22.9194C54.921 26.5525 57.8756 29.5078 61.5088 29.5078H62.7743C66.4074 29.5078 69.3628 26.5525 69.3628 22.9194V18.9995H54.9218L54.921 22.9194Z" fill="url(#paint2_linear_508_15858)"/>
<path d="M88.1954 22.6038V19.0005H73.0746V22.6038C73.0746 26.4116 76.1726 29.5088 79.9796 29.5088H81.2912C85.099 29.5088 88.1954 26.4116 88.1954 22.6038Z" fill="url(#paint3_linear_508_15858)"/>
<path d="M68.9985 15.2873L66.2207 0H53.8923L54.8123 15.2873H68.9985Z" fill="url(#paint4_linear_508_15858)"/>
<path d="M8.21579 29.5074C12.0236 29.5074 15.1201 26.4101 15.1201 22.6023V18.999H0V22.6023C0 26.4101 3.09726 29.5074 6.90429 29.5074H8.21579Z" fill="url(#paint5_linear_508_15858)"/>
<path d="M50.1727 0.000976562H38.0213L37.1013 15.2883H51.0927L50.1727 0.000976562Z" fill="url(#paint6_linear_508_15858)"/>
<path d="M18.2071 0.000976562H11.2752C7.79083 0.000976562 4.75217 1.96727 3.8864 4.78374L0.656738 15.2885H15.4291L18.2071 0.000976562Z" fill="url(#paint7_linear_508_15858)"/>
<path d="M34.3012 0.000976562H21.9795L19.2024 15.2883H33.381L34.3012 0.000976562Z" fill="url(#paint8_linear_508_15858)"/>
<path d="M43.4725 29.5076H44.7217C48.2975 29.5076 51.2076 26.5975 51.2076 23.0216V18.999H36.9858V23.0216C36.9858 26.5975 39.8958 29.5076 43.4725 29.5076Z" fill="url(#paint9_linear_508_15858)"/>
<path d="M21.2699 56.9815V60.5507C21.2699 61.0501 21.6742 61.4536 22.1735 61.4536C22.6729 61.4536 23.0772 61.0494 23.0772 60.5507V56.9815C23.0772 56.4821 22.6729 56.0786 22.1735 56.0786C21.6742 56.0786 21.2699 56.4821 21.2699 56.9815Z" fill="url(#paint10_linear_508_15858)"/>
<path d="M50.9184 76.5205H2.54858V83.0287H56.7815C54.3693 81.2081 52.3942 78.9913 50.9184 76.5205Z" fill="url(#paint11_linear_508_15858)"/>
<path d="M10.0173 32.6178V73.3134H18.7452V42.1678H39.8235V73.3134H49.3392C48.394 70.8968 47.8872 68.3153 47.8872 65.6661V56.3073C47.8872 53.9992 49.8067 52.1206 52.166 52.1206H57.2185C56.9837 51.3738 56.951 50.5838 57.1293 49.8429C57.2728 49.2469 57.5477 48.6806 57.9289 48.1895C56.0719 44.8314 57.2192 41.3685 59.2264 39.3872C60.9088 37.727 63.6331 37.6349 65.4291 39.1783C66.164 39.8085 66.6664 40.6616 66.8655 41.5883C67.2363 40.779 67.7536 40.0292 68.403 39.3888C70.0847 37.7279 72.8089 37.6365 74.6052 39.1777C75.3408 39.8086 75.8439 40.6617 76.0423 41.5891C76.4132 40.7799 76.9304 40.0294 77.5806 39.3881C77.7664 39.2046 77.9685 39.0485 78.1773 38.9036V32.6206C75.2547 32.09 72.7704 30.3132 71.2812 27.855C69.5683 30.7978 66.4153 32.8019 62.7719 32.8019H61.5071C57.9284 32.8019 54.8176 30.8699 53.084 28.014C51.374 30.8683 48.2827 32.8019 44.7202 32.8019H43.471C39.9084 32.8019 36.8165 30.8676 35.1072 28.014C33.3735 30.8714 30.262 32.8019 26.6825 32.8019H25.4178C21.7751 32.8019 18.6219 30.7978 16.9084 27.855C15.4207 30.3109 12.938 32.0862 10.0175 32.6183L10.0173 32.6178Z" fill="url(#paint12_linear_508_15858)"/>
<path d="M60.7936 49.7453C60.1285 50.119 59.9182 50.9186 60.324 51.531C60.59 51.9322 61.0537 52.1537 61.53 52.1537C61.7805 52.1537 62.0339 52.092 62.2628 51.9627C62.4597 51.8527 64.1948 50.8317 64.5249 49.072C64.6601 48.3505 64.5984 47.2366 63.538 46.032C62.3787 44.7152 63.2007 43.6571 63.4838 43.3613C64.0047 42.8367 63.9705 42.0215 63.4043 41.5355C62.835 41.0465 61.9418 41.0747 61.4106 41.5994C60.4103 42.587 59.1091 45.1269 61.3459 47.6683C61.8193 48.2063 61.7635 48.5199 61.745 48.6232C61.6543 49.1397 61.0039 49.6226 60.7936 49.7453Z" fill="url(#paint13_linear_508_15858)"/>
<path d="M69.9707 49.7453C69.3056 50.119 69.0953 50.9186 69.501 51.531C69.7663 51.9322 70.2307 52.1537 70.7063 52.1537C70.9568 52.1537 71.2102 52.092 71.4398 51.9627C71.6367 51.8527 73.3711 50.8317 73.7011 49.072C73.8364 48.3505 73.7747 47.2366 72.7143 46.032C71.555 44.7152 72.3769 43.6571 72.66 43.3613C73.181 42.8367 73.1468 42.0215 72.5805 41.5355C72.0106 41.0465 71.1181 41.0747 70.5861 41.5994C69.5858 42.587 68.2846 45.1269 70.5222 47.6683C70.9955 48.2063 70.9398 48.5199 70.9212 48.6232C70.8313 49.1397 70.1817 49.6226 69.9707 49.7453Z" fill="url(#paint14_linear_508_15858)"/>
<path d="M79.1477 49.7455C78.4826 50.1193 78.2723 50.9189 78.6781 51.5312C78.9441 51.9325 79.4078 52.1539 79.8841 52.1539C80.1346 52.1539 80.3879 52.0922 80.6176 51.9629C80.8145 51.8529 82.5489 50.8319 82.8789 49.0723C83.0142 48.3507 82.9525 47.2368 81.8921 46.0323C80.7328 44.7155 81.5547 43.6573 81.8378 43.3615C82.3588 42.8369 82.3246 42.0217 81.7583 41.5357C81.1891 41.0467 80.2959 41.0757 79.7646 41.5996C78.7637 42.5872 77.4624 45.1272 79.7 47.6685C80.1733 48.2066 80.1176 48.5202 80.099 48.6234C80.0076 49.1399 79.358 49.6229 79.1477 49.7455Z" fill="url(#paint15_linear_508_15858)"/>
<path d="M94.9127 57.0048H92.8014V56.3085C92.8014 55.7125 92.2768 55.2295 91.6303 55.2295L52.1655 55.2302C51.519 55.2302 50.9944 55.7125 50.9944 56.3092V65.668C50.9944 74.523 57.4906 81.9749 66.333 84.2192C62.8085 84.908 59.6791 86.2323 57.2359 88.0001H86.561C84.1176 86.2315 80.9884 84.908 77.4638 84.2192C83.9505 82.5732 89.1739 78.1242 91.4961 72.3731C96.946 72.0305 101.26 67.8171 101.206 62.7029C101.171 59.5402 98.3477 57.0048 94.913 57.0048L94.9127 57.0048ZM59.0624 74.2384C58.8722 74.3625 58.653 74.4227 58.436 74.4227C58.0971 74.4227 57.7635 74.2763 57.5524 74.0029C55.8938 71.8515 55.0169 69.2536 55.0169 66.4915V59.5939C55.0169 59.0433 55.5015 58.5966 56.1004 58.5966C56.6986 58.5966 57.1831 59.0433 57.1831 59.5939V66.4915C57.1831 68.8383 57.9218 71.0365 59.3189 72.8489C59.6652 73.297 59.5499 73.9196 59.0624 74.2384ZM92.5861 68.8479V68.4168C92.7258 67.5192 92.8016 66.6022 92.8016 65.6681V60.331H94.9128C96.3901 60.331 97.5925 61.4382 97.5925 62.7982C97.5925 65.6576 95.5243 68.1107 92.5861 68.8479Z" fill="url(#paint16_linear_508_15858)"/>
<defs>
<linearGradient id="paint0_linear_508_15858" x1="33.2749" y1="24.8101" x2="18.8333" y2="24.8101" gradientUnits="userSpaceOnUse">
<stop stop-color="#EF6498"/>
<stop offset="1" stop-color="#542D91"/>
</linearGradient>
<linearGradient id="paint1_linear_508_15858" x1="87.541" y1="8.4538" x2="69.9937" y2="8.4538" gradientUnits="userSpaceOnUse">
<stop stop-color="#EF6498"/>
<stop offset="1" stop-color="#542D91"/>
</linearGradient>
<linearGradient id="paint2_linear_508_15858" x1="69.3628" y1="24.8106" x2="54.921" y2="24.8106" gradientUnits="userSpaceOnUse">
<stop stop-color="#EF6498"/>
<stop offset="1" stop-color="#542D91"/>
</linearGradient>
<linearGradient id="paint3_linear_508_15858" x1="88.1955" y1="24.8115" x2="73.0746" y2="24.8115" gradientUnits="userSpaceOnUse">
<stop stop-color="#EF6498"/>
<stop offset="1" stop-color="#542D91"/>
</linearGradient>
<linearGradient id="paint4_linear_508_15858" x1="68.9985" y1="8.4538" x2="53.8923" y2="8.4538" gradientUnits="userSpaceOnUse">
<stop stop-color="#EF6498"/>
<stop offset="1" stop-color="#542D91"/>
</linearGradient>
<linearGradient id="paint5_linear_508_15858" x1="15.1201" y1="24.8101" x2="0" y2="24.8101" gradientUnits="userSpaceOnUse">
<stop stop-color="#EF6498"/>
<stop offset="1" stop-color="#542D91"/>
</linearGradient>
<linearGradient id="paint6_linear_508_15858" x1="51.0927" y1="8.45478" x2="37.1013" y2="8.45478" gradientUnits="userSpaceOnUse">
<stop stop-color="#EF6498"/>
<stop offset="1" stop-color="#542D91"/>
</linearGradient>
<linearGradient id="paint7_linear_508_15858" x1="18.2071" y1="8.45488" x2="0.656738" y2="8.45488" gradientUnits="userSpaceOnUse">
<stop stop-color="#EF6498"/>
<stop offset="1" stop-color="#542D91"/>
</linearGradient>
<linearGradient id="paint8_linear_508_15858" x1="34.3012" y1="8.45478" x2="19.2024" y2="8.45478" gradientUnits="userSpaceOnUse">
<stop stop-color="#EF6498"/>
<stop offset="1" stop-color="#542D91"/>
</linearGradient>
<linearGradient id="paint9_linear_508_15858" x1="51.2076" y1="24.8102" x2="36.9858" y2="24.8102" gradientUnits="userSpaceOnUse">
<stop stop-color="#EF6498"/>
<stop offset="1" stop-color="#542D91"/>
</linearGradient>
<linearGradient id="paint10_linear_508_15858" x1="23.0772" y1="59.051" x2="21.2699" y2="59.051" gradientUnits="userSpaceOnUse">
<stop stop-color="#EF6498"/>
<stop offset="1" stop-color="#542D91"/>
</linearGradient>
<linearGradient id="paint11_linear_508_15858" x1="56.7815" y1="80.1195" x2="2.54858" y2="80.1195" gradientUnits="userSpaceOnUse">
<stop stop-color="#EF6498"/>
<stop offset="1" stop-color="#542D91"/>
</linearGradient>
<linearGradient id="paint12_linear_508_15858" x1="78.1773" y1="52.9933" x2="10.0173" y2="52.9933" gradientUnits="userSpaceOnUse">
<stop stop-color="#EF6498"/>
<stop offset="1" stop-color="#542D91"/>
</linearGradient>
<linearGradient id="paint13_linear_508_15858" x1="64.5772" y1="47.2513" x2="60.1141" y2="47.2513" gradientUnits="userSpaceOnUse">
<stop stop-color="#EF6498"/>
<stop offset="1" stop-color="#542D91"/>
</linearGradient>
<linearGradient id="paint14_linear_508_15858" x1="73.7535" y1="47.2513" x2="69.2898" y2="47.2513" gradientUnits="userSpaceOnUse">
<stop stop-color="#EF6498"/>
<stop offset="1" stop-color="#542D91"/>
</linearGradient>
<linearGradient id="paint15_linear_508_15858" x1="82.9313" y1="47.2517" x2="78.4677" y2="47.2517" gradientUnits="userSpaceOnUse">
<stop stop-color="#EF6498"/>
<stop offset="1" stop-color="#542D91"/>
</linearGradient>
<linearGradient id="paint16_linear_508_15858" x1="101.206" y1="73.3515" x2="50.9944" y2="73.3515" gradientUnits="userSpaceOnUse">
<stop stop-color="#EF6498"/>
<stop offset="1" stop-color="#542D91"/>
</linearGradient>
</defs>
</svg>
