<svg width="76" height="88" viewBox="0 0 76 88" fill="none" xmlns="http://www.w3.org/2000/svg">
<path fill-rule="evenodd" clip-rule="evenodd" d="M4.16167 81.1662C19.467 35.7679 60.8742 56.8642 75.3501 12.8456C75.3501 12.8456 66.4857 43.8261 47.7387 53.7245C59.9092 49.052 69.4211 42.7017 75.3313 29.4319C73.0945 61.7811 47.0536 88.3177 13.8652 87.9971C62.1706 79.2046 68.3542 50.0568 40.9015 58.6399C52.8479 79.8697 24.3874 89.4664 18.2117 70.4488C14.7785 72.3609 9.25652 80.0706 6.29408 87.7988C10.3128 71.7861 14.1212 71.0711 16.2057 66.7198C11.3379 71.7618 9.91448 73.445 4.16214 81.1682L4.16167 81.1662ZM0.0115492 72.1784C-0.975491 43.368 61.6175 28.8953 67.7444 0C65.0699 30.682 11.5819 50.6484 0.0115492 72.1784ZM32.7536 61.6573C30.3216 62.7174 27.66 64.0353 24.9739 65.6515C26.6902 72.1472 36.9086 68.625 32.7536 61.6573Z" fill="url(#paint0_linear_508_15806)"/>
<defs>
<linearGradient id="paint0_linear_508_15806" x1="75.3501" y1="48.6636" x2="0" y2="48.6636" gradientUnits="userSpaceOnUse">
<stop stop-color="#EF6498"/>
<stop offset="1" stop-color="#542D91"/>
</linearGradient>
</defs>
</svg>
