<svg xmlns="http://www.w3.org/2000/svg" width="1644" height="200" viewBox="0 0 1644 200">
  <g id="Group_161" data-name="Group 161" transform="translate(-138 -1823)">
    <rect id="Rectangle_83" data-name="Rectangle 83" width="1644" height="200" rx="8" transform="translate(138 1823)" fill="#fbf0f5"/>
    <g id="Group_65" data-name="Group 65" transform="translate(799 1884)">
      <g id="Group_71" data-name="Group 71">
        <path id="Path_45" data-name="Path 45" d="M69.4,202.785c-6.195,0-11.521-3.9-12.822-11.007a50.15,50.15,0,0,1-.26-6.977V178.69h2.686v10.055c0,5.98,3.6,12.61,10.441,12.61a9.818,9.818,0,0,0,3.724-.693c2.685-1.17,6.887-4.466,6.887-11.44V166.946h2.686v21.972c0,7.454-5.416,13.867-13.341,13.867" transform="translate(-56.323 -159.235)" fill="#6e4091"/>
        <path id="Path_46" data-name="Path 46" d="M80.7,174.224c-.955-3.466-5.2-3.466-5.2-3.466-3.423,0-5.676,3.985-5.676,9.923,0,3.684,1.388,8.278,5.589,8.362a8.5,8.5,0,0,0,5.285-2.164Zm-5.07,23.011c3.076,0,5.112-2.167,5.112-4.508v-4.5a9.144,9.144,0,0,1-5.845,1.731c-5.634,0-7.97-4.764-7.97-9.837,0-7.019,3.9-10.658,8.662-10.658,3.551,0,7.752,1.212,7.752,5.63v13.088c0,3.209-.087,10.269-8.057,10.269-.26,0-3.551,0-5.631-1.472v-2.167c1.6,1.907,3.2,2.427,5.977,2.427" transform="translate(-35.297 -154.246)" fill="#6e4091"/>
        <path id="Path_47" data-name="Path 47" d="M77.733,172.077h2.686v22.36H77.733Zm3.593-2.123H76.041l.609-1.128h1.17a2.413,2.413,0,0,1-.782-1.818,2.591,2.591,0,0,1,2.73-2.645,5.382,5.382,0,0,1,1.6.3v1.517a1.485,1.485,0,0,0-1.212-.866,1.648,1.648,0,0,0-1.692,1.732,1.839,1.839,0,0,0,2.038,1.821,2.848,2.848,0,0,0,1.253-.26ZM84.142,199.9H74.179v-2.642h9.226a3.4,3.4,0,0,0,3.682-3.684V172.077h2.686v22.4c0,4.03-3.076,5.415-5.631,5.415" transform="translate(-20.897 -164.363)" fill="#6e4091"/>
        <rect id="Rectangle_73" data-name="Rectangle 73" width="2.686" height="27.82" transform="translate(75.246 7.717)" fill="#6e4091"/>
        <path id="Path_48" data-name="Path 48" d="M99.3,170.628a1.82,1.82,0,1,1,0-3.639,1.82,1.82,0,1,1,0,3.639m-6.412,0a1.848,1.848,0,0,1-1.862-1.863,1.841,1.841,0,0,1,3.682,0,1.839,1.839,0,0,1-1.82,1.863m2.948,4.639c-2.512,0-6.281,2.209-6.281,9.272,0,6.586,3.682,9.577,6.281,9.577s6.41-2.815,6.41-9.577c0-7.063-3.9-9.272-6.41-9.272m.128,20.02c-5.2,0-9.441-3.511-9.441-10.529,0-5.765,4.243-10.487,9.441-10.487s9.444,3.812,9.444,10.487c0,5.806-4.246,10.529-9.444,10.529" transform="translate(3.585 -159.233)" fill="#6e4091"/>
        <path id="Path_49" data-name="Path 49" d="M96.467,172.077h2.685V199.9H96.467Zm3.6-2.123H94.778l.609-1.125h1.17a2.425,2.425,0,0,1-.782-1.821,2.592,2.592,0,0,1,2.73-2.645,5.382,5.382,0,0,1,1.6.3v1.517a1.486,1.486,0,0,0-1.214-.866A1.649,1.649,0,0,0,97.2,167.05a1.838,1.838,0,0,0,2.035,1.821,2.852,2.852,0,0,0,1.256-.26Z" transform="translate(19.97 -164.363)" fill="#6e4091"/>
        <path id="Path_50" data-name="Path 50" d="M111.034,188.341a6.806,6.806,0,0,1-5.5-2.988v5.807a5.545,5.545,0,0,1-5.846,5.848,11.109,11.109,0,0,1-1.775-.173l-.737-1.6a3.925,3.925,0,0,0,5.717-3.466V170.184h2.641v11.959c.218,1.735,3.163,3.555,4.81,3.555h1.17v2.642Z" transform="translate(24.724 -152.806)" fill="#6e4091"/>
        <rect id="Rectangle_74" data-name="Rectangle 74" width="9.182" height="2.645" transform="translate(135.588 32.892)" fill="#6e4091"/>
        <rect id="Rectangle_75" data-name="Rectangle 75" width="9.182" height="2.645" transform="translate(144.167 32.892)" fill="#6e4091"/>
        <path id="Path_51" data-name="Path 51" d="M125.876,180.036c0-6.762-3.032-8.839-5.458-8.839-2.384,0-6.022,2.167-6.022,8.926,0,.346-.215,9.144,6.195,9.144,2.253,0,5.285-2.687,5.285-9.231M107.51,185.5h5.371a13.07,13.07,0,0,1-1.343-5.159c0-5.544,4.028-10.052,9.009-10.052s9.1,3.639,9.1,10.052a10.687,10.687,0,0,1-1.256,5.159h5.717v2.642H126.4a8.469,8.469,0,0,1-5.717,2.081,8.348,8.348,0,0,1-5.848-2.081h-7.32Z" transform="translate(45.23 -152.604)" fill="#6e4091"/>
        <path id="Path_52" data-name="Path 52" d="M119.527,194.767h-3.641v-2.642H119.4c1.561,0,3.509-.564,3.509-3.684V166.947h2.686v22.4c0,4.332-3.423,5.415-6.063,5.415" transform="translate(61.848 -159.233)" fill="#6e4091"/>
        <rect id="Rectangle_76" data-name="Rectangle 76" width="2.686" height="27.82" transform="translate(193.808 7.717)" fill="#6e4091"/>
        <path id="Path_53" data-name="Path 53" d="M149.166,190.991c-5.977,0-6.932-3.9-7.579-9.49h-5.458c-4.634,0-6.627,3.12-6.627,6.675,0,4.723,3.506,10.183,9.009,10.183a10.883,10.883,0,0,0,5.329-1.561l-4.073,2.86c-9.009,0-13.515-6.239-13.515-12.046,0-4.2,2.426-8.016,7.278-8.711-2.6-1.558-3.769-3.248-3.769-4.809,0-2.732,3.593-5.242,9.14-5.242a13.706,13.706,0,0,1,5.153.994v2.126a5.406,5.406,0,0,0-4.159-2.126c-4.115,0-7.275,2.645-7.275,5.072,0,2.036,2.166,3.9,7.711,3.9a35.869,35.869,0,0,0,4.721-.26l-1.17,2.947h-.865c0,3.338,1.429,6.848,5.458,6.848h.865v2.642Z" transform="translate(82.413 -155.457)" fill="#6e4091"/>
        <rect id="Rectangle_77" data-name="Rectangle 77" width="9.182" height="2.645" transform="translate(230.976 32.892)" fill="#6e4091"/>
        <rect id="Rectangle_78" data-name="Rectangle 78" width="9.182" height="2.645" transform="translate(239.555 32.892)" fill="#6e4091"/>
        <rect id="Rectangle_79" data-name="Rectangle 79" width="9.182" height="2.645" transform="translate(248.128 32.892)" fill="#6e4091"/>
        <path id="Path_54" data-name="Path 54" d="M153.253,170.631a1.876,1.876,0,0,1-1.862-1.863,1.9,1.9,0,0,1,1.862-1.821,1.842,1.842,0,1,1,0,3.684m-2.727,4.376a3.5,3.5,0,0,0-3.381,3.639c0,4.941,6.195,6.024,8.707,8.929a8.1,8.1,0,0,0,.391-2.776c0-5.547-2.513-9.792-5.717-9.792m-3.118-4.376a1.841,1.841,0,0,1-1.82-1.863,1.86,1.86,0,0,1,1.82-1.821,1.842,1.842,0,1,1,0,3.684m2.814,24.137h-8.015v-2.642h8.361c2.859,0,4.029-1.69,4.894-3.684-2.51-2.773-11.085-4.335-11.085-9.664,0-2.6,2.51-4.767,6.234-4.767,5.547,0,8.492,5.2,8.492,10.66,0,5.678-3.6,10.1-8.88,10.1" transform="translate(114.065 -159.233)" fill="#6e4091"/>
        <path id="Path_55" data-name="Path 55" d="M163.356,174.255c-.955-3.466-5.2-3.466-5.2-3.466-3.423,0-5.675,3.985-5.675,9.923,0,3.684,1.388,8.275,5.589,8.362a8.5,8.5,0,0,0,5.285-2.164Zm7.926,15.557a6.591,6.591,0,0,1-5.326-2.642c0,5.72-.606,11.18-8.057,11.18h-.087c-.606,0-3.813-.045-5.544-1.475v-2.167c1.6,1.949,3.2,2.427,5.977,2.427a4.673,4.673,0,0,0,5.025-4.681v-4.2s-1.865,1.731-5.762,1.731c-5.631,0-7.97-4.768-7.97-9.837,0-7.018,3.9-10.705,8.666-10.705,3.593,0,7.752,1.3,7.752,5.678v9.1c.564.952,2.426,2.988,4.634,2.988.952,0,2.381-.042,2.381-.042v2.642Z" transform="translate(128.61 -154.278)" fill="#6e4091"/>
        <path id="Path_56" data-name="Path 56" d="M170.946,189.782H156.7V187.14H170.77c2.471,0,5.5-1.343,5.5-7.8,0-6.717-3.073-8.929-5.458-8.929-2.292,0-5.846,1.994-5.846,8.323a5.223,5.223,0,0,0,1.689,3.985,2.344,2.344,0,0,1-1.993,1.084c-2.554,0-2.811-3.033-2.811-4.248,0-5.547,4.067-10.1,9.1-10.1,4.977,0,9.053,3.812,9.053,10.228,0,5.5-4.076,10.1-9.053,10.1" transform="translate(142.811 -154.248)" fill="#6e4091"/>
        <path id="Path_57" data-name="Path 57" d="M64.734,204.808v-20l-6.663-.1.212-1.567H74.336l-.212,1.5-6.451.167v20Z" transform="translate(-52.856 -127.089)" fill="#6e4091"/>
        <path id="Path_58" data-name="Path 58" d="M90.442,195.821l-3.6-10.114-3.766,10.114Zm3.151,9.353-2.706-7.935-8.334.1-2.921,7.831H77.474l8.588-21.479,2.539-.74,8.039,22.22Z" transform="translate(-14.36 -127.454)" fill="#6e4091"/>
        <path id="Path_59" data-name="Path 59" d="M98.651,204.808V183.138h2.939v20.02h8.23l-.212,1.651Z" transform="translate(27.654 -127.089)" fill="#6e4091"/>
        <path id="Path_60" data-name="Path 60" d="M117.567,204.808V183.138h2.939v20.02h8.227l-.212,1.651Z" transform="translate(65.182 -127.089)" fill="#6e4091"/>
        <path id="Path_61" data-name="Path 61" d="M148.575,195.821l-3.6-10.114-3.766,10.114Zm3.151,9.353-2.706-7.935-8.334.1-2.918,7.831H135.61l8.585-21.479,2.539-.74,8.039,22.22Z" transform="translate(100.979 -127.454)" fill="#6e4091"/>
        <path id="Path_62" data-name="Path 62" d="M171.634,204.808V194.736H159.725v10.073h-2.939V183.138h2.939v10.01h11.909v-10.01h2.939v21.671Z" transform="translate(142.991 -127.089)" fill="#6e4091"/>
      </g>
    </g>
    <text id="مساحة_إعلانية" data-name="مساحة إعلانية" transform="translate(1492 1931)" fill="#322b45" font-size="28" font-family="BahijTheSansArabic-SemiLight, Bahij TheSansArabic" font-weight="300"><tspan x="-81" y="0">مساحة إعلانية</tspan></text>
    <text id="مساحة_إعلانية-2" data-name="مساحة إعلانية" transform="translate(429 1931)" fill="#322b45" font-size="28" font-family="BahijTheSansArabic-SemiLight, Bahij TheSansArabic" font-weight="300"><tspan x="-81" y="0">مساحة إعلانية</tspan></text>
  </g>
</svg>
