<svg xmlns="http://www.w3.org/2000/svg" width="23.996" height="24" viewBox="0 0 23.996 24">
  <g id="search-normal-1" transform="translate(-1.25 -1.25)">
    <path id="Path_9" data-name="Path 9" d="M12.691,24.133A11.441,11.441,0,1,1,24.133,12.691,11.457,11.457,0,0,1,12.691,24.133Zm0-21.208a9.767,9.767,0,1,0,9.767,9.767A9.778,9.778,0,0,0,12.691,2.924Z" fill="#5b556a"/>
    <path id="Path_10" data-name="Path 10" d="M22.319,23.158a.828.828,0,0,1-.592-.246L19.5,20.679A.837.837,0,0,1,20.679,19.5l2.232,2.232a.842.842,0,0,1,0,1.183.828.828,0,0,1-.592.246Z" transform="translate(2.092 2.092)" fill="#5b556a"/>
  </g>
</svg>
