<svg xmlns="http://www.w3.org/2000/svg" width="17.333" height="20" viewBox="0 0 17.333 20">
  <path id="snapchat-svg" d="M9.667,0A5.1,5.1,0,0,0,5.486,1.971c-.927,1.191-1.453,3.616-1.54,5.64l-.106.016-.031,0c-.156.024-.341.052-.532.09A2.546,2.546,0,0,0,1.048,9.688a2.166,2.166,0,0,0,.357,1.744,2.834,2.834,0,0,0,1.023.814q.2.1.4.182A10.84,10.84,0,0,1,1.4,15.085a2.512,2.512,0,0,0-.121,2.421c.285.648.824.618,1.722.66a10.781,10.781,0,0,1,1.575.185,4.312,4.312,0,0,1,.875.309q.307.139.611.287c.165.08.34.164.541.257a7.083,7.083,0,0,0,2.969.8,7.083,7.083,0,0,0,2.969-.8c.2-.093.376-.177.541-.257l.037-.018c.194-.093.376-.181.574-.269a4.3,4.3,0,0,1,.875-.309,10.786,10.786,0,0,1,1.574-.186c.9-.042,1.6-.013,1.883-.66a2.512,2.512,0,0,0-.121-2.421,10.863,10.863,0,0,1-1.42-2.639c.13-.054.285-.119.44-.2a2.694,2.694,0,0,0,1.054-.835,2.061,2.061,0,0,0,.253-1.822,2.732,2.732,0,0,0-2.264-1.87c-.186-.039-.364-.068-.514-.09l-.018,0-.081-.013a11.4,11.4,0,0,0-1.5-5.509A5.1,5.1,0,0,0,9.667,0Z" transform="translate(-1)" fill="#5b556a"/>
</svg>
