<svg xmlns="http://www.w3.org/2000/svg" width="20" height="14.075" viewBox="0 0 20 14.075">
  <g id="XMLID_822_" transform="translate(0 -45.917)">
    <path id="youtube-svg" d="M19.22,47.125c-.722-.858-2.055-1.208-4.6-1.208H5.38c-2.6,0-3.959.373-4.679,1.286-.7.891-.7,2.2-.7,4.02v3.463c0,3.519.832,5.306,5.38,5.306h9.24c2.207,0,3.431-.309,4.222-1.066.812-.777,1.158-2.045,1.158-4.24V51.223C20,49.308,19.946,47.987,19.22,47.125Zm-6.38,6.307-4.2,2.193a.645.645,0,0,1-.944-.572V50.682a.645.645,0,0,1,.943-.573l4.2,2.179a.645.645,0,0,1,0,1.144Z" fill="#5b556a"/>
  </g>
</svg>
