<svg width="24" height="24" viewBox="0 0 24 24" fill="none" xmlns="http://www.w3.org/2000/svg">
<rect width="24" height="24" rx="8" fill="#F5F5F5"/>
<path d="M16.7883 7.99708C16.5117 7.72029 16.1832 7.50073 15.8216 7.35092C15.4601 7.20112 15.0726 7.12401 14.6812 7.12401C14.2899 7.12401 13.9024 7.20112 13.5408 7.35092C13.1793 7.50073 12.8508 7.72029 12.5742 7.99708L12 8.57125L11.4258 7.99708C10.867 7.43825 10.109 7.1243 9.31873 7.1243C8.52842 7.1243 7.77048 7.43825 7.21165 7.99708C6.65282 8.55592 6.33887 9.31386 6.33887 10.1042C6.33887 10.8945 6.65282 11.6524 7.21165 12.2113L7.78582 12.7854L12 16.9996L16.2142 12.7854L16.7883 12.2113C17.0651 11.9346 17.2847 11.6061 17.4345 11.2446C17.5843 10.883 17.6614 10.4955 17.6614 10.1042C17.6614 9.71282 17.5843 9.32531 17.4345 8.96377C17.2847 8.60223 17.0651 8.27374 16.7883 7.99708Z" stroke="#5A5568" stroke-width="1.5" stroke-linecap="round" stroke-linejoin="round"/>
</svg>
