<svg width="24" height="24" viewBox="0 0 24 24" fill="none" xmlns="http://www.w3.org/2000/svg">
<rect width="24" height="24" rx="8" fill="#542D91"/>
<g clip-path="url(#clip0_26_6100)">
<path d="M10.222 18.3704C10.5493 18.3704 10.8146 18.1051 10.8146 17.7778C10.8146 17.4505 10.5493 17.1852 10.222 17.1852C9.89471 17.1852 9.62939 17.4505 9.62939 17.7778C9.62939 18.1051 9.89471 18.3704 10.222 18.3704Z" stroke="white" stroke-width="1.5" stroke-linecap="round" stroke-linejoin="round"/>
<path d="M16.7405 18.3704C17.0678 18.3704 17.3331 18.1051 17.3331 17.7778C17.3331 17.4505 17.0678 17.1852 16.7405 17.1852C16.4133 17.1852 16.1479 17.4505 16.1479 17.7778C16.1479 18.1051 16.4133 18.3704 16.7405 18.3704Z" stroke="white" stroke-width="1.5" stroke-linecap="round" stroke-linejoin="round"/>
<path d="M5.48145 5.92592H7.85182L9.43996 13.8607C9.49415 14.1336 9.64258 14.3786 9.85925 14.5531C10.0759 14.7275 10.347 14.8201 10.6251 14.8148H16.3851C16.6633 14.8201 16.9344 14.7275 17.151 14.5531C17.3677 14.3786 17.5161 14.1336 17.5703 13.8607L18.5185 8.88888H8.44441" stroke="white" stroke-width="1.5" stroke-linecap="round" stroke-linejoin="round"/>
</g>
<defs>
<clipPath id="clip0_26_6100">
<rect width="16" height="15.1111" fill="white" transform="translate(4 4.44444)"/>
</clipPath>
</defs>
</svg>
