<svg width="16" height="14" viewBox="0 0 16 14" fill="none" xmlns="http://www.w3.org/2000/svg">
<path d="M12.7883 2.9971C12.5117 2.72031 12.1832 2.50074 11.8216 2.35093C11.4601 2.20113 11.0726 2.12402 10.6812 2.12402C10.2899 2.12402 9.90237 2.20113 9.54083 2.35093C9.17929 2.50074 8.85081 2.72031 8.57415 2.9971L7.99998 3.57126L7.42582 2.9971C6.86698 2.43826 6.10904 2.12431 5.31873 2.12431C4.52842 2.12431 3.77048 2.43826 3.21165 2.9971C2.65282 3.55593 2.33887 4.31387 2.33887 5.10418C2.33887 5.89449 2.65282 6.65243 3.21165 7.21126L3.78582 7.78543L7.99998 11.9996L12.2142 7.78543L12.7883 7.21126C13.0651 6.9346 13.2847 6.60612 13.4345 6.24458C13.5843 5.88304 13.6614 5.49553 13.6614 5.10418C13.6614 4.71283 13.5843 4.32532 13.4345 3.96378C13.2847 3.60224 13.0651 3.27376 12.7883 2.9971Z" stroke="#5A5568" stroke-width="1.5" stroke-linecap="round" stroke-linejoin="round"/>
</svg>
