<svg width="24" height="25" viewBox="0 0 24 25" fill="none" xmlns="http://www.w3.org/2000/svg">
<path d="M20.84 4.82478C20.3292 4.31378 19.7228 3.90842 19.0554 3.63186C18.3879 3.3553 17.6725 3.21295 16.95 3.21295C16.2275 3.21295 15.5121 3.3553 14.8446 3.63186C14.1772 3.90842 13.5708 4.31378 13.06 4.82478L12 5.88478L10.94 4.82478C9.9083 3.79309 8.50903 3.21349 7.05 3.21349C5.59096 3.21349 4.19169 3.79309 3.16 4.82478C2.1283 5.85647 1.54871 7.25574 1.54871 8.71478C1.54871 10.1738 2.1283 11.5731 3.16 12.6048L4.22 13.6648L12 21.4448L19.78 13.6648L20.84 12.6048C21.351 12.094 21.7563 11.4876 22.0329 10.8201C22.3095 10.1527 22.4518 9.43726 22.4518 8.71478C22.4518 7.99229 22.3095 7.27688 22.0329 6.60942C21.7563 5.94196 21.351 5.33553 20.84 4.82478Z" stroke="url(#paint0_linear_26_14430)" stroke-width="2" stroke-linecap="round" stroke-linejoin="round"/>
<defs>
<linearGradient id="paint0_linear_26_14430" x1="22.4518" y1="13.2951" x2="1.54871" y2="13.2951" gradientUnits="userSpaceOnUse">
<stop stop-color="#EF6498"/>
<stop offset="1" stop-color="#542D91"/>
</linearGradient>
</defs>
</svg>
