<svg width="16" height="14" viewBox="0 0 16 14" fill="none" xmlns="http://www.w3.org/2000/svg">
<path d="M12.7883 2.71186C12.5117 2.43507 12.1832 2.2155 11.8216 2.0657C11.4601 1.9159 11.0726 1.83879 10.6812 1.83879C10.2899 1.83879 9.90237 1.9159 9.54083 2.0657C9.17929 2.2155 8.85081 2.43507 8.57415 2.71186L7.99998 3.28603L7.42582 2.71186C6.86698 2.15303 6.10904 1.83908 5.31873 1.83908C4.52842 1.83908 3.77048 2.15303 3.21165 2.71186C2.65282 3.2707 2.33887 4.02864 2.33887 4.81895C2.33887 5.60926 2.65282 6.3672 3.21165 6.92603L3.78582 7.5002L7.99998 11.7144L12.2142 7.5002L12.7883 6.92603C13.0651 6.64937 13.2847 6.32089 13.4345 5.95935C13.5843 5.59781 13.6614 5.21029 13.6614 4.81895C13.6614 4.4276 13.5843 4.04009 13.4345 3.67855C13.2847 3.31701 13.0651 2.98852 12.7883 2.71186Z" stroke="#5A5568" stroke-width="1.5" stroke-linecap="round" stroke-linejoin="round"/>
</svg>
