<svg width="25" height="25" viewBox="0 0 25 25" fill="none" xmlns="http://www.w3.org/2000/svg">
<g clip-path="url(#clip0_26_7740)">
<path d="M6.04971 5.03301C5.44971 6.37701 5.68671 8.78501 5.78271 10.469C5.13471 10.828 4.30271 10.198 3.83171 10.198C3.34171 10.198 2.75671 10.52 2.66471 11C2.59871 11.346 2.75371 11.85 3.86571 12.289C4.29571 12.459 5.31871 12.659 5.55571 13.217C5.88871 14.001 3.84571 17.62 0.637715 18.148C0.386715 18.189 0.207715 18.413 0.221715 18.667C0.277715 19.642 2.46371 20.024 3.43271 20.174C3.53171 20.308 3.61171 20.874 3.73871 21.305C3.79571 21.498 3.94271 21.729 4.32071 21.729C4.81371 21.729 5.63271 21.349 7.05871 21.585C8.45671 21.818 9.77071 23.8 12.2937 23.8C14.6387 23.8 16.0377 21.809 17.3837 21.585C18.1627 21.456 18.8317 21.497 19.5797 21.643C20.0947 21.744 20.5567 21.8 20.7037 21.294C20.8327 20.857 20.9117 20.302 21.0087 20.171C21.9687 20.022 24.1647 19.641 24.2197 18.666C24.2337 18.412 24.0547 18.189 23.8037 18.147C20.6497 17.627 18.5447 14.019 18.8857 13.216C19.1217 12.659 20.1377 12.461 20.5757 12.288C21.3897 11.967 21.7977 11.572 21.7887 11.115C21.7777 10.53 21.0737 10.181 20.5557 10.181C20.0287 10.181 19.2717 10.805 18.6587 10.467C18.7547 8.76901 18.9907 6.37201 18.3917 5.02901C17.2567 2.48601 14.7317 1.20001 12.2077 1.20001C9.69971 1.20001 7.19371 2.46801 6.04971 5.03301Z" fill="url(#paint0_linear_26_7740)"/>
</g>
<defs>
<linearGradient id="paint0_linear_26_7740" x1="24.2205" y1="13.6977" x2="0.220947" y2="13.6977" gradientUnits="userSpaceOnUse">
<stop stop-color="#EF6498"/>
<stop offset="1" stop-color="#542D91"/>
</linearGradient>
<clipPath id="clip0_26_7740">
<rect width="24" height="24" fill="white" transform="translate(0.220703 0.5)"/>
</clipPath>
</defs>
</svg>
