<svg width="25" height="25" viewBox="0 0 25 25" fill="none" xmlns="http://www.w3.org/2000/svg">
<path d="M17.2207 2.21478H7.2207C4.45928 2.21478 2.2207 4.45336 2.2207 7.21478V17.2148C2.2207 19.9762 4.45928 22.2148 7.2207 22.2148H17.2207C19.9821 22.2148 22.2207 19.9762 22.2207 17.2148V7.21478C22.2207 4.45336 19.9821 2.21478 17.2207 2.21478Z" fill="url(#paint0_linear_26_14384)"/>
<path d="M16.2207 11.5848C16.3441 12.417 16.2019 13.267 15.8144 14.0138C15.4269 14.7606 14.8138 15.3662 14.0623 15.7445C13.3108 16.1227 12.4591 16.2544 11.6284 16.1207C10.7978 15.987 10.0304 15.5949 9.43549 14.9999C8.84057 14.405 8.44839 13.6377 8.31472 12.807C8.18106 11.9763 8.31272 11.1247 8.69098 10.3732C9.06924 9.62163 9.67484 9.00852 10.4216 8.62102C11.1684 8.23352 12.0184 8.09137 12.8507 8.21478C13.6996 8.34066 14.4855 8.73624 15.0923 9.34309C15.6992 9.94993 16.0948 10.7359 16.2207 11.5848Z" stroke="white" stroke-width="2" stroke-linecap="round" stroke-linejoin="round"/>
<path d="M17.7207 6.71478H17.7307" stroke="white" stroke-width="2" stroke-linecap="round" stroke-linejoin="round"/>
<defs>
<linearGradient id="paint0_linear_26_14384" x1="22.2207" y1="13.2747" x2="2.2207" y2="13.2747" gradientUnits="userSpaceOnUse">
<stop stop-color="#EF6498"/>
<stop offset="1" stop-color="#542D91"/>
</linearGradient>
</defs>
</svg>
