<svg width="34" height="48" viewBox="0 0 34 48" fill="none" xmlns="http://www.w3.org/2000/svg">
<g clip-path="url(#clip0_80_3556)">
<path d="M2.02128 46.4888C1.87726 45.9706 1.80524 45.7259 1.64681 45.2222C12.0743 42.5595 21.9114 42.5595 32.3389 45.2222C32.1949 45.7259 32.1229 45.985 31.9644 46.4888C21.7385 43.9124 12.2328 43.9124 2.00688 46.4888M12.4488 18.1493C14.7676 19.8477 15.9343 21.1286 17.0001 23.3739C18.0515 21.1286 19.2181 19.8477 21.5513 18.1493C21.8538 18.5667 22.0122 18.7826 22.329 19.2144C19.7654 21.0711 18.7428 22.4096 17.5762 25.3457C17.5762 25.3457 17.5762 25.3457 17.5618 25.3457C17.5042 25.7055 17.2593 25.9646 16.9713 25.9646C16.6544 25.9646 16.4095 25.648 16.3663 25.2306C15.2141 22.3664 14.1915 21.0567 11.6711 19.2144C11.9735 18.7826 12.132 18.5667 12.4488 18.1493ZM25.7857 23.1436C25.1808 22.1217 22.5451 18.7106 22.5451 16.9691C22.5451 15.6738 25.512 8.05997 25.512 7.26837C25.512 5.3973 23.9277 3.87166 21.8826 3.5982V0H20.6007V3.5982C18.5555 3.87166 16.9713 5.41169 16.9713 7.26837C16.9713 5.32534 15.2573 3.72774 13.0681 3.56942V0H11.8007V3.64138C9.88514 4.0012 8.44487 5.49805 8.44487 7.26837C8.44487 8.05997 11.4118 15.6738 11.4118 16.9691C11.4118 18.7106 8.73293 22.0786 8.18563 23.1436C1.08511 36.788 0.235352 47.194 0.235352 47.194C0.235352 47.194 8.43047 48 17.0001 48C26.1746 48 33.7648 47.194 33.7648 47.194C33.7648 47.194 32.1949 34.0534 25.8001 23.1436" fill="url(#paint0_linear_80_3556)"/>
</g>
<defs>
<linearGradient id="paint0_linear_80_3556" x1="33.7648" y1="26.5438" x2="0.235352" y2="26.5438" gradientUnits="userSpaceOnUse">
<stop stop-color="#EF6498"/>
<stop offset="1" stop-color="#542D91"/>
</linearGradient>
<clipPath id="clip0_80_3556">
<rect width="33.5294" height="48" fill="white" transform="translate(0.235352)"/>
</clipPath>
</defs>
</svg>
