<svg width="24" height="24" viewBox="0 0 24 24" fill="none" xmlns="http://www.w3.org/2000/svg">
<path d="M15 8C16.5913 8 18.1174 8.63214 19.2426 9.75736C20.3679 10.8826 21 12.4087 21 14V21H17V14C17 13.4696 16.7893 12.9609 16.4142 12.5858C16.0391 12.2107 15.5304 12 15 12C14.4696 12 13.9609 12.2107 13.5858 12.5858C13.2107 12.9609 13 13.4696 13 14V21H9V14C9 12.4087 9.63214 10.8826 10.7574 9.75736C11.8826 8.63214 13.4087 8 15 8Z" fill="url(#paint0_linear_2_8878)"/>
<path d="M7 9H3V21H7V9Z" fill="url(#paint1_linear_2_8878)"/>
<path d="M5 6C6.10457 6 7 5.10457 7 4C7 2.89543 6.10457 2 5 2C3.89543 2 3 2.89543 3 4C3 5.10457 3.89543 6 5 6Z" fill="url(#paint2_linear_2_8878)"/>
<defs>
<linearGradient id="paint0_linear_2_8878" x1="21" y1="15.1889" x2="9" y2="15.1889" gradientUnits="userSpaceOnUse">
<stop stop-color="#EF6498"/>
<stop offset="1" stop-color="#542D91"/>
</linearGradient>
<linearGradient id="paint1_linear_2_8878" x1="7" y1="15.6359" x2="3" y2="15.6359" gradientUnits="userSpaceOnUse">
<stop stop-color="#EF6498"/>
<stop offset="1" stop-color="#542D91"/>
</linearGradient>
<linearGradient id="paint2_linear_2_8878" x1="7" y1="4.21198" x2="3" y2="4.21198" gradientUnits="userSpaceOnUse">
<stop stop-color="#EF6498"/>
<stop offset="1" stop-color="#542D91"/>
</linearGradient>
</defs>
</svg>
