<svg width="27" height="16" viewBox="0 0 27 16" fill="none" xmlns="http://www.w3.org/2000/svg">
<path d="M1.09302 0.0235257C0.710586 0.11657 0.342787 0.261852 0 0.45527C0.137726 0.893424 0.313746 1.31861 0.526017 1.7259C0.684505 1.97866 1.00831 2.1071 1.53569 2.49375L0.852554 0.990846C9.07067 3.33263 15.8146 7.93424 22.3604 12.9607L22.0325 13.7245L15.7476 10.9701C17.9118 13.4389 24.6707 16.58 26.8213 15.9078C26.4463 15.2009 25.9826 14.5448 25.4413 13.9554C22.7817 11.7921 20.0828 9.6858 17.3448 7.63639C17.0195 7.45377 16.7512 7.18434 16.5701 6.85817C16.3889 6.53201 16.3019 6.16192 16.3187 5.78919C16.29 2.9856 13.7037 1.47451 11.5491 2.99927C11.2701 3.2173 10.9302 3.34323 10.5765 3.35963C10.2228 3.37603 9.8728 3.28209 9.57483 3.09081C7.21391 2.0661 4.82704 1.10971 2.4347 0.16972C2.12298 0.0527586 1.79208 -0.00470791 1.45918 0.000301431C1.33348 0.000301431 1.20916 0.00849822 1.08756 0.0207947" fill="url(#paint0_linear_85_13076)"/>
<defs>
<linearGradient id="paint0_linear_85_13076" x1="26.8213" y1="8.84793" x2="0" y2="8.84793" gradientUnits="userSpaceOnUse">
<stop stop-color="#EF6498"/>
<stop offset="1" stop-color="#542D91"/>
</linearGradient>
</defs>
</svg>
