<svg width="80" height="16" viewBox="0 0 80 16" fill="none" xmlns="http://www.w3.org/2000/svg">
<g opacity="0.3">
<path d="M7.10297 3.14988C7.4698 2.40671 8.52955 2.40671 8.89638 3.14988L9.82723 5.03568C9.97277 5.33052 10.254 5.53498 10.5793 5.58254L12.6626 5.88704C13.4825 6.00688 13.8093 7.01472 13.2157 7.59288L11.7098 9.05959C11.4739 9.28933 11.3663 9.62047 11.4219 9.94499L11.7771 12.0159C11.9172 12.8328 11.0597 13.4558 10.326 13.07L8.46513 12.0914C8.17374 11.9381 7.82561 11.9381 7.53422 12.0914L5.67331 13.07C4.93968 13.4558 4.08213 12.8328 4.22225 12.0159L4.57743 9.94499C4.63309 9.62047 4.52543 9.28933 4.28955 9.05959L2.78369 7.59288C2.19009 7.01472 2.51688 6.00688 3.33679 5.88704L5.42004 5.58254C5.74539 5.53498 6.02658 5.33052 6.17212 5.03568L7.10297 3.14988Z" fill="url(#paint0_linear_26_15134)"/>
</g>
<path d="M23.103 3.14988C23.4698 2.40671 24.5295 2.40671 24.8964 3.14988L25.8272 5.03568C25.9728 5.33052 26.254 5.53498 26.5793 5.58254L28.6626 5.88704C29.4825 6.00688 29.8093 7.01472 29.2157 7.59288L27.7098 9.05959C27.4739 9.28933 27.3663 9.62047 27.4219 9.94499L27.7771 12.0159C27.9172 12.8328 27.0597 13.4558 26.326 13.07L24.4651 12.0914C24.1737 11.9381 23.8256 11.9381 23.5342 12.0914L21.6733 13.07C20.9397 13.4558 20.0821 12.8328 20.2222 12.0159L20.5774 9.94499C20.6331 9.62047 20.5254 9.28933 20.2896 9.05959L18.7837 7.59288C18.1901 7.01472 18.5169 6.00688 19.3368 5.88704L21.42 5.58254C21.7454 5.53498 22.0266 5.33052 22.1721 5.03568L23.103 3.14988Z" fill="url(#paint1_linear_26_15134)"/>
<path d="M39.103 3.14988C39.4698 2.40671 40.5295 2.40671 40.8964 3.14988L41.8272 5.03568C41.9728 5.33052 42.254 5.53498 42.5793 5.58254L44.6626 5.88704C45.4825 6.00688 45.8093 7.01472 45.2157 7.59288L43.7098 9.05959C43.4739 9.28933 43.3663 9.62047 43.4219 9.94499L43.7771 12.0159C43.9172 12.8328 43.0597 13.4558 42.326 13.07L40.4651 12.0914C40.1737 11.9381 39.8256 11.9381 39.5342 12.0914L37.6733 13.07C36.9397 13.4558 36.0821 12.8328 36.2222 12.0159L36.5774 9.94499C36.6331 9.62047 36.5254 9.28933 36.2896 9.05959L34.7837 7.59288C34.1901 7.01472 34.5169 6.00688 35.3368 5.88704L37.42 5.58254C37.7454 5.53498 38.0266 5.33052 38.1721 5.03568L39.103 3.14988Z" fill="url(#paint2_linear_26_15134)"/>
<path d="M55.103 3.14988C55.4698 2.40671 56.5295 2.40671 56.8964 3.14988L57.8272 5.03568C57.9728 5.33052 58.254 5.53498 58.5793 5.58254L60.6626 5.88704C61.4825 6.00688 61.8093 7.01472 61.2157 7.59288L59.7098 9.05959C59.4739 9.28933 59.3663 9.62047 59.4219 9.94499L59.7771 12.0159C59.9172 12.8328 59.0597 13.4558 58.326 13.07L56.4651 12.0914C56.1737 11.9381 55.8256 11.9381 55.5342 12.0914L53.6733 13.07C52.9397 13.4558 52.0821 12.8328 52.2222 12.0159L52.5774 9.94499C52.6331 9.62047 52.5254 9.28933 52.2896 9.05959L50.7837 7.59288C50.1901 7.01472 50.5169 6.00688 51.3368 5.88704L53.42 5.58254C53.7454 5.53498 54.0266 5.33052 54.1721 5.03568L55.103 3.14988Z" fill="url(#paint3_linear_26_15134)"/>
<path d="M71.103 3.14988C71.4698 2.40671 72.5295 2.40671 72.8964 3.14988L73.8272 5.03568C73.9728 5.33052 74.254 5.53498 74.5793 5.58254L76.6626 5.88704C77.4825 6.00688 77.8093 7.01472 77.2157 7.59288L75.7098 9.05959C75.4739 9.28933 75.3663 9.62047 75.4219 9.94499L75.7771 12.0159C75.9172 12.8328 75.0597 13.4558 74.326 13.07L72.4651 12.0914C72.1737 11.9381 71.8256 11.9381 71.5342 12.0914L69.6733 13.07C68.9397 13.4558 68.0821 12.8328 68.2222 12.0159L68.5774 9.94499C68.6331 9.62047 68.5254 9.28933 68.2896 9.05959L66.7837 7.59288C66.1901 7.01472 66.5169 6.00688 67.3368 5.88704L69.42 5.58254C69.7454 5.53498 70.0266 5.33052 70.1721 5.03568L71.103 3.14988Z" fill="url(#paint4_linear_26_15134)"/>
<defs>
<linearGradient id="paint0_linear_26_15134" x1="14.6663" y1="8.34523" x2="1.33301" y2="8.34523" gradientUnits="userSpaceOnUse">
<stop stop-color="#EF6498"/>
<stop offset="1" stop-color="#542D91"/>
</linearGradient>
<linearGradient id="paint1_linear_26_15134" x1="30.6663" y1="8.34523" x2="17.333" y2="8.34523" gradientUnits="userSpaceOnUse">
<stop stop-color="#EF6498"/>
<stop offset="1" stop-color="#542D91"/>
</linearGradient>
<linearGradient id="paint2_linear_26_15134" x1="46.6663" y1="8.34523" x2="33.333" y2="8.34523" gradientUnits="userSpaceOnUse">
<stop stop-color="#EF6498"/>
<stop offset="1" stop-color="#542D91"/>
</linearGradient>
<linearGradient id="paint3_linear_26_15134" x1="62.6663" y1="8.34523" x2="49.333" y2="8.34523" gradientUnits="userSpaceOnUse">
<stop stop-color="#EF6498"/>
<stop offset="1" stop-color="#542D91"/>
</linearGradient>
<linearGradient id="paint4_linear_26_15134" x1="78.6663" y1="8.34523" x2="65.333" y2="8.34523" gradientUnits="userSpaceOnUse">
<stop stop-color="#EF6498"/>
<stop offset="1" stop-color="#542D91"/>
</linearGradient>
</defs>
</svg>
