<svg width="80" height="17" viewBox="0 0 80 17" fill="none" xmlns="http://www.w3.org/2000/svg">
<g opacity="0.3">
<path d="M7.10327 3.86475C7.47011 3.12158 8.52985 3.12158 8.89669 3.86475L9.82753 5.75054C9.97307 6.04539 10.2543 6.24985 10.5796 6.2974L12.6629 6.6019C13.4828 6.72175 13.8096 7.72959 13.216 8.30775L11.7101 9.77446C11.4742 10.0042 11.3666 10.3353 11.4222 10.6599L11.7774 12.7307C11.9175 13.5477 11.06 14.1707 10.3263 13.7849L8.46543 12.8062C8.17405 12.653 7.82591 12.653 7.53453 12.8062L5.67361 13.7849C4.93998 14.1707 4.08243 13.5477 4.22255 12.7307L4.57773 10.6599C4.63339 10.3353 4.52573 10.0042 4.28986 9.77446L2.78399 8.30775C2.1904 7.72959 2.51718 6.72175 3.3371 6.6019L5.42035 6.2974C5.7457 6.24985 6.02689 6.04539 6.17243 5.75054L7.10327 3.86475Z" fill="url(#paint0_linear_26_12021)"/>
</g>
<path d="M23.1033 3.86475C23.4701 3.12158 24.5299 3.12158 24.8967 3.86475L25.8275 5.75054C25.9731 6.04539 26.2543 6.24985 26.5796 6.2974L28.6629 6.6019C29.4828 6.72175 29.8096 7.72959 29.216 8.30775L27.7101 9.77446C27.4742 10.0042 27.3666 10.3353 27.4222 10.6599L27.7774 12.7307C27.9175 13.5477 27.06 14.1707 26.3263 13.7849L24.4654 12.8062C24.174 12.653 23.8259 12.653 23.5345 12.8062L21.6736 13.7849C20.94 14.1707 20.0824 13.5477 20.2226 12.7307L20.5777 10.6599C20.6334 10.3353 20.5257 10.0042 20.2899 9.77446L18.784 8.30775C18.1904 7.72959 18.5172 6.72175 19.3371 6.6019L21.4203 6.2974C21.7457 6.24985 22.0269 6.04539 22.1724 5.75054L23.1033 3.86475Z" fill="url(#paint1_linear_26_12021)"/>
<path d="M39.1033 3.86475C39.4701 3.12158 40.5299 3.12158 40.8967 3.86475L41.8275 5.75054C41.9731 6.04539 42.2543 6.24985 42.5796 6.2974L44.6629 6.6019C45.4828 6.72175 45.8096 7.72959 45.216 8.30775L43.7101 9.77446C43.4742 10.0042 43.3666 10.3353 43.4222 10.6599L43.7774 12.7307C43.9175 13.5477 43.06 14.1707 42.3263 13.7849L40.4654 12.8062C40.174 12.653 39.8259 12.653 39.5345 12.8062L37.6736 13.7849C36.94 14.1707 36.0824 13.5477 36.2226 12.7307L36.5777 10.6599C36.6334 10.3353 36.5257 10.0042 36.2899 9.77446L34.784 8.30775C34.1904 7.72959 34.5172 6.72175 35.3371 6.6019L37.4203 6.2974C37.7457 6.24985 38.0269 6.04539 38.1724 5.75054L39.1033 3.86475Z" fill="url(#paint2_linear_26_12021)"/>
<path d="M55.1033 3.86475C55.4701 3.12158 56.5299 3.12158 56.8967 3.86475L57.8275 5.75054C57.9731 6.04539 58.2543 6.24985 58.5796 6.2974L60.6629 6.6019C61.4828 6.72175 61.8096 7.72959 61.216 8.30775L59.7101 9.77446C59.4742 10.0042 59.3666 10.3353 59.4222 10.6599L59.7774 12.7307C59.9175 13.5477 59.06 14.1707 58.3263 13.7849L56.4654 12.8062C56.174 12.653 55.8259 12.653 55.5345 12.8062L53.6736 13.7849C52.94 14.1707 52.0824 13.5477 52.2226 12.7307L52.5777 10.6599C52.6334 10.3353 52.5257 10.0042 52.2899 9.77446L50.784 8.30775C50.1904 7.72959 50.5172 6.72175 51.3371 6.6019L53.4203 6.2974C53.7457 6.24985 54.0269 6.04539 54.1724 5.75054L55.1033 3.86475Z" fill="url(#paint3_linear_26_12021)"/>
<path d="M71.1033 3.86475C71.4701 3.12158 72.5299 3.12158 72.8967 3.86475L73.8275 5.75054C73.9731 6.04539 74.2543 6.24985 74.5796 6.2974L76.6629 6.6019C77.4828 6.72175 77.8096 7.72959 77.216 8.30775L75.7101 9.77446C75.4742 10.0042 75.3666 10.3353 75.4222 10.6599L75.7774 12.7307C75.9175 13.5477 75.06 14.1707 74.3263 13.7849L72.4654 12.8062C72.174 12.653 71.8259 12.653 71.5345 12.8062L69.6736 13.7849C68.94 14.1707 68.0824 13.5477 68.2226 12.7307L68.5777 10.6599C68.6334 10.3353 68.5257 10.0042 68.2899 9.77446L66.784 8.30775C66.1904 7.72959 66.5172 6.72175 67.3371 6.6019L69.4203 6.2974C69.7457 6.24985 70.0269 6.04539 70.1724 5.75054L71.1033 3.86475Z" fill="url(#paint4_linear_26_12021)"/>
<defs>
<linearGradient id="paint0_linear_26_12021" x1="14.6666" y1="9.0601" x2="1.33331" y2="9.0601" gradientUnits="userSpaceOnUse">
<stop stop-color="#EF6498"/>
<stop offset="1" stop-color="#542D91"/>
</linearGradient>
<linearGradient id="paint1_linear_26_12021" x1="30.6666" y1="9.0601" x2="17.3333" y2="9.0601" gradientUnits="userSpaceOnUse">
<stop stop-color="#EF6498"/>
<stop offset="1" stop-color="#542D91"/>
</linearGradient>
<linearGradient id="paint2_linear_26_12021" x1="46.6666" y1="9.0601" x2="33.3333" y2="9.0601" gradientUnits="userSpaceOnUse">
<stop stop-color="#EF6498"/>
<stop offset="1" stop-color="#542D91"/>
</linearGradient>
<linearGradient id="paint3_linear_26_12021" x1="62.6666" y1="9.0601" x2="49.3333" y2="9.0601" gradientUnits="userSpaceOnUse">
<stop stop-color="#EF6498"/>
<stop offset="1" stop-color="#542D91"/>
</linearGradient>
<linearGradient id="paint4_linear_26_12021" x1="78.6666" y1="9.0601" x2="65.3333" y2="9.0601" gradientUnits="userSpaceOnUse">
<stop stop-color="#EF6498"/>
<stop offset="1" stop-color="#542D91"/>
</linearGradient>
</defs>
</svg>
