<svg width="80" height="17" viewBox="0 0 80 17" fill="none" xmlns="http://www.w3.org/2000/svg">
<g opacity="0.3">
<path d="M7.10327 3.86476C7.47011 3.12159 8.52985 3.12159 8.89669 3.86476L9.82753 5.75055C9.97307 6.0454 10.2543 6.24986 10.5796 6.29741L12.6629 6.60191C13.4828 6.72175 13.8096 7.72959 13.216 8.30775L11.7101 9.77447C11.4742 10.0042 11.3666 10.3353 11.4222 10.6599L11.7774 12.7308C11.9175 13.5477 11.06 14.1707 10.3263 13.7849L8.46543 12.8062C8.17405 12.653 7.82591 12.653 7.53453 12.8062L5.67361 13.7849C4.93998 14.1707 4.08243 13.5477 4.22255 12.7308L4.57773 10.6599C4.63339 10.3353 4.52573 10.0042 4.28986 9.77447L2.78399 8.30775C2.1904 7.72959 2.51718 6.72175 3.3371 6.60191L5.42035 6.29741C5.7457 6.24986 6.02689 6.0454 6.17243 5.75055L7.10327 3.86476Z" fill="url(#paint0_linear_26_6941)"/>
</g>
<path d="M23.1033 3.86476C23.4701 3.12159 24.5299 3.12159 24.8967 3.86476L25.8275 5.75055C25.9731 6.0454 26.2543 6.24986 26.5796 6.29741L28.6629 6.60191C29.4828 6.72175 29.8096 7.72959 29.216 8.30775L27.7101 9.77447C27.4742 10.0042 27.3666 10.3353 27.4222 10.6599L27.7774 12.7308C27.9175 13.5477 27.06 14.1707 26.3263 13.7849L24.4654 12.8062C24.174 12.653 23.8259 12.653 23.5345 12.8062L21.6736 13.7849C20.94 14.1707 20.0824 13.5477 20.2226 12.7308L20.5777 10.6599C20.6334 10.3353 20.5257 10.0042 20.2899 9.77447L18.784 8.30775C18.1904 7.72959 18.5172 6.72175 19.3371 6.60191L21.4203 6.29741C21.7457 6.24986 22.0269 6.0454 22.1724 5.75055L23.1033 3.86476Z" fill="url(#paint1_linear_26_6941)"/>
<path d="M39.1033 3.86476C39.4701 3.12159 40.5299 3.12159 40.8967 3.86476L41.8275 5.75055C41.9731 6.0454 42.2543 6.24986 42.5796 6.29741L44.6629 6.60191C45.4828 6.72175 45.8096 7.72959 45.216 8.30775L43.7101 9.77447C43.4742 10.0042 43.3666 10.3353 43.4222 10.6599L43.7774 12.7308C43.9175 13.5477 43.06 14.1707 42.3263 13.7849L40.4654 12.8062C40.174 12.653 39.8259 12.653 39.5345 12.8062L37.6736 13.7849C36.94 14.1707 36.0824 13.5477 36.2226 12.7308L36.5777 10.6599C36.6334 10.3353 36.5257 10.0042 36.2899 9.77447L34.784 8.30775C34.1904 7.72959 34.5172 6.72175 35.3371 6.60191L37.4203 6.29741C37.7457 6.24986 38.0269 6.0454 38.1724 5.75055L39.1033 3.86476Z" fill="url(#paint2_linear_26_6941)"/>
<path d="M55.1033 3.86476C55.4701 3.12159 56.5299 3.12159 56.8967 3.86476L57.8275 5.75055C57.9731 6.0454 58.2543 6.24986 58.5796 6.29741L60.6629 6.60191C61.4828 6.72175 61.8096 7.72959 61.216 8.30775L59.7101 9.77447C59.4742 10.0042 59.3666 10.3353 59.4222 10.6599L59.7774 12.7308C59.9175 13.5477 59.06 14.1707 58.3263 13.7849L56.4654 12.8062C56.174 12.653 55.8259 12.653 55.5345 12.8062L53.6736 13.7849C52.94 14.1707 52.0824 13.5477 52.2226 12.7308L52.5777 10.6599C52.6334 10.3353 52.5257 10.0042 52.2899 9.77447L50.784 8.30775C50.1904 7.72959 50.5172 6.72175 51.3371 6.60191L53.4203 6.29741C53.7457 6.24986 54.0269 6.0454 54.1724 5.75055L55.1033 3.86476Z" fill="url(#paint3_linear_26_6941)"/>
<path d="M71.1033 3.86476C71.4701 3.12159 72.5299 3.12159 72.8967 3.86476L73.8275 5.75055C73.9731 6.0454 74.2543 6.24986 74.5796 6.29741L76.6629 6.60191C77.4828 6.72175 77.8096 7.72959 77.216 8.30775L75.7101 9.77447C75.4742 10.0042 75.3666 10.3353 75.4222 10.6599L75.7774 12.7308C75.9175 13.5477 75.06 14.1707 74.3263 13.7849L72.4654 12.8062C72.174 12.653 71.8259 12.653 71.5345 12.8062L69.6736 13.7849C68.94 14.1707 68.0824 13.5477 68.2226 12.7308L68.5777 10.6599C68.6334 10.3353 68.5257 10.0042 68.2899 9.77447L66.784 8.30775C66.1904 7.72959 66.5172 6.72175 67.3371 6.60191L69.4203 6.29741C69.7457 6.24986 70.0269 6.0454 70.1724 5.75055L71.1033 3.86476Z" fill="url(#paint4_linear_26_6941)"/>
<defs>
<linearGradient id="paint0_linear_26_6941" x1="14.6666" y1="9.06011" x2="1.33331" y2="9.06011" gradientUnits="userSpaceOnUse">
<stop stop-color="#EF6498"/>
<stop offset="1" stop-color="#542D91"/>
</linearGradient>
<linearGradient id="paint1_linear_26_6941" x1="30.6666" y1="9.06011" x2="17.3333" y2="9.06011" gradientUnits="userSpaceOnUse">
<stop stop-color="#EF6498"/>
<stop offset="1" stop-color="#542D91"/>
</linearGradient>
<linearGradient id="paint2_linear_26_6941" x1="46.6666" y1="9.06011" x2="33.3333" y2="9.06011" gradientUnits="userSpaceOnUse">
<stop stop-color="#EF6498"/>
<stop offset="1" stop-color="#542D91"/>
</linearGradient>
<linearGradient id="paint3_linear_26_6941" x1="62.6666" y1="9.06011" x2="49.3333" y2="9.06011" gradientUnits="userSpaceOnUse">
<stop stop-color="#EF6498"/>
<stop offset="1" stop-color="#542D91"/>
</linearGradient>
<linearGradient id="paint4_linear_26_6941" x1="78.6666" y1="9.06011" x2="65.3333" y2="9.06011" gradientUnits="userSpaceOnUse">
<stop stop-color="#EF6498"/>
<stop offset="1" stop-color="#542D91"/>
</linearGradient>
</defs>
</svg>
