<svg width="80" height="16" viewBox="0 0 80 16" fill="none" xmlns="http://www.w3.org/2000/svg">
<g opacity="0.3">
<path d="M7.10297 3.14996C7.4698 2.40679 8.52955 2.40679 8.89638 3.14996L9.82723 5.03575C9.97277 5.3306 10.254 5.53506 10.5793 5.58261L12.6626 5.88711C13.4825 6.00696 13.8093 7.0148 13.2157 7.59296L11.7098 9.05967C11.4739 9.28941 11.3663 9.62054 11.4219 9.94507L11.7771 12.016C11.9172 12.8329 11.0597 13.4559 10.326 13.0701L8.46513 12.0914C8.17374 11.9382 7.82561 11.9382 7.53422 12.0914L5.67331 13.0701C4.93968 13.4559 4.08213 12.8329 4.22225 12.016L4.57743 9.94507C4.63309 9.62054 4.52543 9.28941 4.28955 9.05967L2.78369 7.59296C2.19009 7.0148 2.51688 6.00696 3.33679 5.88711L5.42004 5.58261C5.74539 5.53506 6.02658 5.3306 6.17212 5.03575L7.10297 3.14996Z" fill="url(#paint0_linear_138_21589)"/>
</g>
<path d="M23.103 3.14996C23.4698 2.40679 24.5295 2.40679 24.8964 3.14996L25.8272 5.03575C25.9728 5.3306 26.254 5.53506 26.5793 5.58261L28.6626 5.88711C29.4825 6.00696 29.8093 7.0148 29.2157 7.59296L27.7098 9.05967C27.4739 9.28941 27.3663 9.62054 27.4219 9.94507L27.7771 12.016C27.9172 12.8329 27.0597 13.4559 26.326 13.0701L24.4651 12.0914C24.1737 11.9382 23.8256 11.9382 23.5342 12.0914L21.6733 13.0701C20.9397 13.4559 20.0821 12.8329 20.2222 12.016L20.5774 9.94507C20.6331 9.62054 20.5254 9.28941 20.2896 9.05967L18.7837 7.59296C18.1901 7.0148 18.5169 6.00696 19.3368 5.88711L21.42 5.58261C21.7454 5.53506 22.0266 5.3306 22.1721 5.03575L23.103 3.14996Z" fill="url(#paint1_linear_138_21589)"/>
<path d="M39.103 3.14996C39.4698 2.40679 40.5295 2.40679 40.8964 3.14996L41.8272 5.03575C41.9728 5.3306 42.254 5.53506 42.5793 5.58261L44.6626 5.88711C45.4825 6.00696 45.8093 7.0148 45.2157 7.59296L43.7098 9.05967C43.4739 9.28941 43.3663 9.62054 43.4219 9.94507L43.7771 12.016C43.9172 12.8329 43.0597 13.4559 42.326 13.0701L40.4651 12.0914C40.1737 11.9382 39.8256 11.9382 39.5342 12.0914L37.6733 13.0701C36.9397 13.4559 36.0821 12.8329 36.2222 12.016L36.5774 9.94507C36.6331 9.62054 36.5254 9.28941 36.2896 9.05967L34.7837 7.59296C34.1901 7.0148 34.5169 6.00696 35.3368 5.88711L37.42 5.58261C37.7454 5.53506 38.0266 5.3306 38.1721 5.03575L39.103 3.14996Z" fill="url(#paint2_linear_138_21589)"/>
<path d="M55.103 3.14996C55.4698 2.40679 56.5295 2.40679 56.8964 3.14996L57.8272 5.03575C57.9728 5.3306 58.254 5.53506 58.5793 5.58261L60.6626 5.88711C61.4825 6.00696 61.8093 7.0148 61.2157 7.59296L59.7098 9.05967C59.4739 9.28941 59.3663 9.62054 59.4219 9.94507L59.7771 12.016C59.9172 12.8329 59.0597 13.4559 58.326 13.0701L56.4651 12.0914C56.1737 11.9382 55.8256 11.9382 55.5342 12.0914L53.6733 13.0701C52.9397 13.4559 52.0821 12.8329 52.2222 12.016L52.5774 9.94507C52.6331 9.62054 52.5254 9.28941 52.2896 9.05967L50.7837 7.59296C50.1901 7.0148 50.5169 6.00696 51.3368 5.88711L53.42 5.58261C53.7454 5.53506 54.0266 5.3306 54.1721 5.03575L55.103 3.14996Z" fill="url(#paint3_linear_138_21589)"/>
<path d="M71.103 3.14996C71.4698 2.40679 72.5295 2.40679 72.8964 3.14996L73.8272 5.03575C73.9728 5.3306 74.254 5.53506 74.5793 5.58261L76.6626 5.88711C77.4825 6.00696 77.8093 7.0148 77.2157 7.59296L75.7098 9.05967C75.4739 9.28941 75.3663 9.62054 75.4219 9.94507L75.7771 12.016C75.9172 12.8329 75.0597 13.4559 74.326 13.0701L72.4651 12.0914C72.1737 11.9382 71.8256 11.9382 71.5342 12.0914L69.6733 13.0701C68.9397 13.4559 68.0821 12.8329 68.2222 12.016L68.5774 9.94507C68.6331 9.62054 68.5254 9.28941 68.2896 9.05967L66.7837 7.59296C66.1901 7.0148 66.5169 6.00696 67.3368 5.88711L69.42 5.58261C69.7454 5.53506 70.0266 5.3306 70.1721 5.03575L71.103 3.14996Z" fill="url(#paint4_linear_138_21589)"/>
<defs>
<linearGradient id="paint0_linear_138_21589" x1="14.6663" y1="8.34531" x2="1.33301" y2="8.34531" gradientUnits="userSpaceOnUse">
<stop stop-color="#EF6498"/>
<stop offset="1" stop-color="#542D91"/>
</linearGradient>
<linearGradient id="paint1_linear_138_21589" x1="30.6663" y1="8.34531" x2="17.333" y2="8.34531" gradientUnits="userSpaceOnUse">
<stop stop-color="#EF6498"/>
<stop offset="1" stop-color="#542D91"/>
</linearGradient>
<linearGradient id="paint2_linear_138_21589" x1="46.6663" y1="8.34531" x2="33.333" y2="8.34531" gradientUnits="userSpaceOnUse">
<stop stop-color="#EF6498"/>
<stop offset="1" stop-color="#542D91"/>
</linearGradient>
<linearGradient id="paint3_linear_138_21589" x1="62.6663" y1="8.34531" x2="49.333" y2="8.34531" gradientUnits="userSpaceOnUse">
<stop stop-color="#EF6498"/>
<stop offset="1" stop-color="#542D91"/>
</linearGradient>
<linearGradient id="paint4_linear_138_21589" x1="78.6663" y1="8.34531" x2="65.333" y2="8.34531" gradientUnits="userSpaceOnUse">
<stop stop-color="#EF6498"/>
<stop offset="1" stop-color="#542D91"/>
</linearGradient>
</defs>
</svg>
