<svg width="80" height="16" viewBox="0 0 80 16" fill="none" xmlns="http://www.w3.org/2000/svg">
<g opacity="0.3">
<path d="M7.10321 3.14994C7.47005 2.40678 8.52979 2.40678 8.89663 3.14994L9.82747 5.03574C9.97301 5.33058 10.2542 5.53504 10.5796 5.5826L12.6628 5.8871C13.4827 6.00694 13.8095 7.01478 13.2159 7.59294L11.71 9.05965C11.4742 9.2894 11.3665 9.62053 11.4222 9.94506L11.7773 12.0159C11.9175 12.8329 11.0599 13.4559 10.3263 13.0701L8.46537 12.0914C8.17399 11.9382 7.82585 11.9382 7.53447 12.0914L5.67355 13.0701C4.93992 13.4559 4.08237 12.8329 4.22249 12.0159L4.57767 9.94506C4.63333 9.62053 4.52567 9.2894 4.2898 9.05965L2.78393 7.59294C2.19034 7.01478 2.51712 6.00694 3.33703 5.8871L5.42028 5.5826C5.74564 5.53504 6.02682 5.33058 6.17236 5.03574L7.10321 3.14994Z" fill="url(#paint0_linear_26_13290)"/>
</g>
<path d="M23.1032 3.14994C23.47 2.40678 24.5298 2.40678 24.8966 3.14994L25.8275 5.03574C25.973 5.33058 26.2542 5.53504 26.5796 5.5826L28.6628 5.8871C29.4827 6.00694 29.8095 7.01478 29.2159 7.59294L27.71 9.05965C27.4742 9.2894 27.3665 9.62053 27.4222 9.94506L27.7773 12.0159C27.9175 12.8329 27.0599 13.4559 26.3263 13.0701L24.4654 12.0914C24.174 11.9382 23.8259 11.9382 23.5345 12.0914L21.6735 13.0701C20.9399 13.4559 20.0824 12.8329 20.2225 12.0159L20.5777 9.94506C20.6333 9.62053 20.5257 9.2894 20.2898 9.05965L18.7839 7.59294C18.1903 7.01478 18.5171 6.00694 19.337 5.8871L21.4203 5.5826C21.7456 5.53504 22.0268 5.33058 22.1724 5.03574L23.1032 3.14994Z" fill="url(#paint1_linear_26_13290)"/>
<path d="M39.1032 3.14994C39.47 2.40678 40.5298 2.40678 40.8966 3.14994L41.8275 5.03574C41.973 5.33058 42.2542 5.53504 42.5796 5.5826L44.6628 5.8871C45.4827 6.00694 45.8095 7.01478 45.2159 7.59294L43.71 9.05965C43.4742 9.2894 43.3665 9.62053 43.4222 9.94506L43.7773 12.0159C43.9175 12.8329 43.0599 13.4559 42.3263 13.0701L40.4654 12.0914C40.174 11.9382 39.8259 11.9382 39.5345 12.0914L37.6735 13.0701C36.9399 13.4559 36.0824 12.8329 36.2225 12.0159L36.5777 9.94506C36.6333 9.62053 36.5257 9.2894 36.2898 9.05965L34.7839 7.59294C34.1903 7.01478 34.5171 6.00694 35.337 5.8871L37.4203 5.5826C37.7456 5.53504 38.0268 5.33058 38.1724 5.03574L39.1032 3.14994Z" fill="url(#paint2_linear_26_13290)"/>
<path d="M55.1032 3.14994C55.47 2.40678 56.5298 2.40678 56.8966 3.14994L57.8275 5.03574C57.973 5.33058 58.2542 5.53504 58.5796 5.5826L60.6628 5.8871C61.4827 6.00694 61.8095 7.01478 61.2159 7.59294L59.71 9.05965C59.4742 9.2894 59.3665 9.62053 59.4222 9.94506L59.7773 12.0159C59.9175 12.8329 59.0599 13.4559 58.3263 13.0701L56.4654 12.0914C56.174 11.9382 55.8259 11.9382 55.5345 12.0914L53.6735 13.0701C52.9399 13.4559 52.0824 12.8329 52.2225 12.0159L52.5777 9.94506C52.6333 9.62053 52.5257 9.2894 52.2898 9.05965L50.7839 7.59294C50.1903 7.01478 50.5171 6.00694 51.337 5.8871L53.4203 5.5826C53.7456 5.53504 54.0268 5.33058 54.1724 5.03574L55.1032 3.14994Z" fill="url(#paint3_linear_26_13290)"/>
<path d="M71.1032 3.14994C71.47 2.40678 72.5298 2.40678 72.8966 3.14994L73.8275 5.03574C73.973 5.33058 74.2542 5.53504 74.5796 5.5826L76.6628 5.8871C77.4827 6.00694 77.8095 7.01478 77.2159 7.59294L75.71 9.05965C75.4742 9.2894 75.3665 9.62053 75.4222 9.94506L75.7773 12.0159C75.9175 12.8329 75.0599 13.4559 74.3263 13.0701L72.4654 12.0914C72.174 11.9382 71.8259 11.9382 71.5345 12.0914L69.6735 13.0701C68.9399 13.4559 68.0824 12.8329 68.2225 12.0159L68.5777 9.94506C68.6333 9.62053 68.5257 9.2894 68.2898 9.05965L66.7839 7.59294C66.1903 7.01478 66.5171 6.00694 67.337 5.8871L69.4203 5.5826C69.7456 5.53504 70.0268 5.33058 70.1724 5.03574L71.1032 3.14994Z" fill="url(#paint4_linear_26_13290)"/>
<defs>
<linearGradient id="paint0_linear_26_13290" x1="14.6666" y1="8.34529" x2="1.33325" y2="8.34529" gradientUnits="userSpaceOnUse">
<stop stop-color="#EF6498"/>
<stop offset="1" stop-color="#542D91"/>
</linearGradient>
<linearGradient id="paint1_linear_26_13290" x1="30.6666" y1="8.34529" x2="17.3333" y2="8.34529" gradientUnits="userSpaceOnUse">
<stop stop-color="#EF6498"/>
<stop offset="1" stop-color="#542D91"/>
</linearGradient>
<linearGradient id="paint2_linear_26_13290" x1="46.6666" y1="8.34529" x2="33.3333" y2="8.34529" gradientUnits="userSpaceOnUse">
<stop stop-color="#EF6498"/>
<stop offset="1" stop-color="#542D91"/>
</linearGradient>
<linearGradient id="paint3_linear_26_13290" x1="62.6666" y1="8.34529" x2="49.3333" y2="8.34529" gradientUnits="userSpaceOnUse">
<stop stop-color="#EF6498"/>
<stop offset="1" stop-color="#542D91"/>
</linearGradient>
<linearGradient id="paint4_linear_26_13290" x1="78.6666" y1="8.34529" x2="65.3333" y2="8.34529" gradientUnits="userSpaceOnUse">
<stop stop-color="#EF6498"/>
<stop offset="1" stop-color="#542D91"/>
</linearGradient>
</defs>
</svg>
