<svg width="80" height="16" viewBox="0 0 80 16" fill="none" xmlns="http://www.w3.org/2000/svg">
<g opacity="0.3">
<path d="M7.10297 3.15C7.4698 2.40684 8.52955 2.40684 8.89638 3.15L9.82723 5.0358C9.97277 5.33065 10.254 5.5351 10.5793 5.58266L12.6626 5.88716C13.4825 6.007 13.8093 7.01484 13.2157 7.593L11.7098 9.05972C11.4739 9.28946 11.3663 9.62059 11.4219 9.94512L11.7771 12.016C11.9172 12.833 11.0597 13.4559 10.326 13.0701L8.46513 12.0915C8.17374 11.9382 7.82561 11.9382 7.53422 12.0915L5.67331 13.0701C4.93968 13.4559 4.08213 12.833 4.22225 12.016L4.57743 9.94512C4.63309 9.62059 4.52543 9.28946 4.28955 9.05972L2.78369 7.593C2.19009 7.01484 2.51688 6.007 3.33679 5.88716L5.42004 5.58266C5.74539 5.5351 6.02658 5.33065 6.17212 5.0358L7.10297 3.15Z" fill="url(#paint0_linear_2_14758)"/>
</g>
<path d="M23.103 3.15C23.4698 2.40684 24.5295 2.40684 24.8964 3.15L25.8272 5.0358C25.9728 5.33065 26.254 5.5351 26.5793 5.58266L28.6626 5.88716C29.4825 6.007 29.8093 7.01484 29.2157 7.593L27.7098 9.05972C27.4739 9.28946 27.3663 9.62059 27.4219 9.94512L27.7771 12.016C27.9172 12.833 27.0597 13.4559 26.326 13.0701L24.4651 12.0915C24.1737 11.9382 23.8256 11.9382 23.5342 12.0915L21.6733 13.0701C20.9397 13.4559 20.0821 12.833 20.2222 12.016L20.5774 9.94512C20.6331 9.62059 20.5254 9.28946 20.2896 9.05972L18.7837 7.593C18.1901 7.01484 18.5169 6.007 19.3368 5.88716L21.42 5.58266C21.7454 5.5351 22.0266 5.33065 22.1721 5.0358L23.103 3.15Z" fill="url(#paint1_linear_2_14758)"/>
<path d="M39.103 3.15C39.4698 2.40684 40.5295 2.40684 40.8964 3.15L41.8272 5.0358C41.9728 5.33065 42.254 5.5351 42.5793 5.58266L44.6626 5.88716C45.4825 6.007 45.8093 7.01484 45.2157 7.593L43.7098 9.05972C43.4739 9.28946 43.3663 9.62059 43.4219 9.94512L43.7771 12.016C43.9172 12.833 43.0597 13.4559 42.326 13.0701L40.4651 12.0915C40.1737 11.9382 39.8256 11.9382 39.5342 12.0915L37.6733 13.0701C36.9397 13.4559 36.0821 12.833 36.2222 12.016L36.5774 9.94512C36.6331 9.62059 36.5254 9.28946 36.2896 9.05972L34.7837 7.593C34.1901 7.01484 34.5169 6.007 35.3368 5.88716L37.42 5.58266C37.7454 5.5351 38.0266 5.33065 38.1721 5.0358L39.103 3.15Z" fill="url(#paint2_linear_2_14758)"/>
<path d="M55.103 3.15C55.4698 2.40684 56.5295 2.40684 56.8964 3.15L57.8272 5.0358C57.9728 5.33065 58.254 5.5351 58.5793 5.58266L60.6626 5.88716C61.4825 6.007 61.8093 7.01484 61.2157 7.593L59.7098 9.05972C59.4739 9.28946 59.3663 9.62059 59.4219 9.94512L59.7771 12.016C59.9172 12.833 59.0597 13.4559 58.326 13.0701L56.4651 12.0915C56.1737 11.9382 55.8256 11.9382 55.5342 12.0915L53.6733 13.0701C52.9397 13.4559 52.0821 12.833 52.2222 12.016L52.5774 9.94512C52.6331 9.62059 52.5254 9.28946 52.2896 9.05972L50.7837 7.593C50.1901 7.01484 50.5169 6.007 51.3368 5.88716L53.42 5.58266C53.7454 5.5351 54.0266 5.33065 54.1721 5.0358L55.103 3.15Z" fill="url(#paint3_linear_2_14758)"/>
<path d="M71.103 3.15C71.4698 2.40684 72.5295 2.40684 72.8964 3.15L73.8272 5.0358C73.9728 5.33065 74.254 5.5351 74.5793 5.58266L76.6626 5.88716C77.4825 6.007 77.8093 7.01484 77.2157 7.593L75.7098 9.05972C75.4739 9.28946 75.3663 9.62059 75.4219 9.94512L75.7771 12.016C75.9172 12.833 75.0597 13.4559 74.326 13.0701L72.4651 12.0915C72.1737 11.9382 71.8256 11.9382 71.5342 12.0915L69.6733 13.0701C68.9397 13.4559 68.0821 12.833 68.2222 12.016L68.5774 9.94512C68.6331 9.62059 68.5254 9.28946 68.2896 9.05972L66.7837 7.593C66.1901 7.01484 66.5169 6.007 67.3368 5.88716L69.42 5.58266C69.7454 5.5351 70.0266 5.33065 70.1721 5.0358L71.103 3.15Z" fill="url(#paint4_linear_2_14758)"/>
<defs>
<linearGradient id="paint0_linear_2_14758" x1="14.6663" y1="8.34535" x2="1.33301" y2="8.34535" gradientUnits="userSpaceOnUse">
<stop stop-color="#EF6498"/>
<stop offset="1" stop-color="#542D91"/>
</linearGradient>
<linearGradient id="paint1_linear_2_14758" x1="30.6663" y1="8.34535" x2="17.333" y2="8.34535" gradientUnits="userSpaceOnUse">
<stop stop-color="#EF6498"/>
<stop offset="1" stop-color="#542D91"/>
</linearGradient>
<linearGradient id="paint2_linear_2_14758" x1="46.6663" y1="8.34535" x2="33.333" y2="8.34535" gradientUnits="userSpaceOnUse">
<stop stop-color="#EF6498"/>
<stop offset="1" stop-color="#542D91"/>
</linearGradient>
<linearGradient id="paint3_linear_2_14758" x1="62.6663" y1="8.34535" x2="49.333" y2="8.34535" gradientUnits="userSpaceOnUse">
<stop stop-color="#EF6498"/>
<stop offset="1" stop-color="#542D91"/>
</linearGradient>
<linearGradient id="paint4_linear_2_14758" x1="78.6663" y1="8.34535" x2="65.333" y2="8.34535" gradientUnits="userSpaceOnUse">
<stop stop-color="#EF6498"/>
<stop offset="1" stop-color="#542D91"/>
</linearGradient>
</defs>
</svg>
