<svg width="16" height="17" viewBox="0 0 16 17" fill="none" xmlns="http://www.w3.org/2000/svg">
<g clip-path="url(#clip0_26_14370)">
<path d="M4 2.04813L2 4.71479V14.0481C2 14.4017 2.14048 14.7409 2.39052 14.9909C2.64057 15.241 2.97971 15.3815 3.33333 15.3815H12.6667C13.0203 15.3815 13.3594 15.241 13.6095 14.9909C13.8595 14.7409 14 14.4017 14 14.0481V4.71479L12 2.04813H4Z" stroke="white" stroke-width="1.5" stroke-linecap="round" stroke-linejoin="round"/>
<path d="M2 4.71478H14" stroke="white" stroke-width="1.5" stroke-linecap="round" stroke-linejoin="round"/>
<path d="M10.6666 7.38144C10.6666 8.08868 10.3857 8.76696 9.8856 9.26706C9.3855 9.76715 8.70722 10.0481 7.99998 10.0481C7.29274 10.0481 6.61446 9.76715 6.11436 9.26706C5.61426 8.76696 5.33331 8.08868 5.33331 7.38144" stroke="white" stroke-width="1.5" stroke-linecap="round" stroke-linejoin="round"/>
</g>
<defs>
<clipPath id="clip0_26_14370">
<rect width="16" height="16" fill="white" transform="translate(0 0.714783)"/>
</clipPath>
</defs>
</svg>
