<svg width="17" height="17" viewBox="0 0 17 17" fill="none" xmlns="http://www.w3.org/2000/svg">
<path d="M4.58936 1.83325L2.58936 4.49992V13.8333C2.58936 14.1869 2.72983 14.526 2.97988 14.7761C3.22993 15.0261 3.56907 15.1666 3.92269 15.1666H13.256C13.6096 15.1666 13.9488 15.0261 14.1988 14.7761C14.4489 14.526 14.5894 14.1869 14.5894 13.8333V4.49992L12.5894 1.83325H4.58936Z" stroke="white" stroke-width="1.5" stroke-linecap="round" stroke-linejoin="round"/>
<path d="M2.58936 4.5H14.5894" stroke="white" stroke-width="1.5" stroke-linecap="round" stroke-linejoin="round"/>
<path d="M11.2562 7.16675C11.2562 7.87399 10.9752 8.55227 10.4751 9.05237C9.97504 9.55246 9.29676 9.83341 8.58952 9.83341C7.88227 9.83341 7.204 9.55246 6.7039 9.05237C6.2038 8.55227 5.92285 7.87399 5.92285 7.16675" stroke="white" stroke-width="1.5" stroke-linecap="round" stroke-linejoin="round"/>
</svg>
