<svg width="16" height="17" viewBox="0 0 16 17" fill="none" xmlns="http://www.w3.org/2000/svg">
<g clip-path="url(#clip0_26_14376)">
<path d="M3.66667 14.7148C4.58714 14.7148 5.33333 13.9686 5.33333 13.0481C5.33333 12.1276 4.58714 11.3814 3.66667 11.3814C2.74619 11.3814 2 12.1276 2 13.0481C2 13.9686 2.74619 14.7148 3.66667 14.7148Z" stroke="#EF6498" stroke-width="1.5" stroke-linecap="round" stroke-linejoin="round"/>
<path d="M12.3334 14.7148C13.2538 14.7148 14 13.9686 14 13.0481C14 12.1276 13.2538 11.3814 12.3334 11.3814C11.4129 11.3814 10.6667 12.1276 10.6667 13.0481C10.6667 13.9686 11.4129 14.7148 12.3334 14.7148Z" stroke="#EF6498" stroke-width="1.5" stroke-linecap="round" stroke-linejoin="round"/>
<path d="M10.6667 6.04813H13.3334L15.3334 8.04813V11.3815H10.6667V6.04813Z" stroke="#EF6498" stroke-width="1.5" stroke-linecap="round" stroke-linejoin="round"/>
<path d="M10.6667 2.71478H0.666687V11.3814H10.6667V2.71478Z" stroke="#EF6498" stroke-width="1.5" stroke-linecap="round" stroke-linejoin="round"/>
</g>
<defs>
<clipPath id="clip0_26_14376">
<rect width="16" height="16" fill="white" transform="translate(0 0.714783)"/>
</clipPath>
</defs>
</svg>
