<svg width="25" height="25" viewBox="0 0 25 25" fill="none" xmlns="http://www.w3.org/2000/svg">
<path d="M23.2207 3.49998C22.2631 4.17546 21.2028 4.69209 20.0807 5.02999C19.4784 4.3375 18.678 3.84668 17.7877 3.62391C16.8974 3.40115 15.9602 3.45718 15.1028 3.78444C14.2454 4.1117 13.5091 4.69439 12.9937 5.4537C12.4782 6.21302 12.2084 7.11232 12.2207 8.02998V9.02998C10.4633 9.07555 8.72198 8.6858 7.15171 7.89543C5.58145 7.10506 4.23102 5.93862 3.2207 4.49998C3.2207 4.49998 -0.779297 13.5 8.2207 17.5C6.16123 18.898 3.70786 19.5989 1.2207 19.5C10.2207 24.5 21.2207 19.5 21.2207 7.99998C21.2198 7.72144 21.193 7.44358 21.1407 7.16999C22.1613 6.16348 22.8815 4.8927 23.2207 3.49998Z" fill="url(#paint0_linear_26_3655)"/>
<defs>
<linearGradient id="paint0_linear_26_3655" x1="23.2207" y1="13.4127" x2="1.2207" y2="13.4127" gradientUnits="userSpaceOnUse">
<stop stop-color="#EF6498"/>
<stop offset="1" stop-color="#542D91"/>
</linearGradient>
</defs>
</svg>
