<svg width="4" height="7" viewBox="0 0 4 7" fill="none" xmlns="http://www.w3.org/2000/svg">
<path d="M2.67914 1.46647C2.46169 1.46647 2.27174 1.28652 2.27174 1.05908C2.27174 0.849132 2.46169 0.65918 2.67914 0.65918C2.89658 0.65918 3.08653 0.849132 3.08653 1.05908C3.08653 1.28652 2.90658 1.46647 2.67914 1.46647ZM2.08179 2.42622C1.71189 2.42622 1.33948 2.73864 1.33948 3.22351C1.33948 4.30573 2.69663 4.54317 3.24899 5.1805C3.31647 4.99055 3.33397 4.8006 3.33397 4.57316C3.33397 3.35848 2.78411 2.42872 2.08179 2.42872M1.39947 1.46897C1.18203 1.46897 0.999572 1.28901 0.999572 1.06157C0.999572 0.851626 1.17953 0.661681 1.39947 0.661681C1.63691 0.661681 1.80686 0.851626 1.80686 1.06157C1.80686 1.28901 1.63691 1.46897 1.39947 1.46897ZM2.01681 6.75759H0.259766V6.17774H2.09179C2.71913 6.17774 2.97406 5.80784 3.16401 5.37046C2.61415 4.76311 0.734641 4.4207 0.734641 3.25351C0.734641 2.68365 1.2845 2.20878 2.10179 2.20878C3.31897 2.20878 3.9638 3.34848 3.9638 4.54567C3.9638 5.74285 3.17651 6.75759 2.01681 6.75759Z" fill="#6E4091"/>
</svg>
