<svg width="6" height="5" viewBox="0 0 6 5" fill="none" xmlns="http://www.w3.org/2000/svg">
<path d="M3.65885 4.75492H0.534668V4.17508H3.62136C4.16122 4.17508 4.82605 3.88016 4.82605 2.46552C4.82605 1.05089 4.15122 0.508529 3.62886 0.508529C3.1065 0.508529 2.34669 0.94592 2.34669 2.33306C2.34669 2.85542 2.67911 3.20533 2.7166 3.20533C2.7166 3.20533 2.58413 3.44276 2.27921 3.44276C1.71936 3.44276 1.66188 2.77794 1.66188 2.51301C1.66188 1.29833 2.55415 0.301086 3.65636 0.301086C4.75857 0.301086 5.64084 1.13587 5.64084 2.543C5.64084 3.74769 4.74857 4.75492 3.65636 4.75492" fill="#6E4091"/>
</svg>
