<svg width="6" height="5" viewBox="0 0 6 5" fill="none" xmlns="http://www.w3.org/2000/svg">
<path d="M3.65861 4.75492H0.534424V4.17508H3.62112C4.16098 4.17508 4.82581 3.88016 4.82581 2.46552C4.82581 1.05089 4.15098 0.508529 3.62862 0.508529C3.10625 0.508529 2.34645 0.94592 2.34645 2.33306C2.34645 2.85542 2.67887 3.20533 2.71636 3.20533C2.71636 3.20533 2.58389 3.44276 2.27897 3.44276C1.71912 3.44276 1.66163 2.77794 1.66163 2.51301C1.66163 1.29833 2.5539 0.301086 3.65611 0.301086C4.75832 0.301086 5.64059 1.13587 5.64059 2.543C5.64059 3.74769 4.74833 4.75492 3.65611 4.75492" fill="#6E4091"/>
</svg>
