<svg width="5" height="9" viewBox="0 0 5 9" fill="none" xmlns="http://www.w3.org/2000/svg">
<path d="M1.53859 2.65904H2.12843V7.55777H1.53859V2.65904ZM2.32588 2.19416H1.16618L1.29865 1.94673H1.55608C1.44111 1.84176 1.38363 1.69929 1.38363 1.54933C1.38363 1.26441 1.58357 0.969482 1.98097 0.969482C2.15093 0.969482 2.33338 1.03697 2.33338 1.03697V1.36938C2.33338 1.36938 2.2484 1.17943 2.06845 1.17943C1.83101 1.17943 1.69855 1.35938 1.69855 1.55933C1.69855 1.75928 1.84101 1.95923 2.14593 1.95923C2.20341 1.95923 2.28839 1.95923 2.42086 1.90174L2.32588 2.19666V2.19416ZM2.94322 8.75495H0.758789V8.17511H2.78076C3.08568 8.17511 3.58805 8.04264 3.58805 7.36782V2.65904H4.1779V7.56776C4.1779 8.45003 3.50307 8.75495 2.94322 8.75495Z" fill="#6E4091"/>
</svg>
