<svg width="4" height="9" viewBox="0 0 4 9" fill="none" xmlns="http://www.w3.org/2000/svg">
<path d="M1.33827 2.37377H1.92812V7.27249H1.33827V2.37377ZM2.12556 1.90888H0.965866L1.09833 1.66145H1.35576C1.24079 1.55648 1.18331 1.41402 1.18331 1.26405C1.18331 0.979129 1.38326 0.684204 1.78065 0.684204C1.95061 0.684204 2.13306 0.751691 2.13306 0.751691V1.0841C2.13306 1.0841 2.04808 0.894148 1.86813 0.894148C1.63069 0.894148 1.49823 1.07411 1.49823 1.27405C1.49823 1.474 1.64069 1.67395 1.94561 1.67395C2.0031 1.67395 2.08807 1.67395 2.22054 1.61646L2.12556 1.91139V1.90888ZM2.7429 8.46967H0.558472V7.88983H2.58044C2.88537 7.88983 3.38774 7.75736 3.38774 7.08254V2.37377H3.97758V7.28248C3.97758 8.16475 3.30276 8.46967 2.7429 8.46967Z" fill="#6E4091"/>
</svg>
