<svg width="4" height="7" viewBox="0 0 4 7" fill="none" xmlns="http://www.w3.org/2000/svg">
<path d="M3.03123 1.06079C2.82129 0.300984 1.89153 0.300982 1.89153 0.300982C1.14173 0.300982 0.646855 1.17326 0.646855 2.47542C0.646855 3.28271 0.951776 4.28994 1.87154 4.30744C1.90903 4.30744 2.51637 4.29744 3.03123 3.83256V1.06079ZM1.91902 6.10198C2.59385 6.10198 3.03873 5.6271 3.03873 5.11473V4.12748C3.03873 4.12748 2.61134 4.50739 1.75657 4.50739C0.521888 4.50739 0.00952148 3.46266 0.00952148 2.35295C0.00952148 0.815854 0.864299 0.0185547 1.90903 0.0185547C2.68632 0.0185547 3.60858 0.283486 3.60858 1.25323V4.11999C3.60858 4.8223 3.58859 6.3694 1.84154 6.3694C1.78406 6.3694 1.06425 6.36941 0.606866 6.04699V5.57211C0.959274 5.9895 1.30918 6.10447 1.91653 6.10447" fill="#6E4091"/>
</svg>
