<svg width="5" height="4" viewBox="0 0 5 4" fill="none" xmlns="http://www.w3.org/2000/svg">
<path d="M3.30253 1.73519C3.30253 0.623603 2.79972 0.282442 2.39709 0.282442C1.99447 0.282442 1.39904 0.638597 1.39904 1.75018C1.39904 1.80642 1.36312 3.25354 2.42545 3.25354C2.79972 3.25354 3.30253 2.81115 3.30253 1.73706M0.257324 2.63495H1.14763C0.932144 2.22256 0.924584 1.78768 0.924584 1.78768C0.924584 0.876662 1.59184 0.13623 2.41789 0.13623C3.24393 0.13623 3.92631 0.734199 3.92631 1.78768C3.92631 2.10072 3.85448 2.38564 3.71838 2.63495H4.6654V3.06984H3.38759C3.14374 3.28354 2.82051 3.411 2.44057 3.411C2.00203 3.411 1.69392 3.26854 1.47087 3.06984H0.257324V2.63495Z" fill="#6E4091"/>
</svg>
