<svg width="7" height="6" viewBox="0 0 7 6" fill="none" xmlns="http://www.w3.org/2000/svg">
<path d="M4.58895 2.98033C4.58895 1.49822 3.92412 1.04334 3.39176 1.04334C2.8594 1.04334 2.07211 1.51821 2.07211 3.00032C2.07211 3.07531 2.02462 5.0048 3.42925 5.0048C3.92412 5.0048 4.58895 4.41495 4.58895 2.98283M0.5625 4.18002H1.73969C1.45477 3.63016 1.44477 3.05031 1.44477 3.05031C1.44477 1.83563 2.32704 0.848389 3.41925 0.848389C4.51147 0.848389 5.41373 1.64568 5.41373 3.05031C5.41373 3.46771 5.31876 3.8476 5.13881 4.18002H6.39098V4.75987H4.70142C4.37901 5.04479 3.95161 5.21475 3.44924 5.21475C2.8694 5.21475 2.462 5.0248 2.16708 4.75987H0.5625V4.18002Z" fill="#6E4091"/>
</svg>
