<svg width="4" height="7" viewBox="0 0 4 7" fill="none" xmlns="http://www.w3.org/2000/svg">
<path d="M2.67853 1.18132C2.46108 1.18132 2.27113 1.00136 2.27113 0.773921C2.27113 0.563976 2.46108 0.374023 2.67853 0.374023C2.89597 0.374023 3.08592 0.563976 3.08592 0.773921C3.08592 1.00136 2.90597 1.18132 2.67853 1.18132ZM2.08118 2.14107C1.71128 2.14107 1.33887 2.45348 1.33887 2.93836C1.33887 4.02058 2.69602 4.25801 3.24838 4.89535C3.31586 4.7054 3.33336 4.51545 3.33336 4.28801C3.33336 3.07332 2.7835 2.14356 2.08118 2.14356M1.39886 1.18381C1.18142 1.18381 0.998961 1.00386 0.998961 0.776415C0.998961 0.56647 1.17892 0.376525 1.39886 0.376525C1.6363 0.376525 1.80625 0.56647 1.80625 0.776415C1.80625 1.00386 1.6363 1.18381 1.39886 1.18381ZM2.0162 6.47243H0.259155V5.89258H2.09118C2.71852 5.89258 2.97345 5.52269 3.1634 5.0853C2.61354 4.47796 0.734031 4.13555 0.734031 2.96835C0.734031 2.3985 1.28389 1.92362 2.10118 1.92362C3.31836 1.92362 3.96319 3.06332 3.96319 4.26051C3.96319 5.4577 3.1759 6.47243 2.0162 6.47243Z" fill="#6E4091"/>
</svg>
