<svg width="2" height="9" viewBox="0 0 2 9" fill="none" xmlns="http://www.w3.org/2000/svg">
<path d="M0.404873 2.65901H0.994719V8.75491H0.404873V2.65901ZM1.19217 2.19412H0.0324707L0.164936 1.94669H0.422368C0.307398 1.84172 0.249913 1.69925 0.249913 1.54679C0.249913 1.26187 0.44986 0.966949 0.847257 0.966949C1.01721 0.966949 1.19967 1.03443 1.19967 1.03443V1.36684C1.19967 1.36684 1.11469 1.17689 0.932235 1.17689C0.694797 1.17689 0.562331 1.35684 0.562331 1.55679C0.562331 1.75674 0.704794 1.95669 1.00721 1.95669C1.0647 1.95669 1.14968 1.95669 1.28214 1.8992L1.18717 2.19412H1.19217Z" fill="#6E4091"/>
</svg>
