<svg width="5" height="5" viewBox="0 0 5 5" fill="none" xmlns="http://www.w3.org/2000/svg">
<path d="M2.9512 4.0662H0.588379V3.63132H2.92285C3.33114 3.63132 3.83395 3.41013 3.83395 2.34916C3.83395 1.28818 3.32358 0.881412 2.92852 0.881412C2.53345 0.881412 1.95881 1.20945 1.95881 2.24981C1.95881 2.64158 2.21022 2.90401 2.23857 2.90401C2.23857 2.90401 2.13839 3.08209 1.90778 3.08209C1.48436 3.08209 1.44089 2.58347 1.44089 2.38477C1.44089 1.47376 2.11571 0.72583 2.94931 0.72583C3.78292 0.72583 4.45018 1.35192 4.45018 2.40727C4.45018 3.31078 3.77535 4.0662 2.94931 4.0662" fill="#6E4091"/>
</svg>
