<svg width="4" height="7" viewBox="0 0 4 7" fill="none" xmlns="http://www.w3.org/2000/svg">
<path d="M2.47894 1.46629C2.2615 1.46629 2.07155 1.28633 2.07155 1.05889C2.07155 0.848949 2.2615 0.658997 2.47894 0.658997C2.69638 0.658997 2.88634 0.848949 2.88634 1.05889C2.88634 1.28633 2.70638 1.46629 2.47894 1.46629ZM1.8816 2.42604C1.51169 2.42604 1.13929 2.73846 1.13929 3.22333C1.13929 4.30555 2.49644 4.54298 3.04879 5.18032C3.11627 4.99037 3.13377 4.80042 3.13377 4.57298C3.13377 3.35829 2.58391 2.42853 1.8816 2.42853M1.19927 1.46878C0.98183 1.46878 0.799376 1.28883 0.799376 1.06139C0.799376 0.851443 0.979331 0.661498 1.19927 0.661498C1.43671 0.661498 1.60667 0.851443 1.60667 1.06139C1.60667 1.28883 1.43671 1.46878 1.19927 1.46878ZM1.81661 6.75741H0.0595703V6.17756H1.8916C2.51893 6.17756 2.77386 5.80766 2.96382 5.37027C2.41396 4.76293 0.534446 4.42052 0.534446 3.25332C0.534446 2.68347 1.0843 2.2086 1.90159 2.2086C3.11878 2.2086 3.76361 3.34829 3.76361 4.54548C3.76361 5.74267 2.97631 6.75741 1.81661 6.75741Z" fill="#6E4091"/>
</svg>
