<svg width="5" height="7" viewBox="0 0 5 7" fill="none" xmlns="http://www.w3.org/2000/svg">
<path d="M3.43306 1.46629C3.20562 1.46629 3.02317 1.28633 3.02317 1.06889C3.02317 0.851443 3.20312 0.668997 3.43306 0.668997C3.663 0.668997 3.83296 0.848944 3.83296 1.06889C3.83296 1.28883 3.6605 1.46629 3.43306 1.46629ZM2.02843 1.46629C1.80099 1.46629 1.62103 1.28634 1.62103 1.05889C1.62103 0.851449 1.80099 0.661499 2.02843 0.661499C2.25587 0.661499 2.42832 0.851449 2.42832 1.05889C2.42832 1.28634 2.24837 1.46629 2.02843 1.46629ZM2.67576 2.48352C2.1259 2.48352 1.29862 2.96839 1.29862 4.51549C1.29862 5.95761 2.10591 6.61494 2.67576 6.61494C3.24561 6.61494 4.08039 5.9976 4.08039 4.51549C4.08039 3.03338 3.22562 2.48352 2.67576 2.48352ZM2.70325 6.86988C1.56355 6.86988 0.633789 6.10008 0.633789 4.56298C0.633789 3.30081 1.56355 2.26608 2.70325 2.26608C3.84295 2.26608 4.77271 3.10086 4.77271 4.56298C4.77271 5.83515 3.84295 6.86988 2.70325 6.86988Z" fill="#6E4091"/>
</svg>
