<svg width="7" height="6" viewBox="0 0 7 6" fill="none" xmlns="http://www.w3.org/2000/svg">
<path d="M4.58895 2.98046C4.58895 1.49834 3.92412 1.04346 3.39176 1.04346C2.8594 1.04346 2.07211 1.51833 2.07211 3.00045C2.07211 3.07543 2.02462 5.00492 3.42925 5.00492C3.92412 5.00492 4.58895 4.41508 4.58895 2.98295M0.5625 4.18014H1.73969C1.45477 3.63028 1.44477 3.05044 1.44477 3.05044C1.44477 1.83575 2.32704 0.848511 3.41925 0.848511C4.51147 0.848511 5.41373 1.6458 5.41373 3.05044C5.41373 3.46783 5.31876 3.84773 5.13881 4.18014H6.39098V4.75999H4.70142C4.37901 5.04492 3.95161 5.21487 3.44924 5.21487C2.8694 5.21487 2.462 5.02492 2.16708 4.75999H0.5625V4.18014Z" fill="#6E4091"/>
</svg>
