<svg width="4" height="7" viewBox="0 0 4 7" fill="none" xmlns="http://www.w3.org/2000/svg">
<path d="M2.67914 1.46635C2.46169 1.46635 2.27174 1.2864 2.27174 1.05896C2.27174 0.84901 2.46169 0.659058 2.67914 0.659058C2.89658 0.659058 3.08653 0.84901 3.08653 1.05896C3.08653 1.2864 2.90658 1.46635 2.67914 1.46635ZM2.08179 2.4261C1.71189 2.4261 1.33948 2.73852 1.33948 3.22339C1.33948 4.30561 2.69663 4.54305 3.24899 5.18038C3.31647 4.99043 3.33397 4.80048 3.33397 4.57304C3.33397 3.35836 2.78411 2.42859 2.08179 2.42859M1.39947 1.46884C1.18203 1.46884 0.999572 1.28889 0.999572 1.06145C0.999572 0.851504 1.17953 0.661559 1.39947 0.661559C1.63691 0.661559 1.80686 0.851504 1.80686 1.06145C1.80686 1.28889 1.63691 1.46884 1.39947 1.46884ZM2.01681 6.75747H0.259766V6.17762H2.09179C2.71913 6.17762 2.97406 5.80772 3.16401 5.37033C2.61415 4.76299 0.734641 4.42058 0.734641 3.25338C0.734641 2.68353 1.2845 2.20866 2.10179 2.20866C3.31897 2.20866 3.9638 3.34835 3.9638 4.54554C3.9638 5.74273 3.17651 6.75747 2.01681 6.75747Z" fill="#6E4091"/>
</svg>
