<svg width="2" height="9" viewBox="0 0 2 9" fill="none" xmlns="http://www.w3.org/2000/svg">
<path d="M0.604824 2.6591H1.19467V8.755H0.604824V2.6591ZM1.39212 2.19421H0.232422L0.364887 1.94678H0.622319C0.507349 1.84181 0.449864 1.69934 0.449864 1.54688C0.449864 1.26196 0.649812 0.967041 1.04721 0.967041C1.21716 0.967041 1.39962 1.03452 1.39962 1.03452V1.36693C1.39962 1.36693 1.31464 1.17699 1.13219 1.17699C0.894749 1.17699 0.762282 1.35694 0.762282 1.55688C0.762282 1.75683 0.904745 1.95678 1.20717 1.95678C1.26465 1.95678 1.34963 1.95678 1.4821 1.89929L1.38712 2.19421H1.39212Z" fill="#6E4091"/>
</svg>
