<svg width="6" height="8" viewBox="0 0 6 8" fill="none" xmlns="http://www.w3.org/2000/svg">
<path d="M5.64576 5.75491C4.33611 5.75491 4.12616 4.90014 3.9837 3.67546H2.78651C1.77177 3.67546 1.33439 4.35779 1.33439 5.13758C1.33439 6.17231 2.10418 7.3695 3.30887 7.3695C3.66128 7.3695 4.05868 7.26453 4.47607 7.02709L3.5838 7.65442C1.60931 7.65442 0.62207 6.28728 0.62207 5.01511C0.62207 4.09285 1.15443 3.25807 2.21666 3.10561C1.6468 2.7632 1.38937 2.3933 1.38937 2.05089C1.38937 1.45354 2.17667 0.901184 3.39385 0.901184C3.9737 0.901184 4.52356 1.10113 4.52356 1.11863V1.58351C4.52356 1.58351 4.21114 1.11863 3.61129 1.11863C2.70903 1.11863 2.01671 1.69848 2.01671 2.23084C2.01671 2.67572 2.49159 3.08561 3.70627 3.08561C3.94371 3.08561 4.27612 3.08562 4.741 3.02813L4.48357 3.67296H4.29362C4.29362 4.40527 4.60604 5.17257 5.49081 5.17257H5.68076V5.75242H5.64327L5.64576 5.75491Z" fill="#6E4091"/>
</svg>
