<svg width="6" height="8" viewBox="0 0 6 8" fill="none" xmlns="http://www.w3.org/2000/svg">
<path d="M5.84572 5.75485C4.53606 5.75485 4.32611 4.90008 4.18365 3.6754H2.98646C1.97172 3.6754 1.53434 4.35772 1.53434 5.13752C1.53434 6.17225 2.30414 7.36944 3.50882 7.36944C3.86123 7.36944 4.25863 7.26446 4.67602 7.02703L3.78375 7.65436C1.80927 7.65436 0.822021 6.28722 0.822021 5.01505C0.822021 4.09279 1.35438 3.25801 2.41661 3.10555C1.84676 2.76314 1.58932 2.39324 1.58932 2.05082C1.58932 1.45348 2.37662 0.901123 3.5938 0.901123C4.17365 0.901123 4.72351 1.10107 4.72351 1.11857V1.58345C4.72351 1.58345 4.41109 1.11857 3.81125 1.11857C2.90898 1.11857 2.21666 1.69842 2.21666 2.23078C2.21666 2.67566 2.69154 3.08555 3.90622 3.08555C4.14366 3.08555 4.47607 3.08556 4.94095 3.02807L4.68352 3.6729H4.49357C4.49357 4.40521 4.80599 5.17251 5.69076 5.17251H5.88071V5.75236H5.84322L5.84572 5.75485Z" fill="#6E4091"/>
</svg>
