<svg width="4" height="9" viewBox="0 0 4 9" fill="none" xmlns="http://www.w3.org/2000/svg">
<path d="M1.33815 2.65898H1.92799V7.55771H1.33815V2.65898ZM2.12544 2.1941H0.965744L1.09821 1.94667H1.35564C1.24067 1.84169 1.18319 1.69923 1.18319 1.54927C1.18319 1.26435 1.38313 0.969421 1.78053 0.969421C1.95049 0.969421 2.13294 1.03691 2.13294 1.03691V1.36932C2.13294 1.36932 2.04796 1.17937 1.86801 1.17937C1.63057 1.17937 1.49811 1.35932 1.49811 1.55927C1.49811 1.75922 1.64057 1.95917 1.94549 1.95917C2.00297 1.95917 2.08795 1.95917 2.22042 1.90168L2.12544 2.1966V2.1941ZM2.74278 8.75489H0.55835V8.17505H2.58032C2.88524 8.17505 3.38761 8.04258 3.38761 7.36775V2.65898H3.97746V7.5677C3.97746 8.44997 3.30263 8.75489 2.74278 8.75489Z" fill="#6E4091"/>
</svg>
