<svg width="5" height="7" viewBox="0 0 5 7" fill="none" xmlns="http://www.w3.org/2000/svg">
<path d="M3.63326 1.46641C3.40582 1.46641 3.22336 1.28645 3.22336 1.06901C3.22336 0.851565 3.40332 0.669119 3.63326 0.669119C3.8632 0.669119 4.03315 0.849066 4.03315 1.06901C4.03315 1.28895 3.8607 1.46641 3.63326 1.46641ZM2.22862 1.46641C2.00118 1.46641 1.82123 1.28646 1.82123 1.05902C1.82123 0.851571 2.00118 0.661621 2.22862 0.661621C2.45606 0.661621 2.62852 0.851571 2.62852 1.05902C2.62852 1.28646 2.44856 1.46641 2.22862 1.46641ZM2.87595 2.48364C2.3261 2.48364 1.49881 2.96852 1.49881 4.51561C1.49881 5.95774 2.3061 6.61506 2.87595 6.61506C3.44581 6.61506 4.28059 5.99773 4.28059 4.51561C4.28059 3.0335 3.42581 2.48364 2.87595 2.48364ZM2.90345 6.87C1.76374 6.87 0.833984 6.1002 0.833984 4.5631C0.833984 3.30093 1.76374 2.2662 2.90345 2.2662C4.04315 2.2662 4.97291 3.10098 4.97291 4.5631C4.97291 5.83527 4.04315 6.87 2.90345 6.87Z" fill="#6E4091"/>
</svg>
