<svg width="5" height="7" viewBox="0 0 5 7" fill="none" xmlns="http://www.w3.org/2000/svg">
<path d="M3.83177 1.34579C3.62183 0.585988 2.69207 0.585986 2.69207 0.585986C1.94226 0.585986 1.44739 1.45826 1.44739 2.76042C1.44739 3.56771 1.75231 4.57495 2.67207 4.59244C2.70956 4.59244 3.31691 4.58245 3.83177 4.11757V1.34579ZM2.71956 6.38698C3.39439 6.38698 3.83927 5.9121 3.83927 5.39973V4.41249C3.83927 4.41249 3.41188 4.79239 2.5571 4.79239C1.32243 4.79239 0.810059 3.74767 0.810059 2.63796C0.810059 1.10086 1.66484 0.303558 2.70956 0.303558C3.48686 0.303558 4.40912 0.56849 4.40912 1.53824V4.40499C4.40912 5.10731 4.38913 6.6544 2.64208 6.6544C2.5846 6.6544 1.86478 6.65441 1.4074 6.33199V5.85711C1.75981 6.2745 2.10972 6.38947 2.71706 6.38947" fill="#6E4091"/>
</svg>
