<svg width="4" height="6" viewBox="0 0 4 6" fill="none" xmlns="http://www.w3.org/2000/svg">
<path d="M2.25262 1.09961C2.08817 1.09961 1.94451 0.964644 1.94451 0.794064C1.94451 0.636605 2.08817 0.494141 2.25262 0.494141C2.41707 0.494141 2.56073 0.636605 2.56073 0.794064C2.56073 0.964644 2.42463 1.09961 2.25262 1.09961ZM1.80085 1.81942C1.52109 1.81942 1.23944 2.05374 1.23944 2.41739C1.23944 3.22905 2.26585 3.40713 2.6836 3.88513C2.73463 3.74267 2.74787 3.60021 2.74787 3.42963C2.74787 2.51861 2.33201 1.82129 1.80085 1.82129M1.28481 1.10148C1.12036 1.10148 0.982366 0.966515 0.982366 0.795934C0.982366 0.638475 1.11847 0.496017 1.28481 0.496017C1.46438 0.496017 1.59292 0.638475 1.59292 0.795934C1.59292 0.966515 1.46438 1.10148 1.28481 1.10148ZM1.7517 5.06795H0.422852V4.63306H1.80841C2.28286 4.63306 2.47567 4.35564 2.61933 4.0276C2.20347 3.57209 0.781999 3.31528 0.781999 2.43988C0.781999 2.0125 1.19786 1.65634 1.81597 1.65634C2.73652 1.65634 3.22421 2.51111 3.22421 3.409C3.22421 4.30689 2.62878 5.06795 1.7517 5.06795Z" fill="#6E4091"/>
</svg>
