<svg width="6" height="7" viewBox="0 0 6 7" fill="none" xmlns="http://www.w3.org/2000/svg">
<path d="M3.08219 1.34593C2.87224 0.586123 1.94248 0.586121 1.94248 0.586121C1.19268 0.586121 0.697807 1.4584 0.697807 2.76056C0.697807 3.56785 1.00273 4.57258 1.92248 4.59258C1.95998 4.59258 2.56732 4.58258 3.08219 4.1177V1.34593ZM4.81923 4.75503C4.21189 4.75503 3.81199 4.40263 3.65204 4.17519C3.65204 5.42736 3.51957 6.62455 1.885 6.62455H1.865C1.73254 6.62455 1.03022 6.61455 0.650318 6.30213V5.82726C1.00273 6.25465 1.35263 6.35962 1.95997 6.35962C2.6248 6.35962 3.06219 5.91473 3.06219 5.33488V4.41513C3.06219 4.41513 2.6523 4.79502 1.80002 4.79502C0.565342 4.79502 0.0529785 3.7503 0.0529785 2.64059C0.0529785 1.10349 0.907749 0.293701 1.95248 0.293701C2.73977 0.293701 3.65204 0.578622 3.65204 1.53837V3.53286C3.7745 3.7403 4.1844 4.18768 4.66677 4.18768C4.87422 4.18768 5.18913 4.17768 5.18913 4.17768V4.75754H4.81923V4.75503Z" fill="#6E4091"/>
</svg>
