<svg width="6" height="8" viewBox="0 0 6 8" fill="none" xmlns="http://www.w3.org/2000/svg">
<path d="M5.84596 5.75497C4.5363 5.75497 4.32636 4.9002 4.18389 3.67552H2.9867C1.97197 3.67552 1.53458 4.35785 1.53458 5.13764C1.53458 6.17237 2.30438 7.36956 3.50907 7.36956C3.86147 7.36956 4.25887 7.26459 4.67627 7.02715L3.784 7.65448C1.80951 7.65448 0.822266 6.28734 0.822266 5.01517C0.822266 4.09291 1.35463 3.25813 2.41685 3.10567C1.847 2.76326 1.58957 2.39336 1.58957 2.05095C1.58957 1.4536 2.37686 0.901245 3.59405 0.901245C4.1739 0.901245 4.72375 1.10119 4.72375 1.11869V1.58357C4.72375 1.58357 4.41133 1.11869 3.81149 1.11869C2.90922 1.11869 2.2169 1.69854 2.2169 2.2309C2.2169 2.67578 2.69178 3.08567 3.90647 3.08567C4.1439 3.08567 4.47632 3.08568 4.9412 3.02819L4.68376 3.67302H4.49381C4.49381 4.40533 4.80623 5.17263 5.691 5.17263H5.88095V5.75248H5.84346L5.84596 5.75497Z" fill="#6E4091"/>
</svg>
