<svg width="4" height="7" viewBox="0 0 4 7" fill="none" xmlns="http://www.w3.org/2000/svg">
<path d="M2.67853 1.18119C2.46108 1.18119 2.27113 1.00124 2.27113 0.773799C2.27113 0.563853 2.46108 0.373901 2.67853 0.373901C2.89597 0.373901 3.08592 0.563853 3.08592 0.773799C3.08592 1.00124 2.90597 1.18119 2.67853 1.18119ZM2.08118 2.14094C1.71128 2.14094 1.33887 2.45336 1.33887 2.93824C1.33887 4.02045 2.69602 4.25789 3.24838 4.89522C3.31586 4.70527 3.33336 4.51532 3.33336 4.28788C3.33336 3.0732 2.7835 2.14344 2.08118 2.14344M1.39886 1.18369C1.18142 1.18369 0.998961 1.00373 0.998961 0.776293C0.998961 0.566348 1.17892 0.376403 1.39886 0.376403C1.6363 0.376403 1.80625 0.566348 1.80625 0.776293C1.80625 1.00373 1.6363 1.18369 1.39886 1.18369ZM2.0162 6.47231H0.259155V5.89246H2.09118C2.71852 5.89246 2.97345 5.52256 3.1634 5.08518C2.61354 4.47783 0.734031 4.13542 0.734031 2.96823C0.734031 2.39838 1.28389 1.9235 2.10118 1.9235C3.31836 1.9235 3.96319 3.0632 3.96319 4.26039C3.96319 5.45758 3.1759 6.47231 2.0162 6.47231Z" fill="#6E4091"/>
</svg>
