<svg width="6" height="5" viewBox="0 0 6 5" fill="none" xmlns="http://www.w3.org/2000/svg">
<path d="M3.85856 4.75486H0.734375V4.17502H3.82107C4.36093 4.17502 5.02576 3.88009 5.02576 2.46546C5.02576 1.05083 4.35093 0.508468 3.82857 0.508468C3.3062 0.508468 2.5464 0.945859 2.5464 2.333C2.5464 2.85536 2.87882 3.20527 2.91631 3.20527C2.91631 3.20527 2.78384 3.4427 2.47892 3.4427C1.91907 3.4427 1.86158 2.77788 1.86158 2.51295C1.86158 1.29827 2.75385 0.301025 3.85606 0.301025C4.95828 0.301025 5.84055 1.13581 5.84055 2.54294C5.84055 3.74763 4.94828 4.75486 3.85606 4.75486" fill="#6E4091"/>
</svg>
