<svg width="6" height="7" viewBox="0 0 6 7" fill="none" xmlns="http://www.w3.org/2000/svg">
<path d="M3.88272 1.3458C3.67278 0.586001 2.74302 0.585999 2.74302 0.585999C1.99322 0.585999 1.49834 1.45827 1.49834 2.76044C1.49834 3.56773 1.80326 4.57246 2.72302 4.59246C2.76051 4.59246 3.36786 4.58246 3.88272 4.11758V1.3458ZM5.61976 4.75491C5.01242 4.75491 4.61253 4.40251 4.45257 4.17507C4.45257 5.42724 4.32011 6.62443 2.68553 6.62443H2.66554C2.53308 6.62443 1.83076 6.61443 1.45086 6.30201V5.82713C1.80326 6.25452 2.15317 6.3595 2.76051 6.3595C3.42534 6.3595 3.86272 5.91461 3.86272 5.33476V4.415C3.86272 4.415 3.45283 4.7949 2.60056 4.7949C1.36588 4.7949 0.853516 3.75018 0.853516 2.64046C0.853516 1.10336 1.70829 0.293579 2.75301 0.293579C3.54031 0.293579 4.45257 0.5785 4.45257 1.53825V3.53273C4.57504 3.74018 4.98493 4.18756 5.46731 4.18756C5.67475 4.18756 5.98967 4.17756 5.98967 4.17756V4.75741H5.61976V4.75491Z" fill="#6E4091"/>
</svg>
