<svg width="8" height="7" viewBox="0 0 8 7" fill="none" xmlns="http://www.w3.org/2000/svg">
<path d="M7.09045 0.12933C7.08545 0.451746 7.08795 0.779161 7.01547 1.08908C6.908 1.56396 6.79553 2.06133 6.55809 2.47872C6.11571 3.25352 5.24843 3.22103 4.83604 2.43873C4.63359 2.05383 4.53112 1.61894 4.36366 1.21405C4.31868 1.10658 4.19621 1.0291 4.10873 0.93662C4.02375 1.0291 3.89378 1.10658 3.86129 1.21155C3.67384 1.81389 3.55637 2.44373 3.32143 3.02608C3.13648 3.48346 2.87905 3.94834 2.54164 4.30324C2.01427 4.8556 1.41193 4.68315 1.20698 3.94334C1.07952 3.48346 1.07702 2.99109 0.99204 2.51871C0.969546 2.39624 0.849576 2.28877 0.772096 2.1738C0.657126 2.26128 0.479674 2.32626 0.437185 2.43873C0.304719 2.80113 0.209742 3.17604 0.127264 3.55344C-0.0276957 4.25826 -0.0576884 4.96057 0.232236 5.64289C0.467175 6.19275 0.794592 6.65763 1.42193 6.82009C2.35419 7.06253 3.52638 6.45018 3.99376 5.47294C4.18121 5.08054 4.2037 5.07304 4.5911 5.248C5.64083 5.72787 6.69805 5.41795 7.31789 4.44821C7.81026 3.67841 7.97522 2.82613 8.00021 1.91886C7.91774 1.32152 7.83526 0.724176 7.75028 0.126831H7.08795L7.09045 0.12933Z" fill="#312B43"/>
</svg>
