<svg width="4" height="7" viewBox="0 0 4 7" fill="none" xmlns="http://www.w3.org/2000/svg">
<path d="M2.67865 1.46647C2.4612 1.46647 2.27126 1.28652 2.27126 1.05908C2.27126 0.849132 2.4612 0.65918 2.67865 0.65918C2.89609 0.65918 3.08604 0.849132 3.08604 1.05908C3.08604 1.28652 2.90609 1.46647 2.67865 1.46647ZM2.0813 2.42622C1.7114 2.42622 1.339 2.73864 1.339 3.22351C1.339 4.30573 2.69614 4.54317 3.2485 5.1805C3.31598 4.99055 3.33348 4.8006 3.33348 4.57316C3.33348 3.35848 2.78362 2.42872 2.0813 2.42872M1.39898 1.46897C1.18154 1.46897 0.999083 1.28901 0.999083 1.06157C0.999083 0.851626 1.17904 0.661681 1.39898 0.661681C1.63642 0.661681 1.80638 0.851626 1.80638 1.06157C1.80638 1.28901 1.63642 1.46897 1.39898 1.46897ZM2.01632 6.75759H0.259277V6.17774H2.0913C2.71864 6.17774 2.97357 5.80784 3.16352 5.37046C2.61367 4.76311 0.734153 4.4207 0.734153 3.25351C0.734153 2.68365 1.28401 2.20878 2.1013 2.20878C3.31848 2.20878 3.96331 3.34848 3.96331 4.54567C3.96331 5.74285 3.17602 6.75759 2.01632 6.75759Z" fill="#6E4091"/>
</svg>
