<svg width="6" height="5" viewBox="0 0 6 5" fill="none" xmlns="http://www.w3.org/2000/svg">
<path d="M3.65836 4.75492H0.53418V4.17508H3.62087C4.16073 4.17508 4.82556 3.88016 4.82556 2.46552C4.82556 1.05089 4.15074 0.508529 3.62837 0.508529C3.10601 0.508529 2.34621 0.94592 2.34621 2.33306C2.34621 2.85542 2.67862 3.20533 2.71611 3.20533C2.71611 3.20533 2.58365 3.44276 2.27873 3.44276C1.71887 3.44276 1.66139 2.77794 1.66139 2.51301C1.66139 1.29833 2.55366 0.301086 3.65587 0.301086C4.75808 0.301086 5.64035 1.13587 5.64035 2.543C5.64035 3.74769 4.74808 4.75492 3.65587 4.75492" fill="#6E4091"/>
</svg>
