<svg width="6" height="8" viewBox="0 0 6 8" fill="none" xmlns="http://www.w3.org/2000/svg">
<path d="M5.84559 5.46982C4.53593 5.46982 4.32599 4.61505 4.18353 3.39037H2.98634C1.9716 3.39037 1.53422 4.07269 1.53422 4.85249C1.53422 5.88722 2.30401 7.0844 3.5087 7.0844C3.86111 7.0844 4.25851 6.97943 4.6759 6.74199L3.78363 7.36932C1.80914 7.36932 0.821899 6.00218 0.821899 4.73001C0.821899 3.80775 1.35426 2.97298 2.41649 2.82052C1.84663 2.4781 1.5892 2.1082 1.5892 1.76579C1.5892 1.16845 2.3765 0.616089 3.59368 0.616089C4.17353 0.616089 4.72338 0.816035 4.72338 0.833531V1.29841C4.72338 1.29841 4.41097 0.833531 3.81112 0.833531C2.90886 0.833531 2.21654 1.41338 2.21654 1.94574C2.21654 2.39063 2.69142 2.80052 3.9061 2.80052C4.14354 2.80052 4.47595 2.80052 4.94083 2.74304L4.6834 3.38786H4.49344C4.49344 4.12017 4.80587 4.88747 5.69064 4.88747H5.88058V5.46732H5.8431L5.84559 5.46982Z" fill="#6E4091"/>
</svg>
