<svg width="7" height="6" viewBox="0 0 7 6" fill="none" xmlns="http://www.w3.org/2000/svg">
<path d="M4.5892 2.98033C4.5892 1.49822 3.92437 1.04334 3.39201 1.04334C2.85964 1.04334 2.07235 1.51821 2.07235 3.00032C2.07235 3.07531 2.02486 5.0048 3.4295 5.0048C3.92437 5.0048 4.5892 4.41495 4.5892 2.98283M0.562744 4.18002H1.73994C1.45501 3.63016 1.44501 3.05031 1.44501 3.05031C1.44501 1.83563 2.32728 0.848389 3.4195 0.848389C4.51171 0.848389 5.41398 1.64568 5.41398 3.05031C5.41398 3.46771 5.319 3.8476 5.13905 4.18002H6.39122V4.75987H4.70167C4.37925 5.04479 3.95186 5.21475 3.44949 5.21475C2.86964 5.21475 2.46225 5.0248 2.16733 4.75987H0.562744V4.18002Z" fill="#6E4091"/>
</svg>
