<svg width="6" height="5" viewBox="0 0 6 5" fill="none" xmlns="http://www.w3.org/2000/svg">
<path d="M3.85831 4.46983H0.734131V3.88998H3.82083C4.36068 3.88998 5.02551 3.59506 5.02551 2.18043C5.02551 0.765797 4.35069 0.223434 3.82832 0.223434C3.30596 0.223434 2.54616 0.660824 2.54616 2.04796C2.54616 2.57033 2.87857 2.92023 2.91606 2.92023C2.91606 2.92023 2.7836 3.15767 2.47868 3.15767C1.91882 3.15767 1.86134 2.49285 1.86134 2.22792C1.86134 1.01323 2.75361 0.0159912 3.85582 0.0159912C4.95803 0.0159912 5.8403 0.850774 5.8403 2.25791C5.8403 3.46259 4.94803 4.46983 3.85582 4.46983" fill="#6E4091"/>
</svg>
