<svg width="7" height="5" viewBox="0 0 7 5" fill="none" xmlns="http://www.w3.org/2000/svg">
<path d="M4.58907 2.69518C4.58907 1.21306 3.92424 0.758181 3.39188 0.758181C2.85952 0.758181 2.07223 1.23305 2.07223 2.71517C2.07223 2.79015 2.02474 4.71964 3.42938 4.71964C3.92425 4.71964 4.58907 4.1298 4.58907 2.69767M0.562622 3.89486H1.73981C1.45489 3.345 1.44489 2.76516 1.44489 2.76516C1.44489 1.55047 2.32716 0.563232 3.41938 0.563232C4.51159 0.563232 5.41386 1.36052 5.41386 2.76516C5.41386 3.18255 5.31888 3.56245 5.13893 3.89486H6.3911V4.47471H4.70154C4.37913 4.75964 3.95174 4.9296 3.44937 4.9296C2.86952 4.9296 2.46213 4.73964 2.1672 4.47471H0.562622V3.89486Z" fill="#6E4091"/>
</svg>
