<svg width="24" height="25" viewBox="0 0 24 25" fill="none" xmlns="http://www.w3.org/2000/svg">
<path d="M22.54 7.13484C22.4212 6.66025 22.1792 6.22542 21.8386 5.87425C21.498 5.52308 21.0707 5.26803 20.6 5.13484C18.88 4.71484 12 4.71484 12 4.71484C12 4.71484 5.11996 4.71484 3.39996 5.17484C2.92921 5.30803 2.50194 5.56308 2.16131 5.91425C1.82068 6.26542 1.57875 6.70025 1.45996 7.17484C1.14518 8.9204 0.991197 10.6912 0.999961 12.4648C0.988741 14.2519 1.14273 16.0361 1.45996 17.7948C1.59092 18.2547 1.83827 18.673 2.17811 19.0093C2.51794 19.3457 2.93878 19.5887 3.39996 19.7148C5.11996 20.1748 12 20.1748 12 20.1748C12 20.1748 18.88 20.1748 20.6 19.7148C21.0707 19.5817 21.498 19.3266 21.8386 18.9754C22.1792 18.6243 22.4212 18.1894 22.54 17.7148C22.8523 15.9824 23.0063 14.2252 23 12.4648C23.0112 10.6778 22.8572 8.89354 22.54 7.13484Z" fill="url(#paint0_linear_26_15881)"/>
<path d="M9.75 15.7348L15.5 12.4648L9.75 9.19482V15.7348Z" fill="white"/>
<defs>
<linearGradient id="paint0_linear_26_15881" x1="23.0005" y1="13.2642" x2="0.99939" y2="13.2642" gradientUnits="userSpaceOnUse">
<stop stop-color="#EF6498"/>
<stop offset="1" stop-color="#542D91"/>
</linearGradient>
</defs>
</svg>
